<svg xmlns="http://www.w3.org/2000/svg" xmlns:xlink="http://www.w3.org/1999/xlink" width="1634" zoomAndPan="magnify" viewBox="0 0 1225.5 224.249992" height="299" preserveAspectRatio="xMidYMid meet" version="1.0"><defs><clipPath id="id1"><path d="M 540.023438 33.910156 L 685.84375 33.910156 L 685.84375 189.453125 L 540.023438 189.453125 Z M 540.023438 33.910156 " clip-rule="nonzero"/></clipPath></defs><g clip-path="url(#id1)"><path fill="#ffffff" d="M 615.910156 186.460938 C 583.992188 186.460938 556.695312 164.0625 550.476562 133.050781 L 544.808594 133.050781 C 544.285156 133.050781 543.796875 132.773438 543.535156 132.316406 C 543.269531 131.867188 543.269531 131.304688 543.535156 130.851562 L 550.375 119.050781 C 550.902344 118.140625 552.398438 118.140625 552.925781 119.050781 L 559.765625 130.851562 C 560.027344 131.304688 560.027344 131.867188 559.765625 132.316406 C 559.503906 132.773438 559.015625 133.050781 558.492188 133.050781 L 553.492188 133.050781 C 559.660156 162.394531 585.597656 183.527344 615.910156 183.527344 C 651.105469 183.527344 679.742188 155.007812 679.742188 119.953125 C 679.742188 84.894531 651.105469 56.375 615.910156 56.375 C 605.339844 56.375 594.867188 59.003906 585.625 63.972656 C 584.90625 64.363281 584.015625 64.089844 583.628906 63.378906 C 583.242188 62.667969 583.511719 61.777344 584.226562 61.394531 C 593.464844 56.425781 603.882812 53.722656 614.4375 53.488281 L 614.4375 39.832031 L 603.988281 39.832031 C 603.175781 39.832031 602.515625 39.175781 602.515625 38.367188 C 602.515625 37.554688 603.175781 36.898438 603.988281 36.898438 L 626.925781 36.898438 C 627.742188 36.898438 628.398438 37.554688 628.398438 38.367188 C 628.398438 39.175781 627.742188 39.832031 626.925781 39.832031 L 617.382812 39.832031 L 617.382812 53.480469 C 628.011719 53.710938 638.03125 56.417969 646.886719 61.058594 L 653.484375 50.167969 C 653.90625 49.472656 654.808594 49.25 655.507812 49.671875 C 656.203125 50.089844 656.429688 50.992188 656.007812 51.683594 L 649.464844 62.484375 C 669.308594 74.027344 682.6875 95.457031 682.6875 119.953125 C 682.6875 156.625 652.730469 186.460938 615.910156 186.460938 Z M 653.574219 61.488281 L 658.582031 53.230469 C 659.855469 51.125 659.171875 48.378906 657.058594 47.109375 C 656.359375 46.691406 655.558594 46.46875 654.75 46.46875 C 653.1875 46.46875 651.71875 47.292969 650.914062 48.625 L 645.75 57.148438 C 637.757812 53.359375 629.253906 51.167969 620.386719 50.613281 L 620.386719 42.824219 L 626.925781 42.824219 C 629.394531 42.824219 631.402344 40.824219 631.402344 38.367188 C 631.402344 35.90625 629.394531 33.910156 626.925781 33.910156 L 603.988281 33.910156 C 601.519531 33.910156 599.511719 35.90625 599.511719 38.367188 C 599.511719 40.824219 601.519531 42.824219 603.988281 42.824219 L 611.4375 42.824219 L 611.4375 50.625 C 601.390625 51.265625 591.546875 54.058594 582.800781 58.761719 C 581.746094 59.324219 580.980469 60.265625 580.636719 61.40625 C 580.292969 62.550781 580.417969 63.753906 580.988281 64.800781 C 581.769531 66.246094 583.28125 67.140625 584.925781 67.140625 C 585.671875 67.140625 586.40625 66.953125 587.054688 66.605469 C 595.855469 61.871094 605.835938 59.367188 615.910156 59.367188 C 649.453125 59.367188 676.738281 86.546875 676.738281 119.953125 C 676.738281 153.359375 649.453125 180.535156 615.910156 180.535156 C 588.550781 180.535156 564.480469 162.035156 557.308594 136.042969 L 558.492188 136.042969 C 560.085938 136.042969 561.574219 135.1875 562.363281 133.820312 C 563.164062 132.445312 563.167969 130.730469 562.367188 129.355469 L 555.527344 117.554688 C 554.75 116.210938 553.261719 115.378906 551.648438 115.378906 C 550.035156 115.378906 548.550781 116.210938 547.773438 117.554688 L 540.933594 129.355469 C 540.132812 130.730469 540.136719 132.445312 540.929688 133.8125 C 541.730469 135.1875 543.214844 136.042969 544.808594 136.042969 L 548.058594 136.042969 C 555.453125 167.136719 583.601562 189.453125 615.910156 189.453125 C 654.386719 189.453125 685.691406 158.273438 685.691406 119.953125 C 685.691406 96.371094 673.457031 74.242188 653.574219 61.488281 " fill-opacity="1" fill-rule="nonzero"/></g><path fill="#ffffff" d="M 551.648438 122.714844 L 547.359375 130.121094 L 555.941406 130.121094 Z M 551.648438 122.714844 " fill-opacity="1" fill-rule="nonzero"/><path fill="#ffffff" d="M 596.484375 113.035156 L 607.699219 99.3125 L 613.578125 99.3125 L 600.292969 114.824219 L 614.613281 135.867188 L 609.003906 135.867188 L 596.917969 117.914062 L 593.433594 121.929688 L 593.433594 135.867188 L 588.695312 135.867188 L 588.695312 99.3125 L 593.433594 99.3125 L 593.433594 116.941406 L 593.59375 116.941406 C 594.574219 115.53125 595.554688 114.226562 596.484375 113.035156 Z M 585.691406 96.324219 L 585.691406 138.859375 L 596.4375 138.859375 L 596.4375 123.042969 L 596.617188 122.835938 L 607.40625 138.859375 L 620.277344 138.859375 L 604.0625 115.03125 L 620.085938 96.324219 L 606.273438 96.324219 L 596.4375 108.355469 L 596.4375 96.324219 L 585.691406 96.324219 " fill-opacity="1" fill-rule="nonzero"/><path fill="#ffffff" d="M 620.109375 117.589844 C 620.109375 126.867188 625.71875 132.339844 634.265625 132.339844 C 637.371094 132.339844 639.492188 131.910156 640.582031 131.363281 L 640.582031 120.464844 L 633.125 120.464844 L 633.125 116.667969 L 645.210938 116.667969 L 645.210938 134.242188 C 643.085938 135 638.894531 136.246094 633.9375 136.246094 C 628.386719 136.246094 623.8125 134.835938 620.21875 131.417969 C 617.058594 128.382812 615.097656 123.503906 615.097656 117.808594 C 615.152344 106.90625 622.667969 98.933594 634.972656 98.933594 C 639.21875 98.933594 642.542969 99.855469 644.121094 100.613281 L 642.976562 104.464844 C 641.015625 103.597656 638.566406 102.894531 634.863281 102.894531 C 625.9375 102.894531 620.109375 108.425781 620.109375 117.589844 Z M 634.863281 105.886719 C 638.34375 105.886719 640.375 106.585938 641.757812 107.195312 L 644.886719 108.585938 L 647.726562 99.027344 L 645.429688 97.921875 C 643.441406 96.964844 639.648438 95.941406 634.976562 95.941406 C 621.355469 95.941406 612.160156 104.722656 612.097656 117.808594 C 612.097656 124.140625 614.296875 129.882812 618.144531 133.582031 C 622.148438 137.386719 627.3125 139.238281 633.9375 139.238281 C 639.050781 139.238281 643.441406 138.050781 646.226562 137.054688 L 648.214844 136.34375 L 648.214844 113.675781 L 630.121094 113.675781 L 630.121094 123.457031 L 637.578125 123.457031 L 637.578125 129.125 C 636.765625 129.253906 635.667969 129.351562 634.265625 129.351562 C 627.175781 129.351562 623.113281 125.0625 623.113281 117.589844 C 623.113281 110.261719 627.503906 105.886719 634.863281 105.886719 " fill-opacity="1" fill-rule="nonzero"/></svg>