<svg xmlns="http://www.w3.org/2000/svg" xmlns:xlink="http://www.w3.org/1999/xlink" width="1634" zoomAndPan="magnify" viewBox="0 0 1225.5 224.249992" height="299" preserveAspectRatio="xMidYMid meet" version="1.0"><defs><g/></defs><g fill="#ffffff" fill-opacity="1"><g transform="translate(296.774578, 89.694266)"><g><path d="M 15.796875 0.671875 C 10.753906 0.671875 7.070312 -0.65625 4.75 -3.3125 C 2.425781 -5.96875 1.265625 -10.019531 1.265625 -15.46875 L 1.265625 -21.5 L 13.0625 -21.5 L 13.0625 -15.46875 C 13.0625 -13.726562 13.28125 -12.378906 13.71875 -11.421875 C 14.164062 -10.460938 15.0625 -9.984375 16.40625 -9.984375 C 17.34375 -9.984375 18.023438 -10.316406 18.453125 -10.984375 C 18.878906 -11.648438 19.132812 -12.441406 19.21875 -13.359375 C 19.3125 -14.273438 19.359375 -15.601562 19.359375 -17.34375 L 19.359375 -18.75 C 19.359375 -23.707031 17.726562 -26.1875 14.46875 -26.1875 C 13.882812 -26.1875 13.503906 -26.164062 13.328125 -26.125 L 13.328125 -36.4375 C 15.378906 -36.4375 16.914062 -36.890625 17.9375 -37.796875 C 18.96875 -38.710938 19.484375 -40.175781 19.484375 -42.1875 C 19.484375 -45.445312 18.546875 -47.078125 16.671875 -47.078125 C 15.515625 -47.078125 14.765625 -46.785156 14.421875 -46.203125 C 14.085938 -45.628906 13.863281 -44.894531 13.75 -44 C 13.644531 -43.101562 13.570312 -42.457031 13.53125 -42.0625 L 13.53125 -40.3125 L 1.609375 -40.3125 L 1.546875 -42.328125 C 1.585938 -47.585938 2.832031 -51.457031 5.28125 -53.9375 C 7.738281 -56.414062 11.515625 -57.65625 16.609375 -57.65625 C 26.390625 -57.65625 31.28125 -52.546875 31.28125 -42.328125 C 31.28125 -39.335938 30.875 -36.957031 30.0625 -35.1875 C 29.257812 -33.425781 27.878906 -32.1875 25.921875 -31.46875 C 27.523438 -30.664062 28.71875 -29.671875 29.5 -28.484375 C 30.28125 -27.304688 30.789062 -25.867188 31.03125 -24.171875 C 31.28125 -22.472656 31.40625 -20.195312 31.40625 -17.34375 C 31.40625 -11.40625 30.164062 -6.914062 27.6875 -3.875 C 25.207031 -0.84375 21.242188 0.671875 15.796875 0.671875 Z M 15.796875 0.671875 "/></g></g></g><g fill="#ffffff" fill-opacity="1"><g transform="translate(329.854606, 89.694266)"><g/></g></g><g fill="#ffffff" fill-opacity="1"><g transform="translate(345.524094, 89.694266)"><g><path d="M 16.203125 0.53125 C 10.984375 0.53125 7.210938 -0.757812 4.890625 -3.34375 C 2.566406 -5.9375 1.40625 -10.113281 1.40625 -15.875 L 1.40625 -21.5 L 12.71875 -21.5 L 12.71875 -14.328125 C 12.71875 -11.472656 13.632812 -10.046875 15.46875 -10.046875 C 16.5 -10.046875 17.210938 -10.347656 17.609375 -10.953125 C 18.015625 -11.554688 18.21875 -12.570312 18.21875 -14 C 18.21875 -15.875 17.992188 -17.425781 17.546875 -18.65625 C 17.097656 -19.882812 16.523438 -20.910156 15.828125 -21.734375 C 15.140625 -22.554688 13.90625 -23.835938 12.125 -25.578125 L 7.171875 -30.53125 C 3.328125 -34.28125 1.40625 -38.4375 1.40625 -43 C 1.40625 -47.90625 2.53125 -51.640625 4.78125 -54.203125 C 7.039062 -56.773438 10.335938 -58.0625 14.671875 -58.0625 C 19.847656 -58.0625 23.570312 -56.6875 25.84375 -53.9375 C 28.125 -51.195312 29.265625 -46.898438 29.265625 -41.046875 L 17.546875 -41.046875 L 17.484375 -45 C 17.484375 -45.757812 17.269531 -46.363281 16.84375 -46.8125 C 16.414062 -47.257812 15.820312 -47.484375 15.0625 -47.484375 C 14.175781 -47.484375 13.507812 -47.234375 13.0625 -46.734375 C 12.613281 -46.242188 12.390625 -45.578125 12.390625 -44.734375 C 12.390625 -42.859375 13.460938 -40.914062 15.609375 -38.90625 L 22.296875 -32.484375 C 23.859375 -30.960938 25.148438 -29.519531 26.171875 -28.15625 C 27.203125 -26.800781 28.03125 -25.195312 28.65625 -23.34375 C 29.28125 -21.488281 29.59375 -19.285156 29.59375 -16.734375 C 29.59375 -11.066406 28.554688 -6.769531 26.484375 -3.84375 C 24.410156 -0.925781 20.984375 0.53125 16.203125 0.53125 Z M 16.203125 0.53125 "/></g></g></g><g fill="#ffffff" fill-opacity="1"><g transform="translate(376.394322, 89.694266)"><g><path d="M 2.546875 0 L 2.546875 -57.53125 L 25.578125 -57.53125 L 25.578125 -46.40625 L 14.265625 -46.40625 L 14.265625 -35.21875 L 25.109375 -35.21875 L 25.109375 -24.375 L 14.265625 -24.375 L 14.265625 -11.1875 L 26.3125 -11.1875 L 26.3125 0 Z M 2.546875 0 "/></g></g></g><g fill="#ffffff" fill-opacity="1"><g transform="translate(403.983331, 89.694266)"><g><path d="M 15.9375 0.53125 C 11.738281 0.53125 8.378906 -0.78125 5.859375 -3.40625 C 3.335938 -6.039062 2.078125 -9.660156 2.078125 -14.265625 L 2.078125 -40.78125 C 2.078125 -46.5 3.210938 -50.804688 5.484375 -53.703125 C 7.765625 -56.609375 11.335938 -58.0625 16.203125 -58.0625 C 20.441406 -58.0625 23.859375 -56.898438 26.453125 -54.578125 C 29.046875 -52.253906 30.34375 -48.90625 30.34375 -44.53125 L 30.34375 -34.625 L 18.890625 -34.625 L 18.890625 -43.125 C 18.890625 -44.78125 18.6875 -45.921875 18.28125 -46.546875 C 17.882812 -47.171875 17.191406 -47.484375 16.203125 -47.484375 C 15.179688 -47.484375 14.476562 -47.125 14.09375 -46.40625 C 13.71875 -45.695312 13.53125 -44.648438 13.53125 -43.265625 L 13.53125 -14.390625 C 13.53125 -12.878906 13.75 -11.773438 14.1875 -11.078125 C 14.632812 -10.390625 15.304688 -10.046875 16.203125 -10.046875 C 17.992188 -10.046875 18.890625 -11.492188 18.890625 -14.390625 L 18.890625 -24.78125 L 30.46875 -24.78125 L 30.46875 -13.921875 C 30.46875 -4.285156 25.625 0.53125 15.9375 0.53125 Z M 15.9375 0.53125 "/></g></g></g><g fill="#ffffff" fill-opacity="1"><g transform="translate(435.724085, 89.694266)"><g><path d="M 2.546875 -57.53125 L 20.21875 -57.53125 C 23.03125 -57.53125 25.207031 -56.890625 26.75 -55.609375 C 28.289062 -54.335938 29.328125 -52.550781 29.859375 -50.25 C 30.398438 -47.957031 30.671875 -45.023438 30.671875 -41.453125 C 30.671875 -38.191406 30.242188 -35.644531 29.390625 -33.8125 C 28.546875 -31.988281 27.078125 -30.71875 24.984375 -30 C 26.722656 -29.644531 27.984375 -28.773438 28.765625 -27.390625 C 29.546875 -26.003906 29.9375 -24.128906 29.9375 -21.765625 L 29.796875 0 L 18.546875 0 L 18.546875 -22.5 C 18.546875 -24.101562 18.234375 -25.128906 17.609375 -25.578125 C 16.984375 -26.023438 15.847656 -26.25 14.203125 -26.25 L 14.203125 0 L 2.546875 0 Z M 17.015625 -36.234375 C 18.617188 -36.234375 19.421875 -37.972656 19.421875 -41.453125 C 19.421875 -42.972656 19.351562 -44.109375 19.21875 -44.859375 C 19.082031 -45.617188 18.835938 -46.144531 18.484375 -46.4375 C 18.128906 -46.726562 17.613281 -46.875 16.9375 -46.875 L 14.265625 -46.875 L 14.265625 -36.234375 Z M 17.015625 -36.234375 "/></g></g></g><g fill="#ffffff" fill-opacity="1"><g transform="translate(467.665735, 89.694266)"><g><path d="M 2.546875 0 L 2.546875 -57.53125 L 25.578125 -57.53125 L 25.578125 -46.40625 L 14.265625 -46.40625 L 14.265625 -35.21875 L 25.109375 -35.21875 L 25.109375 -24.375 L 14.265625 -24.375 L 14.265625 -11.1875 L 26.3125 -11.1875 L 26.3125 0 Z M 2.546875 0 "/></g></g></g><g fill="#ffffff" fill-opacity="1"><g transform="translate(495.254744, 89.694266)"><g><path d="M 7.5 0 L 7.5 -46.46875 L 0.671875 -46.46875 L 0.671875 -57.53125 L 25.84375 -57.53125 L 25.84375 -46.46875 L 19.015625 -46.46875 L 19.015625 0 Z M 7.5 0 "/></g></g></g><g fill="#ffffff" fill-opacity="1"><g transform="translate(521.772331, 89.694266)"><g><path d="M 16.265625 0.53125 C 11.628906 0.53125 8.101562 -0.882812 5.6875 -3.71875 C 3.28125 -6.550781 2.078125 -10.535156 2.078125 -15.671875 L 2.078125 -43.0625 C 2.078125 -48.019531 3.28125 -51.757812 5.6875 -54.28125 C 8.101562 -56.800781 11.628906 -58.0625 16.265625 -58.0625 C 20.910156 -58.0625 24.4375 -56.800781 26.84375 -54.28125 C 29.257812 -51.757812 30.46875 -48.019531 30.46875 -43.0625 L 30.46875 -15.671875 C 30.46875 -10.492188 29.257812 -6.5 26.84375 -3.6875 C 24.4375 -0.875 20.910156 0.53125 16.265625 0.53125 Z M 16.265625 -10.046875 C 17.296875 -10.046875 17.988281 -10.488281 18.34375 -11.375 C 18.707031 -12.269531 18.890625 -13.523438 18.890625 -15.140625 L 18.890625 -43.265625 C 18.890625 -44.515625 18.71875 -45.53125 18.375 -46.3125 C 18.039062 -47.09375 17.363281 -47.484375 16.34375 -47.484375 C 14.414062 -47.484375 13.453125 -46.03125 13.453125 -43.125 L 13.453125 -15.0625 C 13.453125 -13.414062 13.65625 -12.164062 14.0625 -11.3125 C 14.46875 -10.46875 15.203125 -10.046875 16.265625 -10.046875 Z M 16.265625 -10.046875 "/></g></g></g><g fill="#ffffff" fill-opacity="1"><g transform="translate(554.316654, 89.694266)"><g><path d="M 16.203125 0.53125 C 10.984375 0.53125 7.210938 -0.757812 4.890625 -3.34375 C 2.566406 -5.9375 1.40625 -10.113281 1.40625 -15.875 L 1.40625 -21.5 L 12.71875 -21.5 L 12.71875 -14.328125 C 12.71875 -11.472656 13.632812 -10.046875 15.46875 -10.046875 C 16.5 -10.046875 17.210938 -10.347656 17.609375 -10.953125 C 18.015625 -11.554688 18.21875 -12.570312 18.21875 -14 C 18.21875 -15.875 17.992188 -17.425781 17.546875 -18.65625 C 17.097656 -19.882812 16.523438 -20.910156 15.828125 -21.734375 C 15.140625 -22.554688 13.90625 -23.835938 12.125 -25.578125 L 7.171875 -30.53125 C 3.328125 -34.28125 1.40625 -38.4375 1.40625 -43 C 1.40625 -47.90625 2.53125 -51.640625 4.78125 -54.203125 C 7.039062 -56.773438 10.335938 -58.0625 14.671875 -58.0625 C 19.847656 -58.0625 23.570312 -56.6875 25.84375 -53.9375 C 28.125 -51.195312 29.265625 -46.898438 29.265625 -41.046875 L 17.546875 -41.046875 L 17.484375 -45 C 17.484375 -45.757812 17.269531 -46.363281 16.84375 -46.8125 C 16.414062 -47.257812 15.820312 -47.484375 15.0625 -47.484375 C 14.175781 -47.484375 13.507812 -47.234375 13.0625 -46.734375 C 12.613281 -46.242188 12.390625 -45.578125 12.390625 -44.734375 C 12.390625 -42.859375 13.460938 -40.914062 15.609375 -38.90625 L 22.296875 -32.484375 C 23.859375 -30.960938 25.148438 -29.519531 26.171875 -28.15625 C 27.203125 -26.800781 28.03125 -25.195312 28.65625 -23.34375 C 29.28125 -21.488281 29.59375 -19.285156 29.59375 -16.734375 C 29.59375 -11.066406 28.554688 -6.769531 26.484375 -3.84375 C 24.410156 -0.925781 20.984375 0.53125 16.203125 0.53125 Z M 16.203125 0.53125 "/></g></g></g><g fill="#ffffff" fill-opacity="1"><g transform="translate(585.186883, 89.694266)"><g/></g></g><g fill="#ffffff" fill-opacity="1"><g transform="translate(600.856371, 89.694266)"><g><path d="M 2.546875 -57.53125 L 17.75 -57.53125 C 22.34375 -57.53125 25.617188 -56.046875 27.578125 -53.078125 C 29.546875 -50.109375 30.53125 -45.765625 30.53125 -40.046875 C 30.53125 -34.328125 29.660156 -30.015625 27.921875 -27.109375 C 26.179688 -24.210938 23.054688 -22.765625 18.546875 -22.765625 L 13.859375 -22.765625 L 13.859375 0 L 2.546875 0 Z M 14.53125 -33.15625 C 15.914062 -33.15625 16.929688 -33.410156 17.578125 -33.921875 C 18.222656 -34.429688 18.644531 -35.164062 18.84375 -36.125 C 19.050781 -37.082031 19.15625 -38.457031 19.15625 -40.25 C 19.15625 -42.65625 18.882812 -44.394531 18.34375 -45.46875 C 17.8125 -46.539062 16.742188 -47.078125 15.140625 -47.078125 L 13.859375 -47.078125 L 13.859375 -33.15625 Z M 14.53125 -33.15625 "/></g></g></g><g fill="#ffffff" fill-opacity="1"><g transform="translate(632.463199, 89.694266)"><g><path d="M 1 0 L 6.5625 -57.53125 L 26.046875 -57.53125 L 31.546875 0 L 20.625 0 L 19.828125 -9.3125 L 12.859375 -9.3125 L 12.1875 0 Z M 13.734375 -18.484375 L 18.953125 -18.484375 L 16.40625 -47.75 L 15.875 -47.75 Z M 13.734375 -18.484375 "/></g></g></g><g fill="#ffffff" fill-opacity="1"><g transform="translate(664.940542, 89.694266)"><g><path d="M 2.546875 -57.53125 L 20.21875 -57.53125 C 23.03125 -57.53125 25.207031 -56.890625 26.75 -55.609375 C 28.289062 -54.335938 29.328125 -52.550781 29.859375 -50.25 C 30.398438 -47.957031 30.671875 -45.023438 30.671875 -41.453125 C 30.671875 -38.191406 30.242188 -35.644531 29.390625 -33.8125 C 28.546875 -31.988281 27.078125 -30.71875 24.984375 -30 C 26.722656 -29.644531 27.984375 -28.773438 28.765625 -27.390625 C 29.546875 -26.003906 29.9375 -24.128906 29.9375 -21.765625 L 29.796875 0 L 18.546875 0 L 18.546875 -22.5 C 18.546875 -24.101562 18.234375 -25.128906 17.609375 -25.578125 C 16.984375 -26.023438 15.847656 -26.25 14.203125 -26.25 L 14.203125 0 L 2.546875 0 Z M 17.015625 -36.234375 C 18.617188 -36.234375 19.421875 -37.972656 19.421875 -41.453125 C 19.421875 -42.972656 19.351562 -44.109375 19.21875 -44.859375 C 19.082031 -45.617188 18.835938 -46.144531 18.484375 -46.4375 C 18.128906 -46.726562 17.613281 -46.875 16.9375 -46.875 L 14.265625 -46.875 L 14.265625 -36.234375 Z M 17.015625 -36.234375 "/></g></g></g><g fill="#ffffff" fill-opacity="1"><g transform="translate(696.88218, 89.694266)"><g><path d="M 1 0 L 6.5625 -57.53125 L 26.046875 -57.53125 L 31.546875 0 L 20.625 0 L 19.828125 -9.3125 L 12.859375 -9.3125 L 12.1875 0 Z M 13.734375 -18.484375 L 18.953125 -18.484375 L 16.40625 -47.75 L 15.875 -47.75 Z M 13.734375 -18.484375 "/></g></g></g><g fill="#ffffff" fill-opacity="1"><g transform="translate(729.359523, 89.694266)"><g/></g></g><g fill="#ffffff" fill-opacity="1"><g transform="translate(745.02901, 89.694266)"><g><path d="M 2.546875 -57.53125 L 17.75 -57.53125 C 22.34375 -57.53125 25.617188 -56.046875 27.578125 -53.078125 C 29.546875 -50.109375 30.53125 -45.765625 30.53125 -40.046875 C 30.53125 -34.328125 29.660156 -30.015625 27.921875 -27.109375 C 26.179688 -24.210938 23.054688 -22.765625 18.546875 -22.765625 L 13.859375 -22.765625 L 13.859375 0 L 2.546875 0 Z M 14.53125 -33.15625 C 15.914062 -33.15625 16.929688 -33.410156 17.578125 -33.921875 C 18.222656 -34.429688 18.644531 -35.164062 18.84375 -36.125 C 19.050781 -37.082031 19.15625 -38.457031 19.15625 -40.25 C 19.15625 -42.65625 18.882812 -44.394531 18.34375 -45.46875 C 17.8125 -46.539062 16.742188 -47.078125 15.140625 -47.078125 L 13.859375 -47.078125 L 13.859375 -33.15625 Z M 14.53125 -33.15625 "/></g></g></g><g fill="#ffffff" fill-opacity="1"><g transform="translate(776.635815, 89.694266)"><g><path d="M 2.546875 0 L 2.546875 -57.53125 L 25.578125 -57.53125 L 25.578125 -46.40625 L 14.265625 -46.40625 L 14.265625 -35.21875 L 25.109375 -35.21875 L 25.109375 -24.375 L 14.265625 -24.375 L 14.265625 -11.1875 L 26.3125 -11.1875 L 26.3125 0 Z M 2.546875 0 "/></g></g></g><g fill="#ffffff" fill-opacity="1"><g transform="translate(804.224813, 89.694266)"><g><path d="M 2.546875 -57.53125 L 20.21875 -57.53125 C 23.03125 -57.53125 25.207031 -56.890625 26.75 -55.609375 C 28.289062 -54.335938 29.328125 -52.550781 29.859375 -50.25 C 30.398438 -47.957031 30.671875 -45.023438 30.671875 -41.453125 C 30.671875 -38.191406 30.242188 -35.644531 29.390625 -33.8125 C 28.546875 -31.988281 27.078125 -30.71875 24.984375 -30 C 26.722656 -29.644531 27.984375 -28.773438 28.765625 -27.390625 C 29.546875 -26.003906 29.9375 -24.128906 29.9375 -21.765625 L 29.796875 0 L 18.546875 0 L 18.546875 -22.5 C 18.546875 -24.101562 18.234375 -25.128906 17.609375 -25.578125 C 16.984375 -26.023438 15.847656 -26.25 14.203125 -26.25 L 14.203125 0 L 2.546875 0 Z M 17.015625 -36.234375 C 18.617188 -36.234375 19.421875 -37.972656 19.421875 -41.453125 C 19.421875 -42.972656 19.351562 -44.109375 19.21875 -44.859375 C 19.082031 -45.617188 18.835938 -46.144531 18.484375 -46.4375 C 18.128906 -46.726562 17.613281 -46.875 16.9375 -46.875 L 14.265625 -46.875 L 14.265625 -36.234375 Z M 17.015625 -36.234375 "/></g></g></g><g fill="#ffffff" fill-opacity="1"><g transform="translate(836.166451, 89.694266)"><g><path d="M 2.546875 -57.53125 L 18.421875 -57.53125 C 22.523438 -57.53125 25.601562 -56.390625 27.65625 -54.109375 C 29.707031 -51.828125 30.757812 -48.457031 30.8125 -44 L 30.9375 -17.078125 C 30.976562 -11.410156 29.992188 -7.144531 27.984375 -4.28125 C 25.984375 -1.425781 22.660156 0 18.015625 0 L 2.546875 0 Z M 16.140625 -10.171875 C 18.234375 -10.171875 19.28125 -11.203125 19.28125 -13.265625 L 19.28125 -42.921875 C 19.28125 -44.222656 19.179688 -45.195312 18.984375 -45.84375 C 18.785156 -46.488281 18.414062 -46.921875 17.875 -47.140625 C 17.34375 -47.367188 16.519531 -47.484375 15.40625 -47.484375 L 14.125 -47.484375 L 14.125 -10.171875 Z M 16.140625 -10.171875 "/></g></g></g><g fill="#ffffff" fill-opacity="1"><g transform="translate(869.179498, 89.694266)"><g><path d="M 2.546875 0 L 2.546875 -57.53125 L 25.578125 -57.53125 L 25.578125 -46.40625 L 14.265625 -46.40625 L 14.265625 -35.21875 L 25.109375 -35.21875 L 25.109375 -24.375 L 14.265625 -24.375 L 14.265625 -11.1875 L 26.3125 -11.1875 L 26.3125 0 Z M 2.546875 0 "/></g></g></g><g fill="#ffffff" fill-opacity="1"><g transform="translate(896.768496, 89.694266)"><g><path d="M 2.546875 -57.53125 L 20.21875 -57.53125 C 23.03125 -57.53125 25.207031 -56.890625 26.75 -55.609375 C 28.289062 -54.335938 29.328125 -52.550781 29.859375 -50.25 C 30.398438 -47.957031 30.671875 -45.023438 30.671875 -41.453125 C 30.671875 -38.191406 30.242188 -35.644531 29.390625 -33.8125 C 28.546875 -31.988281 27.078125 -30.71875 24.984375 -30 C 26.722656 -29.644531 27.984375 -28.773438 28.765625 -27.390625 C 29.546875 -26.003906 29.9375 -24.128906 29.9375 -21.765625 L 29.796875 0 L 18.546875 0 L 18.546875 -22.5 C 18.546875 -24.101562 18.234375 -25.128906 17.609375 -25.578125 C 16.984375 -26.023438 15.847656 -26.25 14.203125 -26.25 L 14.203125 0 L 2.546875 0 Z M 17.015625 -36.234375 C 18.617188 -36.234375 19.421875 -37.972656 19.421875 -41.453125 C 19.421875 -42.972656 19.351562 -44.109375 19.21875 -44.859375 C 19.082031 -45.617188 18.835938 -46.144531 18.484375 -46.4375 C 18.128906 -46.726562 17.613281 -46.875 16.9375 -46.875 L 14.265625 -46.875 L 14.265625 -36.234375 Z M 17.015625 -36.234375 "/></g></g></g><g fill="#ffffff" fill-opacity="1"><g transform="translate(316.532985, 183.169875)"><g><path d="M 2.546875 0 L 2.546875 -57.53125 L 20.09375 -57.53125 L 24.90625 -22.4375 L 29.734375 -57.53125 L 47.40625 -57.53125 L 47.40625 0 L 36.90625 0 L 36.90625 -41.453125 L 30.265625 0 L 19.953125 0 L 12.921875 -41.453125 L 12.921875 0 Z M 2.546875 0 "/></g></g></g><g fill="#ffffff" fill-opacity="1"><g transform="translate(366.487847, 183.169875)"><g><path d="M 15.875 0.53125 C 11.132812 0.53125 7.613281 -0.804688 5.3125 -3.484375 C 3.019531 -6.160156 1.875 -10.132812 1.875 -15.40625 L 1.875 -57.53125 L 13.0625 -57.53125 L 13.0625 -15.875 C 13.0625 -14.039062 13.238281 -12.609375 13.59375 -11.578125 C 13.945312 -10.554688 14.707031 -10.046875 15.875 -10.046875 C 17.03125 -10.046875 17.785156 -10.546875 18.140625 -11.546875 C 18.503906 -12.554688 18.6875 -14 18.6875 -15.875 L 18.6875 -57.53125 L 29.875 -57.53125 L 29.875 -15.40625 C 29.875 -10.132812 28.722656 -6.160156 26.421875 -3.484375 C 24.117188 -0.804688 20.601562 0.53125 15.875 0.53125 Z M 15.875 0.53125 "/></g></g></g><g fill="#ffffff" fill-opacity="1"><g transform="translate(398.228602, 183.169875)"><g><path d="M 15.9375 0.53125 C 11.738281 0.53125 8.378906 -0.78125 5.859375 -3.40625 C 3.335938 -6.039062 2.078125 -9.660156 2.078125 -14.265625 L 2.078125 -40.78125 C 2.078125 -46.5 3.210938 -50.804688 5.484375 -53.703125 C 7.765625 -56.609375 11.335938 -58.0625 16.203125 -58.0625 C 20.441406 -58.0625 23.859375 -56.898438 26.453125 -54.578125 C 29.046875 -52.253906 30.34375 -48.90625 30.34375 -44.53125 L 30.34375 -34.625 L 18.890625 -34.625 L 18.890625 -43.125 C 18.890625 -44.78125 18.6875 -45.921875 18.28125 -46.546875 C 17.882812 -47.171875 17.191406 -47.484375 16.203125 -47.484375 C 15.179688 -47.484375 14.476562 -47.125 14.09375 -46.40625 C 13.71875 -45.695312 13.53125 -44.648438 13.53125 -43.265625 L 13.53125 -14.390625 C 13.53125 -12.878906 13.75 -11.773438 14.1875 -11.078125 C 14.632812 -10.390625 15.304688 -10.046875 16.203125 -10.046875 C 17.992188 -10.046875 18.890625 -11.492188 18.890625 -14.390625 L 18.890625 -24.78125 L 30.46875 -24.78125 L 30.46875 -13.921875 C 30.46875 -4.285156 25.625 0.53125 15.9375 0.53125 Z M 15.9375 0.53125 "/></g></g></g><g fill="#ffffff" fill-opacity="1"><g transform="translate(429.969356, 183.169875)"><g><path d="M 2.546875 0 L 2.546875 -57.53125 L 14 -57.53125 L 14 -36.96875 L 19.421875 -36.96875 L 19.421875 -57.53125 L 30.875 -57.53125 L 30.875 0 L 19.421875 0 L 19.421875 -26.125 L 14 -26.125 L 14 0 Z M 2.546875 0 "/></g></g></g><g fill="#ffffff" fill-opacity="1"><g transform="translate(463.384205, 183.169875)"><g><path d="M 16.265625 0.53125 C 11.628906 0.53125 8.101562 -0.882812 5.6875 -3.71875 C 3.28125 -6.550781 2.078125 -10.535156 2.078125 -15.671875 L 2.078125 -43.0625 C 2.078125 -48.019531 3.28125 -51.757812 5.6875 -54.28125 C 8.101562 -56.800781 11.628906 -58.0625 16.265625 -58.0625 C 20.910156 -58.0625 24.4375 -56.800781 26.84375 -54.28125 C 29.257812 -51.757812 30.46875 -48.019531 30.46875 -43.0625 L 30.46875 -15.671875 C 30.46875 -10.492188 29.257812 -6.5 26.84375 -3.6875 C 24.4375 -0.875 20.910156 0.53125 16.265625 0.53125 Z M 16.265625 -10.046875 C 17.296875 -10.046875 17.988281 -10.488281 18.34375 -11.375 C 18.707031 -12.269531 18.890625 -13.523438 18.890625 -15.140625 L 18.890625 -43.265625 C 18.890625 -44.515625 18.71875 -45.53125 18.375 -46.3125 C 18.039062 -47.09375 17.363281 -47.484375 16.34375 -47.484375 C 14.414062 -47.484375 13.453125 -46.03125 13.453125 -43.125 L 13.453125 -15.0625 C 13.453125 -13.414062 13.65625 -12.164062 14.0625 -11.3125 C 14.46875 -10.46875 15.203125 -10.046875 16.265625 -10.046875 Z M 16.265625 -10.046875 "/></g></g></g><g fill="#ffffff" fill-opacity="1"><g transform="translate(495.928528, 183.169875)"><g/></g></g><g fill="#ffffff" fill-opacity="1"><g transform="translate(511.598004, 183.169875)"><g><path d="M 2.546875 -57.53125 L 17.75 -57.53125 C 22.34375 -57.53125 25.617188 -56.046875 27.578125 -53.078125 C 29.546875 -50.109375 30.53125 -45.765625 30.53125 -40.046875 C 30.53125 -34.328125 29.660156 -30.015625 27.921875 -27.109375 C 26.179688 -24.210938 23.054688 -22.765625 18.546875 -22.765625 L 13.859375 -22.765625 L 13.859375 0 L 2.546875 0 Z M 14.53125 -33.15625 C 15.914062 -33.15625 16.929688 -33.410156 17.578125 -33.921875 C 18.222656 -34.429688 18.644531 -35.164062 18.84375 -36.125 C 19.050781 -37.082031 19.15625 -38.457031 19.15625 -40.25 C 19.15625 -42.65625 18.882812 -44.394531 18.34375 -45.46875 C 17.8125 -46.539062 16.742188 -47.078125 15.140625 -47.078125 L 13.859375 -47.078125 L 13.859375 -33.15625 Z M 14.53125 -33.15625 "/></g></g></g><g fill="#ffffff" fill-opacity="1"><g transform="translate(543.204833, 183.169875)"><g><path d="M 2.546875 0 L 2.546875 -57.53125 L 25.578125 -57.53125 L 25.578125 -46.40625 L 14.265625 -46.40625 L 14.265625 -35.21875 L 25.109375 -35.21875 L 25.109375 -24.375 L 14.265625 -24.375 L 14.265625 -11.1875 L 26.3125 -11.1875 L 26.3125 0 Z M 2.546875 0 "/></g></g></g><g fill="#ffffff" fill-opacity="1"><g transform="translate(570.793853, 183.169875)"><g><path d="M 16.203125 0.53125 C 10.984375 0.53125 7.210938 -0.757812 4.890625 -3.34375 C 2.566406 -5.9375 1.40625 -10.113281 1.40625 -15.875 L 1.40625 -21.5 L 12.71875 -21.5 L 12.71875 -14.328125 C 12.71875 -11.472656 13.632812 -10.046875 15.46875 -10.046875 C 16.5 -10.046875 17.210938 -10.347656 17.609375 -10.953125 C 18.015625 -11.554688 18.21875 -12.570312 18.21875 -14 C 18.21875 -15.875 17.992188 -17.425781 17.546875 -18.65625 C 17.097656 -19.882812 16.523438 -20.910156 15.828125 -21.734375 C 15.140625 -22.554688 13.90625 -23.835938 12.125 -25.578125 L 7.171875 -30.53125 C 3.328125 -34.28125 1.40625 -38.4375 1.40625 -43 C 1.40625 -47.90625 2.53125 -51.640625 4.78125 -54.203125 C 7.039062 -56.773438 10.335938 -58.0625 14.671875 -58.0625 C 19.847656 -58.0625 23.570312 -56.6875 25.84375 -53.9375 C 28.125 -51.195312 29.265625 -46.898438 29.265625 -41.046875 L 17.546875 -41.046875 L 17.484375 -45 C 17.484375 -45.757812 17.269531 -46.363281 16.84375 -46.8125 C 16.414062 -47.257812 15.820312 -47.484375 15.0625 -47.484375 C 14.175781 -47.484375 13.507812 -47.234375 13.0625 -46.734375 C 12.613281 -46.242188 12.390625 -45.578125 12.390625 -44.734375 C 12.390625 -42.859375 13.460938 -40.914062 15.609375 -38.90625 L 22.296875 -32.484375 C 23.859375 -30.960938 25.148438 -29.519531 26.171875 -28.15625 C 27.203125 -26.800781 28.03125 -25.195312 28.65625 -23.34375 C 29.28125 -21.488281 29.59375 -19.285156 29.59375 -16.734375 C 29.59375 -11.066406 28.554688 -6.769531 26.484375 -3.84375 C 24.410156 -0.925781 20.984375 0.53125 16.203125 0.53125 Z M 16.203125 0.53125 "/></g></g></g><g fill="#ffffff" fill-opacity="1"><g transform="translate(601.664081, 183.169875)"><g><path d="M 16.265625 0.53125 C 11.628906 0.53125 8.101562 -0.882812 5.6875 -3.71875 C 3.28125 -6.550781 2.078125 -10.535156 2.078125 -15.671875 L 2.078125 -43.0625 C 2.078125 -48.019531 3.28125 -51.757812 5.6875 -54.28125 C 8.101562 -56.800781 11.628906 -58.0625 16.265625 -58.0625 C 20.910156 -58.0625 24.4375 -56.800781 26.84375 -54.28125 C 29.257812 -51.757812 30.46875 -48.019531 30.46875 -43.0625 L 30.46875 -15.671875 C 30.46875 -10.492188 29.257812 -6.5 26.84375 -3.6875 C 24.4375 -0.875 20.910156 0.53125 16.265625 0.53125 Z M 16.265625 -10.046875 C 17.296875 -10.046875 17.988281 -10.488281 18.34375 -11.375 C 18.707031 -12.269531 18.890625 -13.523438 18.890625 -15.140625 L 18.890625 -43.265625 C 18.890625 -44.515625 18.71875 -45.53125 18.375 -46.3125 C 18.039062 -47.09375 17.363281 -47.484375 16.34375 -47.484375 C 14.414062 -47.484375 13.453125 -46.03125 13.453125 -43.125 L 13.453125 -15.0625 C 13.453125 -13.414062 13.65625 -12.164062 14.0625 -11.3125 C 14.46875 -10.46875 15.203125 -10.046875 16.265625 -10.046875 Z M 16.265625 -10.046875 "/></g></g></g><g fill="#ffffff" fill-opacity="1"><g transform="translate(634.208404, 183.169875)"><g/></g></g><g fill="#ffffff" fill-opacity="1"><g transform="translate(649.877892, 183.169875)"><g><path d="M 2.546875 0 L 2.546875 -57.53125 L 25.578125 -57.53125 L 25.578125 -46.40625 L 14.265625 -46.40625 L 14.265625 -35.21875 L 25.109375 -35.21875 L 25.109375 -24.375 L 14.265625 -24.375 L 14.265625 -11.1875 L 26.3125 -11.1875 L 26.3125 0 Z M 2.546875 0 "/></g></g></g><g fill="#ffffff" fill-opacity="1"><g transform="translate(677.466912, 183.169875)"><g><path d="M 2.546875 0 L 2.546875 -57.53125 L 14.390625 -57.53125 L 19.6875 -30 L 19.6875 -57.53125 L 30.8125 -57.53125 L 30.8125 0 L 19.5625 0 L 13.796875 -28.796875 L 13.796875 0 Z M 2.546875 0 "/></g></g></g><g fill="#000000" fill-opacity="1"><g transform="translate(710.813108, 183.169875)"><g/></g></g><g fill="#fffc00" fill-opacity="1"><g transform="translate(726.481953, 183.169875)"><g><path d="M 7.90625 -44.328125 C 7.144531 -43.390625 6.082031 -42.628906 4.71875 -42.046875 C 3.351562 -41.472656 2.046875 -41.1875 0.796875 -41.1875 L 0.796875 -50.359375 C 2.765625 -50.671875 4.71875 -51.453125 6.65625 -52.703125 C 8.601562 -53.953125 10 -55.582031 10.84375 -57.59375 L 20.09375 -57.59375 L 20.09375 0 L 7.90625 0 Z M 7.90625 -44.328125 "/></g></g></g><g fill="#fffc00" fill-opacity="1"><g transform="translate(748.646912, 183.169875)"><g><path d="M 4.75 0 C 5.15625 -6.15625 6.148438 -11.910156 7.734375 -17.265625 C 9.316406 -22.628906 11.515625 -28.835938 14.328125 -35.890625 C 15.222656 -38.128906 15.867188 -39.804688 16.265625 -40.921875 L 18.546875 -46.9375 L 2.28125 -46.9375 L 2.28125 -57.59375 L 31.34375 -57.59375 L 31.34375 -49.015625 C 31.113281 -46.921875 30.65625 -44.925781 29.96875 -43.03125 C 29.28125 -41.132812 28.3125 -38.820312 27.0625 -36.09375 C 26.070312 -34.039062 25.3125 -32.320312 24.78125 -30.9375 C 22.863281 -25.976562 21.300781 -20.988281 20.09375 -15.96875 C 18.882812 -10.945312 18.101562 -5.625 17.75 0 Z M 4.75 0 "/></g></g></g><g fill="#fffc00" fill-opacity="1"><g transform="translate(781.72694, 183.169875)"><g/></g></g><g fill="#fffc00" fill-opacity="1"><g transform="translate(797.396427, 183.169875)"><g><path d="M 2.546875 -57.53125 L 18.421875 -57.53125 C 22.523438 -57.53125 25.601562 -56.390625 27.65625 -54.109375 C 29.707031 -51.828125 30.757812 -48.457031 30.8125 -44 L 30.9375 -17.078125 C 30.976562 -11.410156 29.992188 -7.144531 27.984375 -4.28125 C 25.984375 -1.425781 22.660156 0 18.015625 0 L 2.546875 0 Z M 16.140625 -10.171875 C 18.234375 -10.171875 19.28125 -11.203125 19.28125 -13.265625 L 19.28125 -42.921875 C 19.28125 -44.222656 19.179688 -45.195312 18.984375 -45.84375 C 18.785156 -46.488281 18.414062 -46.921875 17.875 -47.140625 C 17.34375 -47.367188 16.519531 -47.484375 15.40625 -47.484375 L 14.125 -47.484375 L 14.125 -10.171875 Z M 16.140625 -10.171875 "/></g></g></g><g fill="#fffc00" fill-opacity="1"><g transform="translate(830.409498, 183.169875)"><g><path d="M 2.015625 0 L 2.015625 -57.53125 L 13.125 -57.53125 L 13.125 0 Z M -0.046875 -59.765625 L -0.046875 -67.0625 L 15.484375 -74.234375 L 15.484375 -62.84375 Z M -0.046875 -59.765625 "/></g></g></g><g fill="#fffc00" fill-opacity="1"><g transform="translate(845.610238, 183.169875)"><g><path d="M 1 0 L 6.5625 -57.53125 L 26.046875 -57.53125 L 31.546875 0 L 20.625 0 L 19.828125 -9.3125 L 12.859375 -9.3125 L 12.1875 0 Z M 13.734375 -18.484375 L 18.953125 -18.484375 L 16.40625 -47.75 L 15.875 -47.75 Z M 13.734375 -18.484375 "/></g></g></g><g fill="#fffc00" fill-opacity="1"><g transform="translate(878.087592, 183.169875)"><g><path d="M 16.203125 0.53125 C 10.984375 0.53125 7.210938 -0.757812 4.890625 -3.34375 C 2.566406 -5.9375 1.40625 -10.113281 1.40625 -15.875 L 1.40625 -21.5 L 12.71875 -21.5 L 12.71875 -14.328125 C 12.71875 -11.472656 13.632812 -10.046875 15.46875 -10.046875 C 16.5 -10.046875 17.210938 -10.347656 17.609375 -10.953125 C 18.015625 -11.554688 18.21875 -12.570312 18.21875 -14 C 18.21875 -15.875 17.992188 -17.425781 17.546875 -18.65625 C 17.097656 -19.882812 16.523438 -20.910156 15.828125 -21.734375 C 15.140625 -22.554688 13.90625 -23.835938 12.125 -25.578125 L 7.171875 -30.53125 C 3.328125 -34.28125 1.40625 -38.4375 1.40625 -43 C 1.40625 -47.90625 2.53125 -51.640625 4.78125 -54.203125 C 7.039062 -56.773438 10.335938 -58.0625 14.671875 -58.0625 C 19.847656 -58.0625 23.570312 -56.6875 25.84375 -53.9375 C 28.125 -51.195312 29.265625 -46.898438 29.265625 -41.046875 L 17.546875 -41.046875 L 17.484375 -45 C 17.484375 -45.757812 17.269531 -46.363281 16.84375 -46.8125 C 16.414062 -47.257812 15.820312 -47.484375 15.0625 -47.484375 C 14.175781 -47.484375 13.507812 -47.234375 13.0625 -46.734375 C 12.613281 -46.242188 12.390625 -45.578125 12.390625 -44.734375 C 12.390625 -42.859375 13.460938 -40.914062 15.609375 -38.90625 L 22.296875 -32.484375 C 23.859375 -30.960938 25.148438 -29.519531 26.171875 -28.15625 C 27.203125 -26.800781 28.03125 -25.195312 28.65625 -23.34375 C 29.28125 -21.488281 29.59375 -19.285156 29.59375 -16.734375 C 29.59375 -11.066406 28.554688 -6.769531 26.484375 -3.84375 C 24.410156 -0.925781 20.984375 0.53125 16.203125 0.53125 Z M 16.203125 0.53125 "/></g></g></g><g fill="#fffc00" fill-opacity="1"><g transform="translate(469.042879, 215.010591)"><g><path d="M 12.4375 0 L 11.59375 -3.234375 L 5.984375 -3.234375 L 5.125 0 L 0 0 L 5.625 -17.3125 L 11.84375 -17.3125 L 17.546875 0 Z M 10.625 -7.046875 L 9.890625 -9.890625 C 9.710938 -10.515625 9.5 -11.328125 9.25 -12.328125 C 9 -13.328125 8.835938 -14.039062 8.765625 -14.46875 C 8.691406 -14.070312 8.550781 -13.410156 8.34375 -12.484375 C 8.132812 -11.566406 7.671875 -9.753906 6.953125 -7.046875 Z M 10.625 -7.046875 "/></g></g></g><g fill="#fffc00" fill-opacity="1"><g transform="translate(486.578856, 215.010591)"><g><path d="M 9.609375 0.234375 C 8.929688 0.234375 8.328125 0.125 7.796875 -0.09375 C 7.265625 -0.320312 6.734375 -0.726562 6.203125 -1.3125 L 5.984375 -1.3125 C 6.128906 -0.375 6.203125 0.207031 6.203125 0.4375 L 6.203125 5.796875 L 1.59375 5.796875 L 1.59375 -13.359375 L 5.34375 -13.359375 L 5.984375 -11.671875 L 6.203125 -11.671875 C 7.054688 -12.953125 8.238281 -13.59375 9.75 -13.59375 C 11.226562 -13.59375 12.390625 -12.976562 13.234375 -11.75 C 14.078125 -10.53125 14.5 -8.851562 14.5 -6.71875 C 14.5 -4.5625 14.054688 -2.863281 13.171875 -1.625 C 12.296875 -0.382812 11.109375 0.234375 9.609375 0.234375 Z M 8.0625 -9.984375 C 7.382812 -9.984375 6.910156 -9.738281 6.640625 -9.25 C 6.367188 -8.769531 6.222656 -8.050781 6.203125 -7.09375 L 6.203125 -6.734375 C 6.203125 -5.585938 6.351562 -4.757812 6.65625 -4.25 C 6.96875 -3.738281 7.453125 -3.484375 8.109375 -3.484375 C 8.703125 -3.484375 9.128906 -3.734375 9.390625 -4.234375 C 9.660156 -4.742188 9.796875 -5.585938 9.796875 -6.765625 C 9.796875 -7.910156 9.660156 -8.734375 9.390625 -9.234375 C 9.128906 -9.734375 8.6875 -9.984375 8.0625 -9.984375 Z M 8.0625 -9.984375 "/></g></g></g><g fill="#fffc00" fill-opacity="1"><g transform="translate(502.110047, 215.010591)"><g><path d="M 9.65625 -13.59375 C 10.0625 -13.59375 10.441406 -13.5625 10.796875 -13.5 L 11.0625 -13.453125 L 10.65625 -9.109375 C 10.269531 -9.203125 9.742188 -9.25 9.078125 -9.25 C 8.078125 -9.25 7.347656 -9.019531 6.890625 -8.5625 C 6.429688 -8.101562 6.203125 -7.4375 6.203125 -6.5625 L 6.203125 0 L 1.59375 0 L 1.59375 -13.359375 L 5.03125 -13.359375 L 5.75 -11.234375 L 5.96875 -11.234375 C 6.351562 -11.941406 6.890625 -12.507812 7.578125 -12.9375 C 8.265625 -13.375 8.957031 -13.59375 9.65625 -13.59375 Z M 9.65625 -13.59375 "/></g></g></g><g fill="#fffc00" fill-opacity="1"><g transform="translate(513.442984, 215.010591)"><g><path d="M 14.359375 -6.71875 C 14.359375 -4.53125 13.769531 -2.820312 12.59375 -1.59375 C 11.414062 -0.375 9.769531 0.234375 7.65625 0.234375 C 5.625 0.234375 4.007812 -0.390625 2.8125 -1.640625 C 1.613281 -2.890625 1.015625 -4.582031 1.015625 -6.71875 C 1.015625 -8.894531 1.601562 -10.582031 2.78125 -11.78125 C 3.957031 -12.988281 5.601562 -13.59375 7.71875 -13.59375 C 9.039062 -13.59375 10.203125 -13.3125 11.203125 -12.75 C 12.210938 -12.195312 12.988281 -11.398438 13.53125 -10.359375 C 14.082031 -9.316406 14.359375 -8.101562 14.359375 -6.71875 Z M 5.703125 -6.71875 C 5.703125 -5.5625 5.851562 -4.679688 6.15625 -4.078125 C 6.457031 -3.484375 6.972656 -3.1875 7.703125 -3.1875 C 8.421875 -3.1875 8.925781 -3.484375 9.21875 -4.078125 C 9.507812 -4.679688 9.65625 -5.5625 9.65625 -6.71875 C 9.65625 -7.851562 9.503906 -8.710938 9.203125 -9.296875 C 8.910156 -9.878906 8.398438 -10.171875 7.671875 -10.171875 C 6.960938 -10.171875 6.457031 -9.878906 6.15625 -9.296875 C 5.851562 -8.722656 5.703125 -7.863281 5.703125 -6.71875 Z M 5.703125 -6.71875 "/></g></g></g><g fill="#fffc00" fill-opacity="1"><g transform="translate(528.83266, 215.010591)"><g><path d="M 9.75 -13.59375 C 11.207031 -13.59375 12.363281 -12.984375 13.21875 -11.765625 C 14.070312 -10.546875 14.5 -8.863281 14.5 -6.71875 C 14.5 -4.539062 14.066406 -2.835938 13.203125 -1.609375 C 12.335938 -0.378906 11.140625 0.234375 9.609375 0.234375 C 9.117188 0.234375 8.679688 0.179688 8.296875 0.078125 C 7.910156 -0.0234375 7.566406 -0.171875 7.265625 -0.359375 C 6.960938 -0.554688 6.609375 -0.875 6.203125 -1.3125 L 5.921875 -1.3125 L 5.1875 0 L 1.59375 0 L 1.59375 -18.359375 L 6.203125 -18.359375 L 6.203125 -14.203125 C 6.203125 -13.703125 6.148438 -12.847656 6.046875 -11.640625 L 6.203125 -11.640625 C 6.648438 -12.328125 7.164062 -12.820312 7.75 -13.125 C 8.34375 -13.4375 9.007812 -13.59375 9.75 -13.59375 Z M 8.0625 -9.984375 C 7.414062 -9.984375 6.941406 -9.757812 6.640625 -9.3125 C 6.347656 -8.863281 6.203125 -8.15625 6.203125 -7.1875 L 6.203125 -6.546875 C 6.203125 -5.453125 6.347656 -4.664062 6.640625 -4.1875 C 6.941406 -3.71875 7.429688 -3.484375 8.109375 -3.484375 C 8.648438 -3.484375 9.066406 -3.757812 9.359375 -4.3125 C 9.648438 -4.863281 9.796875 -5.679688 9.796875 -6.765625 C 9.796875 -8.910156 9.21875 -9.984375 8.0625 -9.984375 Z M 8.0625 -9.984375 "/></g></g></g><g fill="#fffc00" fill-opacity="1"><g transform="translate(544.363852, 215.010591)"><g><path d="M 10.3125 0 L 9.421875 -1.765625 L 9.328125 -1.765625 C 8.703125 -0.992188 8.066406 -0.46875 7.421875 -0.1875 C 6.785156 0.09375 5.957031 0.234375 4.9375 0.234375 C 3.675781 0.234375 2.679688 -0.140625 1.953125 -0.890625 C 1.234375 -1.648438 0.875 -2.710938 0.875 -4.078125 C 0.875 -5.503906 1.367188 -6.5625 2.359375 -7.25 C 3.347656 -7.945312 4.785156 -8.34375 6.671875 -8.4375 L 8.890625 -8.5 L 8.890625 -8.6875 C 8.890625 -9.789062 8.347656 -10.34375 7.265625 -10.34375 C 6.285156 -10.34375 5.046875 -10.015625 3.546875 -9.359375 L 2.21875 -12.390625 C 3.769531 -13.191406 5.734375 -13.59375 8.109375 -13.59375 C 9.828125 -13.59375 11.15625 -13.164062 12.09375 -12.3125 C 13.03125 -11.46875 13.5 -10.285156 13.5 -8.765625 L 13.5 0 Z M 6.890625 -3.015625 C 7.441406 -3.015625 7.914062 -3.191406 8.3125 -3.546875 C 8.71875 -3.898438 8.921875 -4.363281 8.921875 -4.9375 L 8.921875 -5.96875 L 7.859375 -5.921875 C 6.335938 -5.867188 5.578125 -5.3125 5.578125 -4.25 C 5.578125 -3.425781 6.015625 -3.015625 6.890625 -3.015625 Z M 6.890625 -3.015625 "/></g></g></g><g fill="#fffc00" fill-opacity="1"><g transform="translate(559.411531, 215.010591)"><g><path d="M 5.75 0.234375 C 4.789062 0.234375 3.957031 -0.0351562 3.25 -0.578125 C 2.539062 -1.117188 1.988281 -1.914062 1.59375 -2.96875 C 1.207031 -4.019531 1.015625 -5.253906 1.015625 -6.671875 C 1.015625 -8.835938 1.453125 -10.53125 2.328125 -11.75 C 3.203125 -12.976562 4.398438 -13.59375 5.921875 -13.59375 C 6.671875 -13.59375 7.328125 -13.441406 7.890625 -13.140625 C 8.453125 -12.847656 8.960938 -12.347656 9.421875 -11.640625 L 9.515625 -11.640625 C 9.367188 -12.679688 9.296875 -13.726562 9.296875 -14.78125 L 9.296875 -18.359375 L 13.9375 -18.359375 L 13.9375 0 L 10.46875 0 L 9.46875 -1.6875 L 9.296875 -1.6875 C 8.503906 -0.40625 7.320312 0.234375 5.75 0.234375 Z M 7.625 -3.40625 C 8.363281 -3.40625 8.882812 -3.632812 9.1875 -4.09375 C 9.488281 -4.5625 9.65625 -5.28125 9.6875 -6.25 L 9.6875 -6.609375 C 9.6875 -7.796875 9.515625 -8.640625 9.171875 -9.140625 C 8.835938 -9.640625 8.304688 -9.890625 7.578125 -9.890625 C 6.972656 -9.890625 6.503906 -9.601562 6.171875 -9.03125 C 5.835938 -8.457031 5.671875 -7.644531 5.671875 -6.59375 C 5.671875 -5.550781 5.835938 -4.757812 6.171875 -4.21875 C 6.515625 -3.675781 7 -3.40625 7.625 -3.40625 Z M 7.625 -3.40625 "/></g></g></g><g fill="#fffc00" fill-opacity="1"><g transform="translate(574.942722, 215.010591)"><g><path d="M 14.359375 -6.71875 C 14.359375 -4.53125 13.769531 -2.820312 12.59375 -1.59375 C 11.414062 -0.375 9.769531 0.234375 7.65625 0.234375 C 5.625 0.234375 4.007812 -0.390625 2.8125 -1.640625 C 1.613281 -2.890625 1.015625 -4.582031 1.015625 -6.71875 C 1.015625 -8.894531 1.601562 -10.582031 2.78125 -11.78125 C 3.957031 -12.988281 5.601562 -13.59375 7.71875 -13.59375 C 9.039062 -13.59375 10.203125 -13.3125 11.203125 -12.75 C 12.210938 -12.195312 12.988281 -11.398438 13.53125 -10.359375 C 14.082031 -9.316406 14.359375 -8.101562 14.359375 -6.71875 Z M 5.703125 -6.71875 C 5.703125 -5.5625 5.851562 -4.679688 6.15625 -4.078125 C 6.457031 -3.484375 6.972656 -3.1875 7.703125 -3.1875 C 8.421875 -3.1875 8.925781 -3.484375 9.21875 -4.078125 C 9.507812 -4.679688 9.65625 -5.5625 9.65625 -6.71875 C 9.65625 -7.851562 9.503906 -8.710938 9.203125 -9.296875 C 8.910156 -9.878906 8.398438 -10.171875 7.671875 -10.171875 C 6.960938 -10.171875 6.457031 -9.878906 6.15625 -9.296875 C 5.851562 -8.722656 5.703125 -7.863281 5.703125 -6.71875 Z M 5.703125 -6.71875 "/></g></g></g><g fill="#fffc00" fill-opacity="1"><g transform="translate(590.332399, 215.010591)"><g/></g></g><g fill="#fffc00" fill-opacity="1"><g transform="translate(596.606197, 215.010591)"><g><path d="M 9.609375 0.234375 C 8.929688 0.234375 8.328125 0.125 7.796875 -0.09375 C 7.265625 -0.320312 6.734375 -0.726562 6.203125 -1.3125 L 5.984375 -1.3125 C 6.128906 -0.375 6.203125 0.207031 6.203125 0.4375 L 6.203125 5.796875 L 1.59375 5.796875 L 1.59375 -13.359375 L 5.34375 -13.359375 L 5.984375 -11.671875 L 6.203125 -11.671875 C 7.054688 -12.953125 8.238281 -13.59375 9.75 -13.59375 C 11.226562 -13.59375 12.390625 -12.976562 13.234375 -11.75 C 14.078125 -10.53125 14.5 -8.851562 14.5 -6.71875 C 14.5 -4.5625 14.054688 -2.863281 13.171875 -1.625 C 12.296875 -0.382812 11.109375 0.234375 9.609375 0.234375 Z M 8.0625 -9.984375 C 7.382812 -9.984375 6.910156 -9.738281 6.640625 -9.25 C 6.367188 -8.769531 6.222656 -8.050781 6.203125 -7.09375 L 6.203125 -6.734375 C 6.203125 -5.585938 6.351562 -4.757812 6.65625 -4.25 C 6.96875 -3.738281 7.453125 -3.484375 8.109375 -3.484375 C 8.703125 -3.484375 9.128906 -3.734375 9.390625 -4.234375 C 9.660156 -4.742188 9.796875 -5.585938 9.796875 -6.765625 C 9.796875 -7.910156 9.660156 -8.734375 9.390625 -9.234375 C 9.128906 -9.734375 8.6875 -9.984375 8.0625 -9.984375 Z M 8.0625 -9.984375 "/></g></g></g><g fill="#fffc00" fill-opacity="1"><g transform="translate(612.137388, 215.010591)"><g><path d="M 14.359375 -6.71875 C 14.359375 -4.53125 13.769531 -2.820312 12.59375 -1.59375 C 11.414062 -0.375 9.769531 0.234375 7.65625 0.234375 C 5.625 0.234375 4.007812 -0.390625 2.8125 -1.640625 C 1.613281 -2.890625 1.015625 -4.582031 1.015625 -6.71875 C 1.015625 -8.894531 1.601562 -10.582031 2.78125 -11.78125 C 3.957031 -12.988281 5.601562 -13.59375 7.71875 -13.59375 C 9.039062 -13.59375 10.203125 -13.3125 11.203125 -12.75 C 12.210938 -12.195312 12.988281 -11.398438 13.53125 -10.359375 C 14.082031 -9.316406 14.359375 -8.101562 14.359375 -6.71875 Z M 5.703125 -6.71875 C 5.703125 -5.5625 5.851562 -4.679688 6.15625 -4.078125 C 6.457031 -3.484375 6.972656 -3.1875 7.703125 -3.1875 C 8.421875 -3.1875 8.925781 -3.484375 9.21875 -4.078125 C 9.507812 -4.679688 9.65625 -5.5625 9.65625 -6.71875 C 9.65625 -7.851562 9.503906 -8.710938 9.203125 -9.296875 C 8.910156 -9.878906 8.398438 -10.171875 7.671875 -10.171875 C 6.960938 -10.171875 6.457031 -9.878906 6.15625 -9.296875 C 5.851562 -8.722656 5.703125 -7.863281 5.703125 -6.71875 Z M 5.703125 -6.71875 "/></g></g></g><g fill="#fffc00" fill-opacity="1"><g transform="translate(627.527065, 215.010591)"><g><path d="M 9.65625 -13.59375 C 10.0625 -13.59375 10.441406 -13.5625 10.796875 -13.5 L 11.0625 -13.453125 L 10.65625 -9.109375 C 10.269531 -9.203125 9.742188 -9.25 9.078125 -9.25 C 8.078125 -9.25 7.347656 -9.019531 6.890625 -8.5625 C 6.429688 -8.101562 6.203125 -7.4375 6.203125 -6.5625 L 6.203125 0 L 1.59375 0 L 1.59375 -13.359375 L 5.03125 -13.359375 L 5.75 -11.234375 L 5.96875 -11.234375 C 6.351562 -11.941406 6.890625 -12.507812 7.578125 -12.9375 C 8.265625 -13.375 8.957031 -13.59375 9.65625 -13.59375 Z M 9.65625 -13.59375 "/></g></g></g><g fill="#fffc00" fill-opacity="1"><g transform="translate(638.860001, 215.010591)"><g/></g></g><g fill="#fffc00" fill-opacity="1"><g transform="translate(645.133798, 215.010591)"><g><path d="M 8.046875 0.234375 C 5.816406 0.234375 4.085938 -0.351562 2.859375 -1.53125 C 1.628906 -2.71875 1.015625 -4.40625 1.015625 -6.59375 C 1.015625 -8.851562 1.582031 -10.582031 2.71875 -11.78125 C 3.863281 -12.988281 5.492188 -13.59375 7.609375 -13.59375 C 9.617188 -13.59375 11.171875 -13.066406 12.265625 -12.015625 C 13.367188 -10.972656 13.921875 -9.460938 13.921875 -7.484375 L 13.921875 -5.4375 L 5.671875 -5.4375 C 5.703125 -4.6875 5.972656 -4.097656 6.484375 -3.671875 C 7.003906 -3.253906 7.707031 -3.046875 8.59375 -3.046875 C 9.40625 -3.046875 10.148438 -3.117188 10.828125 -3.265625 C 11.515625 -3.421875 12.253906 -3.6875 13.046875 -4.0625 L 13.046875 -0.75 C 12.316406 -0.375 11.566406 -0.117188 10.796875 0.015625 C 10.023438 0.160156 9.109375 0.234375 8.046875 0.234375 Z M 7.765625 -10.46875 C 7.222656 -10.46875 6.769531 -10.296875 6.40625 -9.953125 C 6.039062 -9.609375 5.828125 -9.070312 5.765625 -8.34375 L 9.734375 -8.34375 C 9.710938 -8.988281 9.523438 -9.503906 9.171875 -9.890625 C 8.828125 -10.273438 8.359375 -10.46875 7.765625 -10.46875 Z M 7.765625 -10.46875 "/></g></g></g><g fill="#fffc00" fill-opacity="1"><g transform="translate(660.063549, 215.010591)"><g><path d="M 4.421875 -6.8125 L 0.34375 -13.359375 L 5.578125 -13.359375 L 7.609375 -9.609375 L 9.6875 -13.359375 L 14.9375 -13.359375 L 10.75 -6.8125 L 15.09375 0 L 9.859375 0 L 7.609375 -4.0625 L 5.359375 0 L 0.125 0 Z M 4.421875 -6.8125 "/></g></g></g><g fill="#fffc00" fill-opacity="1"><g transform="translate(675.276316, 215.010591)"><g><path d="M 9.609375 0.234375 C 8.929688 0.234375 8.328125 0.125 7.796875 -0.09375 C 7.265625 -0.320312 6.734375 -0.726562 6.203125 -1.3125 L 5.984375 -1.3125 C 6.128906 -0.375 6.203125 0.207031 6.203125 0.4375 L 6.203125 5.796875 L 1.59375 5.796875 L 1.59375 -13.359375 L 5.34375 -13.359375 L 5.984375 -11.671875 L 6.203125 -11.671875 C 7.054688 -12.953125 8.238281 -13.59375 9.75 -13.59375 C 11.226562 -13.59375 12.390625 -12.976562 13.234375 -11.75 C 14.078125 -10.53125 14.5 -8.851562 14.5 -6.71875 C 14.5 -4.5625 14.054688 -2.863281 13.171875 -1.625 C 12.296875 -0.382812 11.109375 0.234375 9.609375 0.234375 Z M 8.0625 -9.984375 C 7.382812 -9.984375 6.910156 -9.738281 6.640625 -9.25 C 6.367188 -8.769531 6.222656 -8.050781 6.203125 -7.09375 L 6.203125 -6.734375 C 6.203125 -5.585938 6.351562 -4.757812 6.65625 -4.25 C 6.96875 -3.738281 7.453125 -3.484375 8.109375 -3.484375 C 8.703125 -3.484375 9.128906 -3.734375 9.390625 -4.234375 C 9.660156 -4.742188 9.796875 -5.585938 9.796875 -6.765625 C 9.796875 -7.910156 9.660156 -8.734375 9.390625 -9.234375 C 9.128906 -9.734375 8.6875 -9.984375 8.0625 -9.984375 Z M 8.0625 -9.984375 "/></g></g></g><g fill="#fffc00" fill-opacity="1"><g transform="translate(690.807507, 215.010591)"><g><path d="M 8.046875 0.234375 C 5.816406 0.234375 4.085938 -0.351562 2.859375 -1.53125 C 1.628906 -2.71875 1.015625 -4.40625 1.015625 -6.59375 C 1.015625 -8.851562 1.582031 -10.582031 2.71875 -11.78125 C 3.863281 -12.988281 5.492188 -13.59375 7.609375 -13.59375 C 9.617188 -13.59375 11.171875 -13.066406 12.265625 -12.015625 C 13.367188 -10.972656 13.921875 -9.460938 13.921875 -7.484375 L 13.921875 -5.4375 L 5.671875 -5.4375 C 5.703125 -4.6875 5.972656 -4.097656 6.484375 -3.671875 C 7.003906 -3.253906 7.707031 -3.046875 8.59375 -3.046875 C 9.40625 -3.046875 10.148438 -3.117188 10.828125 -3.265625 C 11.515625 -3.421875 12.253906 -3.6875 13.046875 -4.0625 L 13.046875 -0.75 C 12.316406 -0.375 11.566406 -0.117188 10.796875 0.015625 C 10.023438 0.160156 9.109375 0.234375 8.046875 0.234375 Z M 7.765625 -10.46875 C 7.222656 -10.46875 6.769531 -10.296875 6.40625 -9.953125 C 6.039062 -9.609375 5.828125 -9.070312 5.765625 -8.34375 L 9.734375 -8.34375 C 9.710938 -8.988281 9.523438 -9.503906 9.171875 -9.890625 C 8.828125 -10.273438 8.359375 -10.46875 7.765625 -10.46875 Z M 7.765625 -10.46875 "/></g></g></g><g fill="#fffc00" fill-opacity="1"><g transform="translate(705.737269, 215.010591)"><g><path d="M 9.65625 -13.59375 C 10.0625 -13.59375 10.441406 -13.5625 10.796875 -13.5 L 11.0625 -13.453125 L 10.65625 -9.109375 C 10.269531 -9.203125 9.742188 -9.25 9.078125 -9.25 C 8.078125 -9.25 7.347656 -9.019531 6.890625 -8.5625 C 6.429688 -8.101562 6.203125 -7.4375 6.203125 -6.5625 L 6.203125 0 L 1.59375 0 L 1.59375 -13.359375 L 5.03125 -13.359375 L 5.75 -11.234375 L 5.96875 -11.234375 C 6.351562 -11.941406 6.890625 -12.507812 7.578125 -12.9375 C 8.265625 -13.375 8.957031 -13.59375 9.65625 -13.59375 Z M 9.65625 -13.59375 "/></g></g></g><g fill="#fffc00" fill-opacity="1"><g transform="translate(717.070206, 215.010591)"><g><path d="M 8.140625 -3.40625 C 8.765625 -3.40625 9.507812 -3.5625 10.375 -3.875 L 10.375 -0.5 C 9.75 -0.238281 9.15625 -0.0507812 8.59375 0.0625 C 8.03125 0.175781 7.367188 0.234375 6.609375 0.234375 C 5.066406 0.234375 3.953125 -0.144531 3.265625 -0.90625 C 2.578125 -1.664062 2.234375 -2.832031 2.234375 -4.40625 L 2.234375 -9.90625 L 0.625 -9.90625 L 0.625 -11.78125 L 2.671875 -13.234375 L 3.875 -16.046875 L 6.890625 -16.046875 L 6.890625 -13.359375 L 10.171875 -13.359375 L 10.171875 -9.90625 L 6.890625 -9.90625 L 6.890625 -4.703125 C 6.890625 -3.835938 7.304688 -3.40625 8.140625 -3.40625 Z M 8.140625 -3.40625 "/></g></g></g><g fill="#fffc00" fill-opacity="1"><g transform="translate(728.179083, 215.010591)"><g><path d="M 14.359375 -6.71875 C 14.359375 -4.53125 13.769531 -2.820312 12.59375 -1.59375 C 11.414062 -0.375 9.769531 0.234375 7.65625 0.234375 C 5.625 0.234375 4.007812 -0.390625 2.8125 -1.640625 C 1.613281 -2.890625 1.015625 -4.582031 1.015625 -6.71875 C 1.015625 -8.894531 1.601562 -10.582031 2.78125 -11.78125 C 3.957031 -12.988281 5.601562 -13.59375 7.71875 -13.59375 C 9.039062 -13.59375 10.203125 -13.3125 11.203125 -12.75 C 12.210938 -12.195312 12.988281 -11.398438 13.53125 -10.359375 C 14.082031 -9.316406 14.359375 -8.101562 14.359375 -6.71875 Z M 5.703125 -6.71875 C 5.703125 -5.5625 5.851562 -4.679688 6.15625 -4.078125 C 6.457031 -3.484375 6.972656 -3.1875 7.703125 -3.1875 C 8.421875 -3.1875 8.925781 -3.484375 9.21875 -4.078125 C 9.507812 -4.679688 9.65625 -5.5625 9.65625 -6.71875 C 9.65625 -7.851562 9.503906 -8.710938 9.203125 -9.296875 C 8.910156 -9.878906 8.398438 -10.171875 7.671875 -10.171875 C 6.960938 -10.171875 6.457031 -9.878906 6.15625 -9.296875 C 5.851562 -8.722656 5.703125 -7.863281 5.703125 -6.71875 Z M 5.703125 -6.71875 "/></g></g></g><g fill="#fffc00" fill-opacity="1"><g transform="translate(743.56876, 215.010591)"><g><path d="M 11.90625 -4.109375 C 11.90625 -2.671875 11.414062 -1.585938 10.4375 -0.859375 C 9.46875 -0.128906 8.070312 0.234375 6.25 0.234375 C 5.257812 0.234375 4.398438 0.179688 3.671875 0.078125 C 2.941406 -0.0234375 2.191406 -0.21875 1.421875 -0.5 L 1.421875 -4.203125 C 2.140625 -3.890625 2.925781 -3.628906 3.78125 -3.421875 C 4.632812 -3.210938 5.394531 -3.109375 6.0625 -3.109375 C 7.0625 -3.109375 7.5625 -3.335938 7.5625 -3.796875 C 7.5625 -4.035156 7.421875 -4.242188 7.140625 -4.421875 C 6.859375 -4.609375 6.046875 -4.972656 4.703125 -5.515625 C 3.472656 -6.015625 2.613281 -6.582031 2.125 -7.21875 C 1.644531 -7.863281 1.40625 -8.675781 1.40625 -9.65625 C 1.40625 -10.90625 1.882812 -11.875 2.84375 -12.5625 C 3.800781 -13.25 5.15625 -13.59375 6.90625 -13.59375 C 7.789062 -13.59375 8.617188 -13.492188 9.390625 -13.296875 C 10.171875 -13.109375 10.976562 -12.832031 11.8125 -12.46875 L 10.5625 -9.5 C 9.945312 -9.769531 9.296875 -10 8.609375 -10.1875 C 7.921875 -10.382812 7.363281 -10.484375 6.9375 -10.484375 C 6.175781 -10.484375 5.796875 -10.300781 5.796875 -9.9375 C 5.796875 -9.707031 5.925781 -9.507812 6.1875 -9.34375 C 6.457031 -9.1875 7.222656 -8.859375 8.484375 -8.359375 C 9.421875 -7.972656 10.117188 -7.59375 10.578125 -7.21875 C 11.035156 -6.851562 11.367188 -6.421875 11.578125 -5.921875 C 11.796875 -5.421875 11.90625 -4.816406 11.90625 -4.109375 Z M 11.90625 -4.109375 "/></g></g></g></svg>