<svg xmlns="http://www.w3.org/2000/svg" xmlns:xlink="http://www.w3.org/1999/xlink" width="1634" zoomAndPan="magnify" viewBox="0 0 1225.5 224.249992" height="299" preserveAspectRatio="xMidYMid meet" version="1.0"><defs><g/><clipPath id="id1"><path d="M 1086.875 37.554688 L 1223.207031 37.554688 L 1223.207031 223.503906 L 1086.875 223.503906 Z M 1086.875 37.554688 " clip-rule="nonzero"/></clipPath></defs><g fill="#ffffff" fill-opacity="1"><g transform="translate(120.694294, 79.324366)"><g><path d="M 22.09375 -58.65625 C 17.3125 -58.65625 13.550781 -58.25 10.8125 -57.4375 L 6.25 -57.4375 L 3.640625 -66.859375 C 6.992188 -69.035156 12.117188 -70.125 19.015625 -70.125 C 27.597656 -70.125 33.320312 -68.507812 36.1875 -65.28125 C 37.675781 -63.59375 38.695312 -61.597656 39.25 -59.296875 C 39.8125 -57.003906 40.09375 -54.054688 40.09375 -50.453125 C 40.09375 -44.796875 38.789062 -40.253906 36.1875 -36.828125 C 40.039062 -33.660156 41.96875 -27.972656 41.96875 -19.765625 C 41.96875 -16.472656 41.640625 -13.628906 40.984375 -11.234375 C 40.328125 -8.835938 39.160156 -6.644531 37.484375 -4.65625 C 34.128906 -0.5625 27.664062 1.484375 18.09375 1.484375 C 15.226562 1.484375 10.90625 1.175781 5.125 0.5625 L 5.125 -11 C 11.09375 -10.625 15.816406 -10.4375 19.296875 -10.4375 C 22.785156 -10.4375 25.039062 -11.007812 26.0625 -12.15625 C 27.09375 -13.3125 27.609375 -15.878906 27.609375 -19.859375 L 27.609375 -24.34375 C 27.609375 -25.894531 27.515625 -26.796875 27.328125 -27.046875 C 27.140625 -27.296875 26.90625 -27.617188 26.625 -28.015625 C 26.34375 -28.421875 26.015625 -28.65625 25.640625 -28.71875 C 25.265625 -28.78125 24.769531 -28.90625 24.15625 -29.09375 C 23.28125 -29.28125 21.660156 -29.375 19.296875 -29.375 L 12.59375 -29.375 L 12.59375 -41.3125 C 16.757812 -41.3125 19.601562 -41.492188 21.125 -41.859375 C 22.644531 -42.234375 23.625 -42.765625 24.0625 -43.453125 C 25.175781 -44.941406 25.734375 -47.304688 25.734375 -50.546875 C 25.734375 -55.953125 24.519531 -58.65625 22.09375 -58.65625 Z M 22.09375 -58.65625 "/></g></g></g><g fill="#ffffff" fill-opacity="1"><g transform="translate(165.82445, 79.324366)"><g/></g></g><g fill="#ffffff" fill-opacity="1"><g transform="translate(190.627386, 79.324366)"><g><path d="M 4.46875 -6.8125 C 3.164062 -8.425781 2.515625 -9.648438 2.515625 -10.484375 C 2.515625 -11.328125 3.242188 -12.476562 4.703125 -13.9375 C 6.171875 -15.394531 7.132812 -16.1875 7.59375 -16.3125 C 8.0625 -16.4375 8.515625 -16.5 8.953125 -16.5 C 9.390625 -16.5 10.101562 -16.222656 11.09375 -15.671875 C 15.695312 -12.054688 19.738281 -10.25 23.21875 -10.25 C 26.695312 -10.25 28.960938 -11.054688 30.015625 -12.671875 C 31.078125 -14.296875 31.609375 -16.410156 31.609375 -19.015625 C 31.609375 -21.628906 30.675781 -23.742188 28.8125 -25.359375 C 26.945312 -26.972656 23.882812 -28.929688 19.625 -31.234375 C 15.363281 -33.535156 11.648438 -36.519531 8.484375 -40.1875 C 5.316406 -43.851562 3.734375 -47.644531 3.734375 -51.5625 C 3.734375 -58.53125 5.550781 -63.613281 9.1875 -66.8125 C 12.820312 -70.007812 18.148438 -71.609375 25.171875 -71.609375 C 29.460938 -71.609375 33.660156 -70.582031 37.765625 -68.53125 C 39.941406 -67.664062 40.96875 -66.765625 40.84375 -65.828125 C 40.78125 -65.460938 40.71875 -64.90625 40.65625 -64.15625 C 39.476562 -60.800781 38.578125 -58.875 37.953125 -58.375 C 37.765625 -58.25 37.34375 -58.1875 36.6875 -58.1875 C 36.039062 -58.1875 34.316406 -58.695312 31.515625 -59.71875 C 28.722656 -60.75 26.347656 -61.265625 24.390625 -61.265625 C 22.429688 -61.265625 20.796875 -60.578125 19.484375 -59.203125 C 18.179688 -57.835938 17.53125 -55.910156 17.53125 -53.421875 C 17.53125 -50.941406 18.648438 -48.691406 20.890625 -46.671875 C 23.128906 -44.648438 26.578125 -42.550781 31.234375 -40.375 C 36.148438 -37.820312 39.832031 -35.175781 42.28125 -32.4375 C 44.738281 -29.707031 45.96875 -26.046875 45.96875 -21.453125 C 45.96875 -6.160156 39.503906 1.484375 26.578125 1.484375 C 16.941406 1.484375 9.570312 -1.28125 4.46875 -6.8125 Z M 4.46875 -6.8125 "/></g></g></g><g fill="#ffffff" fill-opacity="1"><g transform="translate(239.300818, 79.324366)"><g><path d="M 35.25 -42.421875 C 37.738281 -42.421875 38.984375 -41.304688 38.984375 -39.078125 C 38.984375 -36.023438 38.796875 -33.9375 38.421875 -32.8125 C 38.046875 -31.695312 37.082031 -31.140625 35.53125 -31.140625 L 17.25 -31.140625 L 17.25 -11.28125 L 38.796875 -11.28125 C 40.285156 -11.21875 41.304688 -10.921875 41.859375 -10.390625 C 42.421875 -9.867188 42.703125 -9.078125 42.703125 -8.015625 C 42.703125 -4.972656 42.421875 -2.875 41.859375 -1.71875 C 41.304688 -0.570312 40.191406 0 38.515625 0 L 5.6875 0 L 4.203125 -1.484375 L 4.203125 -70.125 L 37.296875 -70.125 C 39.972656 -70.0625 41.3125 -69.066406 41.3125 -67.140625 C 41.25 -65.460938 41.15625 -64.140625 41.03125 -63.171875 C 40.90625 -62.210938 40.515625 -61.265625 39.859375 -60.328125 C 39.210938 -59.398438 38.265625 -58.9375 37.015625 -58.9375 L 16.21875 -58.9375 L 17.25 -42.421875 Z M 35.25 -42.421875 "/></g></g></g><g fill="#ffffff" fill-opacity="1"><g transform="translate(284.337734, 79.324366)"><g><path d="M 40.65625 -11 C 42.207031 -11 42.984375 -10.003906 42.984375 -8.015625 C 42.984375 -6.023438 42.953125 -4.535156 42.890625 -3.546875 C 42.640625 -1.304688 41.644531 -0.03125 39.90625 0.28125 C 34.375 1.082031 30.273438 1.484375 27.609375 1.484375 C 18.335938 1.484375 11.960938 -1.125 8.484375 -6.34375 C 5.003906 -11.5625 3.265625 -20.976562 3.265625 -34.59375 C 3.265625 -44.539062 4.023438 -52.140625 5.546875 -57.390625 C 7.066406 -62.648438 9.519531 -66.332031 12.90625 -68.4375 C 16.300781 -70.550781 21.367188 -71.609375 28.109375 -71.609375 C 34.859375 -71.609375 39.785156 -70.554688 42.890625 -68.453125 C 43.515625 -68.015625 43.828125 -67.484375 43.828125 -66.859375 C 43.828125 -66.234375 43.53125 -65.066406 42.9375 -63.359375 C 42.351562 -61.648438 41.796875 -60.4375 41.265625 -59.71875 C 40.734375 -59.007812 40.1875 -58.65625 39.625 -58.65625 C 39.070312 -58.65625 38.640625 -58.6875 38.328125 -58.75 C 33.660156 -59.675781 29.632812 -60.140625 26.25 -60.140625 C 22.863281 -60.140625 20.65625 -58.273438 19.625 -54.546875 C 18.601562 -50.816406 18.09375 -44.769531 18.09375 -36.40625 C 18.09375 -28.050781 18.304688 -22.222656 18.734375 -18.921875 C 19.171875 -15.628906 19.976562 -13.332031 21.15625 -12.03125 C 22.34375 -10.726562 24.222656 -10.078125 26.796875 -10.078125 C 29.378906 -10.078125 32.300781 -10.226562 35.5625 -10.53125 C 38.832031 -10.84375 40.53125 -11 40.65625 -11 Z M 40.65625 -11 "/></g></g></g><g fill="#ffffff" fill-opacity="1"><g transform="translate(330.773297, 79.324366)"><g><path d="M 4.203125 -2.234375 L 4.203125 -70.125 C 10.535156 -71.113281 16.035156 -71.609375 20.703125 -71.609375 C 29.335938 -71.609375 35.300781 -69.992188 38.59375 -66.765625 C 41.894531 -63.535156 43.546875 -58.191406 43.546875 -50.734375 C 43.546875 -40.285156 40.625 -33.320312 34.78125 -29.84375 L 46.53125 -3.265625 C 47.21875 -1.710938 47.5625 -0.703125 47.5625 -0.234375 C 47.5625 0.234375 47.5 0.53125 47.375 0.65625 C 47.125 1.207031 46.066406 1.484375 44.203125 1.484375 C 38.171875 1.484375 34.625 0.304688 33.5625 -2.046875 L 22.9375 -26.671875 C 21.382812 -26.546875 19.054688 -26.484375 15.953125 -26.484375 L 15.953125 -2.421875 C 15.953125 -0.679688 15.78125 0.398438 15.4375 0.828125 C 15.09375 1.265625 14.019531 1.484375 12.21875 1.484375 C 6.875 1.484375 4.203125 0.242188 4.203125 -2.234375 Z M 17.4375 -39.265625 C 22.40625 -39.265625 25.757812 -39.960938 27.5 -41.359375 C 29.25 -42.753906 30.125 -45.910156 30.125 -50.828125 C 30.125 -53.804688 29.640625 -56.164062 28.671875 -57.90625 C 27.710938 -59.644531 26.640625 -60.515625 25.453125 -60.515625 C 21.046875 -60.515625 18.359375 -60.421875 17.390625 -60.234375 C 16.429688 -60.046875 15.953125 -59.425781 15.953125 -58.375 L 15.953125 -40.65625 C 15.953125 -39.84375 16.101562 -39.40625 16.40625 -39.34375 C 16.71875 -39.289062 17.0625 -39.265625 17.4375 -39.265625 Z M 17.4375 -39.265625 "/></g></g></g><g fill="#ffffff" fill-opacity="1"><g transform="translate(380.379168, 79.324366)"><g><path d="M 35.25 -42.421875 C 37.738281 -42.421875 38.984375 -41.304688 38.984375 -39.078125 C 38.984375 -36.023438 38.796875 -33.9375 38.421875 -32.8125 C 38.046875 -31.695312 37.082031 -31.140625 35.53125 -31.140625 L 17.25 -31.140625 L 17.25 -11.28125 L 38.796875 -11.28125 C 40.285156 -11.21875 41.304688 -10.921875 41.859375 -10.390625 C 42.421875 -9.867188 42.703125 -9.078125 42.703125 -8.015625 C 42.703125 -4.972656 42.421875 -2.875 41.859375 -1.71875 C 41.304688 -0.570312 40.191406 0 38.515625 0 L 5.6875 0 L 4.203125 -1.484375 L 4.203125 -70.125 L 37.296875 -70.125 C 39.972656 -70.0625 41.3125 -69.066406 41.3125 -67.140625 C 41.25 -65.460938 41.15625 -64.140625 41.03125 -63.171875 C 40.90625 -62.210938 40.515625 -61.265625 39.859375 -60.328125 C 39.210938 -59.398438 38.265625 -58.9375 37.015625 -58.9375 L 16.21875 -58.9375 L 17.25 -42.421875 Z M 35.25 -42.421875 "/></g></g></g><g fill="#ffffff" fill-opacity="1"><g transform="translate(425.416072, 79.324366)"><g><path d="M 16.03125 -1.953125 L 16.03125 -58.9375 L 4.375 -58.9375 C 2.882812 -59 1.921875 -59.398438 1.484375 -60.140625 C 0.929688 -61.015625 0.65625 -62.570312 0.65625 -64.8125 C 0.65625 -68.351562 1.710938 -70.125 3.828125 -70.125 L 37.765625 -70.125 C 41.367188 -70.125 43.171875 -69.160156 43.171875 -67.234375 C 43.171875 -61.703125 41.679688 -58.9375 38.703125 -58.9375 L 28.25 -59.03125 L 29.09375 -40.09375 L 29.1875 -2.140625 C 29.1875 -0.960938 29.15625 -0.1875 29.09375 0.1875 C 28.84375 1.050781 27.628906 1.484375 25.453125 1.484375 C 19.171875 1.484375 16.03125 0.335938 16.03125 -1.953125 Z M 16.03125 -1.953125 "/></g></g></g><g fill="#ffffff" fill-opacity="1"><g transform="translate(469.240809, 79.324366)"><g><path d="M 3.453125 -34.59375 C 3.453125 -44.476562 4.226562 -52.0625 5.78125 -57.34375 C 7.332031 -62.632812 9.800781 -66.332031 13.1875 -68.4375 C 16.582031 -70.550781 21.476562 -71.609375 27.875 -71.609375 C 34.28125 -71.609375 39.175781 -70.550781 42.5625 -68.4375 C 45.957031 -66.332031 48.414062 -62.648438 49.9375 -57.390625 C 51.457031 -52.140625 52.21875 -44.539062 52.21875 -34.59375 C 52.21875 -20.976562 50.476562 -11.5625 47 -6.34375 C 43.519531 -1.125 37.144531 1.484375 27.875 1.484375 C 18.613281 1.484375 12.226562 -1.125 8.71875 -6.34375 C 5.207031 -11.5625 3.453125 -20.976562 3.453125 -34.59375 Z M 19.015625 -51.984375 C 18.648438 -49.648438 18.4375 -47.285156 18.375 -44.890625 C 18.3125 -42.503906 18.28125 -38.453125 18.28125 -32.734375 C 18.28125 -27.015625 18.460938 -22.226562 18.828125 -18.375 C 19.203125 -14.519531 19.703125 -11.984375 20.328125 -10.765625 C 20.953125 -9.554688 21.789062 -8.953125 22.84375 -8.953125 C 28.3125 -8.953125 31.882812 -9.507812 33.5625 -10.625 C 34.1875 -11.0625 34.796875 -11.773438 35.390625 -12.765625 C 35.984375 -13.765625 36.398438 -14.789062 36.640625 -15.84375 C 36.890625 -16.90625 37.109375 -18.460938 37.296875 -20.515625 C 37.546875 -23.191406 37.671875 -27.992188 37.671875 -34.921875 C 37.671875 -41.847656 37.5 -47.316406 37.15625 -51.328125 C 36.8125 -55.335938 36.3125 -58.070312 35.65625 -59.53125 C 35.007812 -61 34.160156 -61.734375 33.109375 -61.734375 C 30.617188 -61.734375 28.609375 -61.625 27.078125 -61.40625 C 25.554688 -61.1875 24.207031 -60.65625 23.03125 -59.8125 C 21.851562 -58.976562 20.984375 -58.046875 20.421875 -57.015625 C 19.859375 -55.992188 19.390625 -54.316406 19.015625 -51.984375 Z M 19.015625 -51.984375 "/></g></g></g><g fill="#ffffff" fill-opacity="1"><g transform="translate(524.907568, 79.324366)"><g><path d="M 4.46875 -6.8125 C 3.164062 -8.425781 2.515625 -9.648438 2.515625 -10.484375 C 2.515625 -11.328125 3.242188 -12.476562 4.703125 -13.9375 C 6.171875 -15.394531 7.132812 -16.1875 7.59375 -16.3125 C 8.0625 -16.4375 8.515625 -16.5 8.953125 -16.5 C 9.390625 -16.5 10.101562 -16.222656 11.09375 -15.671875 C 15.695312 -12.054688 19.738281 -10.25 23.21875 -10.25 C 26.695312 -10.25 28.960938 -11.054688 30.015625 -12.671875 C 31.078125 -14.296875 31.609375 -16.410156 31.609375 -19.015625 C 31.609375 -21.628906 30.675781 -23.742188 28.8125 -25.359375 C 26.945312 -26.972656 23.882812 -28.929688 19.625 -31.234375 C 15.363281 -33.535156 11.648438 -36.519531 8.484375 -40.1875 C 5.316406 -43.851562 3.734375 -47.644531 3.734375 -51.5625 C 3.734375 -58.53125 5.550781 -63.613281 9.1875 -66.8125 C 12.820312 -70.007812 18.148438 -71.609375 25.171875 -71.609375 C 29.460938 -71.609375 33.660156 -70.582031 37.765625 -68.53125 C 39.941406 -67.664062 40.96875 -66.765625 40.84375 -65.828125 C 40.78125 -65.460938 40.71875 -64.90625 40.65625 -64.15625 C 39.476562 -60.800781 38.578125 -58.875 37.953125 -58.375 C 37.765625 -58.25 37.34375 -58.1875 36.6875 -58.1875 C 36.039062 -58.1875 34.316406 -58.695312 31.515625 -59.71875 C 28.722656 -60.75 26.347656 -61.265625 24.390625 -61.265625 C 22.429688 -61.265625 20.796875 -60.578125 19.484375 -59.203125 C 18.179688 -57.835938 17.53125 -55.910156 17.53125 -53.421875 C 17.53125 -50.941406 18.648438 -48.691406 20.890625 -46.671875 C 23.128906 -44.648438 26.578125 -42.550781 31.234375 -40.375 C 36.148438 -37.820312 39.832031 -35.175781 42.28125 -32.4375 C 44.738281 -29.707031 45.96875 -26.046875 45.96875 -21.453125 C 45.96875 -6.160156 39.503906 1.484375 26.578125 1.484375 C 16.941406 1.484375 9.570312 -1.28125 4.46875 -6.8125 Z M 4.46875 -6.8125 "/></g></g></g><g fill="#ffffff" fill-opacity="1"><g transform="translate(573.581025, 79.324366)"><g/></g></g><g fill="#ffffff" fill-opacity="1"><g transform="translate(598.383985, 79.324366)"><g><path d="M 4.203125 -2.046875 L 4.203125 -70.125 C 10.472656 -71.113281 16.003906 -71.609375 20.796875 -71.609375 C 29.253906 -71.609375 35.144531 -69.835938 38.46875 -66.296875 C 41.789062 -62.753906 43.453125 -57.191406 43.453125 -49.609375 C 43.453125 -40.660156 41.210938 -34.535156 36.734375 -31.234375 C 33.816406 -29.117188 30.957031 -27.816406 28.15625 -27.328125 C 24.550781 -26.765625 20.453125 -26.484375 15.859375 -26.484375 L 15.859375 -2.140625 C 15.859375 -0.960938 15.796875 -0.1875 15.671875 0.1875 C 15.484375 1.050781 14.300781 1.484375 12.125 1.484375 C 6.84375 1.484375 4.203125 0.304688 4.203125 -2.046875 Z M 16.171875 -39.484375 C 16.390625 -39.390625 16.578125 -39.328125 16.734375 -39.296875 C 16.890625 -39.273438 17.601562 -39.265625 18.875 -39.265625 C 20.15625 -39.265625 21.320312 -39.289062 22.375 -39.34375 C 23.4375 -39.40625 24.570312 -39.609375 25.78125 -39.953125 C 27 -40.296875 27.851562 -40.84375 28.34375 -41.59375 C 29.46875 -43.457031 30.03125 -46.035156 30.03125 -49.328125 C 30.03125 -52.617188 29.53125 -55.304688 28.53125 -57.390625 C 27.539062 -59.472656 26.484375 -60.515625 25.359375 -60.515625 C 20.890625 -60.515625 18.1875 -60.421875 17.25 -60.234375 C 16.320312 -60.046875 15.859375 -59.425781 15.859375 -58.375 L 15.859375 -40.65625 C 15.859375 -39.96875 15.960938 -39.578125 16.171875 -39.484375 Z M 16.171875 -39.484375 "/></g></g></g><g fill="#ffffff" fill-opacity="1"><g transform="translate(642.861431, 79.324366)"><g><path d="M 27.78125 -71.703125 C 32.070312 -71.703125 34.40625 -70.738281 34.78125 -68.8125 L 41.125 -40.1875 L 47.5625 -2.046875 C 47.6875 -1.429688 47.75 -0.859375 47.75 -0.328125 C 47.75 0.203125 47.59375 0.632812 47.28125 0.96875 C 46.96875 1.3125 45.910156 1.484375 44.109375 1.484375 C 38.578125 1.484375 35.625 0.304688 35.25 -2.046875 L 31.984375 -21.265625 L 18.9375 -21.265625 L 16.03125 -1.953125 C 15.851562 -0.648438 15.625 0.21875 15.34375 0.65625 C 15.0625 1.09375 14.671875 1.335938 14.171875 1.390625 C 13.671875 1.453125 12.863281 1.484375 11.75 1.484375 L 9.140625 1.484375 C 6.960938 1.484375 5.59375 1.363281 5.03125 1.125 C 3.664062 0.625 2.890625 0.0625 2.703125 -0.5625 C 2.640625 -0.875 2.609375 -1.148438 2.609375 -1.390625 C 2.609375 -1.640625 3.257812 -5.742188 4.5625 -13.703125 C 5.875 -21.660156 7.476562 -31.140625 9.375 -42.140625 C 11.269531 -53.148438 12.507812 -60.363281 13.09375 -63.78125 C 13.6875 -67.195312 14.015625 -69.125 14.078125 -69.5625 C 14.328125 -70.988281 18.894531 -71.703125 27.78125 -71.703125 Z M 24.984375 -59.5 L 20.703125 -32.546875 L 29.9375 -32.546875 Z M 24.984375 -59.5 "/></g></g></g><g fill="#ffffff" fill-opacity="1"><g transform="translate(693.120012, 79.324366)"><g><path d="M 4.203125 -2.234375 L 4.203125 -70.125 C 10.535156 -71.113281 16.035156 -71.609375 20.703125 -71.609375 C 29.335938 -71.609375 35.300781 -69.992188 38.59375 -66.765625 C 41.894531 -63.535156 43.546875 -58.191406 43.546875 -50.734375 C 43.546875 -40.285156 40.625 -33.320312 34.78125 -29.84375 L 46.53125 -3.265625 C 47.21875 -1.710938 47.5625 -0.703125 47.5625 -0.234375 C 47.5625 0.234375 47.5 0.53125 47.375 0.65625 C 47.125 1.207031 46.066406 1.484375 44.203125 1.484375 C 38.171875 1.484375 34.625 0.304688 33.5625 -2.046875 L 22.9375 -26.671875 C 21.382812 -26.546875 19.054688 -26.484375 15.953125 -26.484375 L 15.953125 -2.421875 C 15.953125 -0.679688 15.78125 0.398438 15.4375 0.828125 C 15.09375 1.265625 14.019531 1.484375 12.21875 1.484375 C 6.875 1.484375 4.203125 0.242188 4.203125 -2.234375 Z M 17.4375 -39.265625 C 22.40625 -39.265625 25.757812 -39.960938 27.5 -41.359375 C 29.25 -42.753906 30.125 -45.910156 30.125 -50.828125 C 30.125 -53.804688 29.640625 -56.164062 28.671875 -57.90625 C 27.710938 -59.644531 26.640625 -60.515625 25.453125 -60.515625 C 21.046875 -60.515625 18.359375 -60.421875 17.390625 -60.234375 C 16.429688 -60.046875 15.953125 -59.425781 15.953125 -58.375 L 15.953125 -40.65625 C 15.953125 -39.84375 16.101562 -39.40625 16.40625 -39.34375 C 16.71875 -39.289062 17.0625 -39.265625 17.4375 -39.265625 Z M 17.4375 -39.265625 "/></g></g></g><g fill="#ffffff" fill-opacity="1"><g transform="translate(742.725883, 79.324366)"><g><path d="M 27.78125 -71.703125 C 32.070312 -71.703125 34.40625 -70.738281 34.78125 -68.8125 L 41.125 -40.1875 L 47.5625 -2.046875 C 47.6875 -1.429688 47.75 -0.859375 47.75 -0.328125 C 47.75 0.203125 47.59375 0.632812 47.28125 0.96875 C 46.96875 1.3125 45.910156 1.484375 44.109375 1.484375 C 38.578125 1.484375 35.625 0.304688 35.25 -2.046875 L 31.984375 -21.265625 L 18.9375 -21.265625 L 16.03125 -1.953125 C 15.851562 -0.648438 15.625 0.21875 15.34375 0.65625 C 15.0625 1.09375 14.671875 1.335938 14.171875 1.390625 C 13.671875 1.453125 12.863281 1.484375 11.75 1.484375 L 9.140625 1.484375 C 6.960938 1.484375 5.59375 1.363281 5.03125 1.125 C 3.664062 0.625 2.890625 0.0625 2.703125 -0.5625 C 2.640625 -0.875 2.609375 -1.148438 2.609375 -1.390625 C 2.609375 -1.640625 3.257812 -5.742188 4.5625 -13.703125 C 5.875 -21.660156 7.476562 -31.140625 9.375 -42.140625 C 11.269531 -53.148438 12.507812 -60.363281 13.09375 -63.78125 C 13.6875 -67.195312 14.015625 -69.125 14.078125 -69.5625 C 14.328125 -70.988281 18.894531 -71.703125 27.78125 -71.703125 Z M 24.984375 -59.5 L 20.703125 -32.546875 L 29.9375 -32.546875 Z M 24.984375 -59.5 "/></g></g></g><g fill="#ffffff" fill-opacity="1"><g transform="translate(792.984463, 79.324366)"><g/></g></g><g fill="#ffffff" fill-opacity="1"><g transform="translate(817.787423, 79.324366)"><g><path d="M 4.203125 -2.046875 L 4.203125 -70.125 C 10.472656 -71.113281 16.003906 -71.609375 20.796875 -71.609375 C 29.253906 -71.609375 35.144531 -69.835938 38.46875 -66.296875 C 41.789062 -62.753906 43.453125 -57.191406 43.453125 -49.609375 C 43.453125 -40.660156 41.210938 -34.535156 36.734375 -31.234375 C 33.816406 -29.117188 30.957031 -27.816406 28.15625 -27.328125 C 24.550781 -26.765625 20.453125 -26.484375 15.859375 -26.484375 L 15.859375 -2.140625 C 15.859375 -0.960938 15.796875 -0.1875 15.671875 0.1875 C 15.484375 1.050781 14.300781 1.484375 12.125 1.484375 C 6.84375 1.484375 4.203125 0.304688 4.203125 -2.046875 Z M 16.171875 -39.484375 C 16.390625 -39.390625 16.578125 -39.328125 16.734375 -39.296875 C 16.890625 -39.273438 17.601562 -39.265625 18.875 -39.265625 C 20.15625 -39.265625 21.320312 -39.289062 22.375 -39.34375 C 23.4375 -39.40625 24.570312 -39.609375 25.78125 -39.953125 C 27 -40.296875 27.851562 -40.84375 28.34375 -41.59375 C 29.46875 -43.457031 30.03125 -46.035156 30.03125 -49.328125 C 30.03125 -52.617188 29.53125 -55.304688 28.53125 -57.390625 C 27.539062 -59.472656 26.484375 -60.515625 25.359375 -60.515625 C 20.890625 -60.515625 18.1875 -60.421875 17.25 -60.234375 C 16.320312 -60.046875 15.859375 -59.425781 15.859375 -58.375 L 15.859375 -40.65625 C 15.859375 -39.96875 15.960938 -39.578125 16.171875 -39.484375 Z M 16.171875 -39.484375 "/></g></g></g><g fill="#ffffff" fill-opacity="1"><g transform="translate(862.26487, 79.324366)"><g><path d="M 35.25 -42.421875 C 37.738281 -42.421875 38.984375 -41.304688 38.984375 -39.078125 C 38.984375 -36.023438 38.796875 -33.9375 38.421875 -32.8125 C 38.046875 -31.695312 37.082031 -31.140625 35.53125 -31.140625 L 17.25 -31.140625 L 17.25 -11.28125 L 38.796875 -11.28125 C 40.285156 -11.21875 41.304688 -10.921875 41.859375 -10.390625 C 42.421875 -9.867188 42.703125 -9.078125 42.703125 -8.015625 C 42.703125 -4.972656 42.421875 -2.875 41.859375 -1.71875 C 41.304688 -0.570312 40.191406 0 38.515625 0 L 5.6875 0 L 4.203125 -1.484375 L 4.203125 -70.125 L 37.296875 -70.125 C 39.972656 -70.0625 41.3125 -69.066406 41.3125 -67.140625 C 41.25 -65.460938 41.15625 -64.140625 41.03125 -63.171875 C 40.90625 -62.210938 40.515625 -61.265625 39.859375 -60.328125 C 39.210938 -59.398438 38.265625 -58.9375 37.015625 -58.9375 L 16.21875 -58.9375 L 17.25 -42.421875 Z M 35.25 -42.421875 "/></g></g></g><g fill="#ffffff" fill-opacity="1"><g transform="translate(907.301774, 79.324366)"><g><path d="M 4.203125 -2.234375 L 4.203125 -70.125 C 10.535156 -71.113281 16.035156 -71.609375 20.703125 -71.609375 C 29.335938 -71.609375 35.300781 -69.992188 38.59375 -66.765625 C 41.894531 -63.535156 43.546875 -58.191406 43.546875 -50.734375 C 43.546875 -40.285156 40.625 -33.320312 34.78125 -29.84375 L 46.53125 -3.265625 C 47.21875 -1.710938 47.5625 -0.703125 47.5625 -0.234375 C 47.5625 0.234375 47.5 0.53125 47.375 0.65625 C 47.125 1.207031 46.066406 1.484375 44.203125 1.484375 C 38.171875 1.484375 34.625 0.304688 33.5625 -2.046875 L 22.9375 -26.671875 C 21.382812 -26.546875 19.054688 -26.484375 15.953125 -26.484375 L 15.953125 -2.421875 C 15.953125 -0.679688 15.78125 0.398438 15.4375 0.828125 C 15.09375 1.265625 14.019531 1.484375 12.21875 1.484375 C 6.875 1.484375 4.203125 0.242188 4.203125 -2.234375 Z M 17.4375 -39.265625 C 22.40625 -39.265625 25.757812 -39.960938 27.5 -41.359375 C 29.25 -42.753906 30.125 -45.910156 30.125 -50.828125 C 30.125 -53.804688 29.640625 -56.164062 28.671875 -57.90625 C 27.710938 -59.644531 26.640625 -60.515625 25.453125 -60.515625 C 21.046875 -60.515625 18.359375 -60.421875 17.390625 -60.234375 C 16.429688 -60.046875 15.953125 -59.425781 15.953125 -58.375 L 15.953125 -40.65625 C 15.953125 -39.84375 16.101562 -39.40625 16.40625 -39.34375 C 16.71875 -39.289062 17.0625 -39.265625 17.4375 -39.265625 Z M 17.4375 -39.265625 "/></g></g></g><g fill="#ffffff" fill-opacity="1"><g transform="translate(956.907645, 79.324366)"><g><path d="M 24.625 -71.609375 C 31.394531 -71.609375 36.519531 -70.644531 40 -68.71875 C 43.476562 -66.789062 45.992188 -63.296875 47.546875 -58.234375 C 49.109375 -53.171875 49.890625 -45.664062 49.890625 -35.71875 C 49.890625 -21.914062 48.085938 -12.265625 44.484375 -6.765625 C 40.878906 -1.265625 34.257812 1.484375 24.625 1.484375 C 22.257812 1.484375 15.453125 0.988281 4.203125 0 L 4.203125 -70.03125 C 13.648438 -71.082031 20.457031 -71.609375 24.625 -71.609375 Z M 29.5625 -60.515625 C 24.15625 -60.515625 20.765625 -60.40625 19.390625 -60.1875 C 18.023438 -59.96875 17.34375 -59.363281 17.34375 -58.375 L 17.34375 -11.5625 C 17.34375 -10.875 17.757812 -10.46875 18.59375 -10.34375 C 19.4375 -10.226562 21.148438 -10.171875 23.734375 -10.171875 C 26.316406 -10.171875 28.132812 -10.304688 29.1875 -10.578125 C 30.238281 -10.859375 31.21875 -11.351562 32.125 -12.0625 C 33.03125 -12.78125 33.632812 -14.164062 33.9375 -16.21875 C 34.5625 -20.195312 34.875 -26.351562 34.875 -34.6875 C 34.875 -51.90625 33.101562 -60.515625 29.5625 -60.515625 Z M 29.5625 -60.515625 "/></g></g></g><g fill="#ffffff" fill-opacity="1"><g transform="translate(1010.150069, 79.324366)"><g><path d="M 35.25 -42.421875 C 37.738281 -42.421875 38.984375 -41.304688 38.984375 -39.078125 C 38.984375 -36.023438 38.796875 -33.9375 38.421875 -32.8125 C 38.046875 -31.695312 37.082031 -31.140625 35.53125 -31.140625 L 17.25 -31.140625 L 17.25 -11.28125 L 38.796875 -11.28125 C 40.285156 -11.21875 41.304688 -10.921875 41.859375 -10.390625 C 42.421875 -9.867188 42.703125 -9.078125 42.703125 -8.015625 C 42.703125 -4.972656 42.421875 -2.875 41.859375 -1.71875 C 41.304688 -0.570312 40.191406 0 38.515625 0 L 5.6875 0 L 4.203125 -1.484375 L 4.203125 -70.125 L 37.296875 -70.125 C 39.972656 -70.0625 41.3125 -69.066406 41.3125 -67.140625 C 41.25 -65.460938 41.15625 -64.140625 41.03125 -63.171875 C 40.90625 -62.210938 40.515625 -61.265625 39.859375 -60.328125 C 39.210938 -59.398438 38.265625 -58.9375 37.015625 -58.9375 L 16.21875 -58.9375 L 17.25 -42.421875 Z M 35.25 -42.421875 "/></g></g></g><g fill="#ffffff" fill-opacity="1"><g transform="translate(1055.186973, 79.324366)"><g><path d="M 4.203125 -2.234375 L 4.203125 -70.125 C 10.535156 -71.113281 16.035156 -71.609375 20.703125 -71.609375 C 29.335938 -71.609375 35.300781 -69.992188 38.59375 -66.765625 C 41.894531 -63.535156 43.546875 -58.191406 43.546875 -50.734375 C 43.546875 -40.285156 40.625 -33.320312 34.78125 -29.84375 L 46.53125 -3.265625 C 47.21875 -1.710938 47.5625 -0.703125 47.5625 -0.234375 C 47.5625 0.234375 47.5 0.53125 47.375 0.65625 C 47.125 1.207031 46.066406 1.484375 44.203125 1.484375 C 38.171875 1.484375 34.625 0.304688 33.5625 -2.046875 L 22.9375 -26.671875 C 21.382812 -26.546875 19.054688 -26.484375 15.953125 -26.484375 L 15.953125 -2.421875 C 15.953125 -0.679688 15.78125 0.398438 15.4375 0.828125 C 15.09375 1.265625 14.019531 1.484375 12.21875 1.484375 C 6.875 1.484375 4.203125 0.242188 4.203125 -2.234375 Z M 17.4375 -39.265625 C 22.40625 -39.265625 25.757812 -39.960938 27.5 -41.359375 C 29.25 -42.753906 30.125 -45.910156 30.125 -50.828125 C 30.125 -53.804688 29.640625 -56.164062 28.671875 -57.90625 C 27.710938 -59.644531 26.640625 -60.515625 25.453125 -60.515625 C 21.046875 -60.515625 18.359375 -60.421875 17.390625 -60.234375 C 16.429688 -60.046875 15.953125 -59.425781 15.953125 -58.375 L 15.953125 -40.65625 C 15.953125 -39.84375 16.101562 -39.40625 16.40625 -39.34375 C 16.71875 -39.289062 17.0625 -39.265625 17.4375 -39.265625 Z M 17.4375 -39.265625 "/></g></g></g><g fill="#ffffff" fill-opacity="1"><g transform="translate(156.794534, 209.214197)"><g><path d="M 38.421875 -1.953125 L 38.421875 -44.296875 L 32.359375 -33.015625 L 22.9375 -33.015625 L 17.25 -44.109375 L 17.25 -2.046875 C 17.25 -0.929688 17.21875 -0.1875 17.15625 0.1875 C 16.90625 1.050781 15.691406 1.484375 13.515625 1.484375 C 7.304688 1.484375 4.203125 0.335938 4.203125 -1.953125 L 4.203125 -68.078125 C 4.203125 -70.429688 6.34375 -71.609375 10.625 -71.609375 C 14.914062 -71.609375 17.5 -70.460938 18.375 -68.171875 L 27.78125 -44.109375 L 37.671875 -68.265625 C 38.171875 -69.628906 38.773438 -70.523438 39.484375 -70.953125 C 40.203125 -71.390625 41.460938 -71.609375 43.265625 -71.609375 C 47.742188 -71.609375 50.015625 -70.398438 50.078125 -67.984375 L 51.5625 -40.1875 L 51.5625 -2.609375 C 51.5625 -0.742188 51.390625 0.398438 51.046875 0.828125 C 50.710938 1.265625 49.597656 1.484375 47.703125 1.484375 C 45.804688 1.484375 44.265625 1.421875 43.078125 1.296875 C 41.898438 1.179688 40.828125 0.859375 39.859375 0.328125 C 38.898438 -0.203125 38.421875 -0.960938 38.421875 -1.953125 Z M 38.421875 -1.953125 "/></g></g></g><g fill="#ffffff" fill-opacity="1"><g transform="translate(212.461281, 209.214197)"><g><path d="M 34.21875 -67.328125 C 34.21875 -69.066406 34.585938 -70.210938 35.328125 -70.765625 C 36.078125 -71.328125 37.632812 -71.609375 40 -71.609375 C 42.363281 -71.609375 43.992188 -71.234375 44.890625 -70.484375 C 45.796875 -69.742188 46.28125 -67.945312 46.34375 -65.09375 L 47.46875 -40 C 47.46875 -39.070312 47.46875 -38.140625 47.46875 -37.203125 C 47.46875 -27.566406 46.828125 -19.921875 45.546875 -14.265625 C 44.273438 -8.609375 42.097656 -4.566406 39.015625 -2.140625 C 35.941406 0.273438 31.546875 1.484375 25.828125 1.484375 C 17.492188 1.484375 11.742188 -1.125 8.578125 -6.34375 C 5.410156 -11.5625 3.828125 -20.945312 3.828125 -34.5 L 3.828125 -65.28125 C 3.828125 -67.945312 4.210938 -69.664062 4.984375 -70.4375 C 5.765625 -71.21875 7.363281 -71.609375 9.78125 -71.609375 C 12.207031 -71.609375 13.851562 -71.1875 14.71875 -70.34375 C 15.59375 -69.507812 16.09375 -67.507812 16.21875 -64.34375 L 17.53125 -40.1875 C 17.53125 -24.457031 18.148438 -15.101562 19.390625 -12.125 C 19.890625 -10.820312 20.609375 -10.171875 21.546875 -10.171875 C 23.710938 -10.171875 25.382812 -10.210938 26.5625 -10.296875 C 27.75 -10.390625 28.898438 -10.765625 30.015625 -11.421875 C 31.140625 -12.078125 31.921875 -12.835938 32.359375 -13.703125 C 32.796875 -14.578125 33.195312 -16.039062 33.5625 -18.09375 C 34 -20.945312 34.21875 -26.414062 34.21875 -34.5 Z M 34.21875 -67.328125 "/></g></g></g><g fill="#ffffff" fill-opacity="1"><g transform="translate(263.745551, 209.214197)"><g><path d="M 40.65625 -11 C 42.207031 -11 42.984375 -10.003906 42.984375 -8.015625 C 42.984375 -6.023438 42.953125 -4.535156 42.890625 -3.546875 C 42.640625 -1.304688 41.644531 -0.03125 39.90625 0.28125 C 34.375 1.082031 30.273438 1.484375 27.609375 1.484375 C 18.335938 1.484375 11.960938 -1.125 8.484375 -6.34375 C 5.003906 -11.5625 3.265625 -20.976562 3.265625 -34.59375 C 3.265625 -44.539062 4.023438 -52.140625 5.546875 -57.390625 C 7.066406 -62.648438 9.519531 -66.332031 12.90625 -68.4375 C 16.300781 -70.550781 21.367188 -71.609375 28.109375 -71.609375 C 34.859375 -71.609375 39.785156 -70.554688 42.890625 -68.453125 C 43.515625 -68.015625 43.828125 -67.484375 43.828125 -66.859375 C 43.828125 -66.234375 43.53125 -65.066406 42.9375 -63.359375 C 42.351562 -61.648438 41.796875 -60.4375 41.265625 -59.71875 C 40.734375 -59.007812 40.1875 -58.65625 39.625 -58.65625 C 39.070312 -58.65625 38.640625 -58.6875 38.328125 -58.75 C 33.660156 -59.675781 29.632812 -60.140625 26.25 -60.140625 C 22.863281 -60.140625 20.65625 -58.273438 19.625 -54.546875 C 18.601562 -50.816406 18.09375 -44.769531 18.09375 -36.40625 C 18.09375 -28.050781 18.304688 -22.222656 18.734375 -18.921875 C 19.171875 -15.628906 19.976562 -13.332031 21.15625 -12.03125 C 22.34375 -10.726562 24.222656 -10.078125 26.796875 -10.078125 C 29.378906 -10.078125 32.300781 -10.226562 35.5625 -10.53125 C 38.832031 -10.84375 40.53125 -11 40.65625 -11 Z M 40.65625 -11 "/></g></g></g><g fill="#ffffff" fill-opacity="1"><g transform="translate(310.181126, 209.214197)"><g><path d="M 32.453125 -68.453125 C 32.453125 -69.753906 32.742188 -70.601562 33.328125 -71 C 33.921875 -71.40625 35.148438 -71.609375 37.015625 -71.609375 C 41.492188 -71.609375 43.765625 -70.460938 43.828125 -68.171875 L 45.59375 -40.1875 L 45.59375 -1.953125 C 45.59375 -0.898438 45.5625 -0.1875 45.5 0.1875 C 45.257812 1.050781 44.050781 1.484375 41.875 1.484375 C 35.59375 1.484375 32.453125 0.367188 32.453125 -1.859375 L 32.453125 -28.90625 L 17.15625 -28.90625 L 17.25 -1.953125 C 17.25 -0.898438 17.21875 -0.1875 17.15625 0.1875 C 16.90625 1.050781 15.691406 1.484375 13.515625 1.484375 C 7.304688 1.484375 4.203125 0.304688 4.203125 -2.046875 L 4.203125 -68.359375 C 4.203125 -69.722656 4.492188 -70.601562 5.078125 -71 C 5.671875 -71.40625 6.898438 -71.609375 8.765625 -71.609375 C 13.242188 -71.609375 15.515625 -70.523438 15.578125 -68.359375 L 17.15625 -40.09375 L 32.453125 -40.09375 Z M 32.453125 -68.453125 "/></g></g></g><g fill="#ffffff" fill-opacity="1"><g transform="translate(359.880248, 209.214197)"><g><path d="M 3.453125 -34.59375 C 3.453125 -44.476562 4.226562 -52.0625 5.78125 -57.34375 C 7.332031 -62.632812 9.800781 -66.332031 13.1875 -68.4375 C 16.582031 -70.550781 21.476562 -71.609375 27.875 -71.609375 C 34.28125 -71.609375 39.175781 -70.550781 42.5625 -68.4375 C 45.957031 -66.332031 48.414062 -62.648438 49.9375 -57.390625 C 51.457031 -52.140625 52.21875 -44.539062 52.21875 -34.59375 C 52.21875 -20.976562 50.476562 -11.5625 47 -6.34375 C 43.519531 -1.125 37.144531 1.484375 27.875 1.484375 C 18.613281 1.484375 12.226562 -1.125 8.71875 -6.34375 C 5.207031 -11.5625 3.453125 -20.976562 3.453125 -34.59375 Z M 19.015625 -51.984375 C 18.648438 -49.648438 18.4375 -47.285156 18.375 -44.890625 C 18.3125 -42.503906 18.28125 -38.453125 18.28125 -32.734375 C 18.28125 -27.015625 18.460938 -22.226562 18.828125 -18.375 C 19.203125 -14.519531 19.703125 -11.984375 20.328125 -10.765625 C 20.953125 -9.554688 21.789062 -8.953125 22.84375 -8.953125 C 28.3125 -8.953125 31.882812 -9.507812 33.5625 -10.625 C 34.1875 -11.0625 34.796875 -11.773438 35.390625 -12.765625 C 35.984375 -13.765625 36.398438 -14.789062 36.640625 -15.84375 C 36.890625 -16.90625 37.109375 -18.460938 37.296875 -20.515625 C 37.546875 -23.191406 37.671875 -27.992188 37.671875 -34.921875 C 37.671875 -41.847656 37.5 -47.316406 37.15625 -51.328125 C 36.8125 -55.335938 36.3125 -58.070312 35.65625 -59.53125 C 35.007812 -61 34.160156 -61.734375 33.109375 -61.734375 C 30.617188 -61.734375 28.609375 -61.625 27.078125 -61.40625 C 25.554688 -61.1875 24.207031 -60.65625 23.03125 -59.8125 C 21.851562 -58.976562 20.984375 -58.046875 20.421875 -57.015625 C 19.859375 -55.992188 19.390625 -54.316406 19.015625 -51.984375 Z M 19.015625 -51.984375 "/></g></g></g><g fill="#ffffff" fill-opacity="1"><g transform="translate(415.546994, 209.214197)"><g/></g></g><g fill="#ffffff" fill-opacity="1"><g transform="translate(440.34993, 209.214197)"><g><path d="M 4.203125 -2.046875 L 4.203125 -70.125 C 10.472656 -71.113281 16.003906 -71.609375 20.796875 -71.609375 C 29.253906 -71.609375 35.144531 -69.835938 38.46875 -66.296875 C 41.789062 -62.753906 43.453125 -57.191406 43.453125 -49.609375 C 43.453125 -40.660156 41.210938 -34.535156 36.734375 -31.234375 C 33.816406 -29.117188 30.957031 -27.816406 28.15625 -27.328125 C 24.550781 -26.765625 20.453125 -26.484375 15.859375 -26.484375 L 15.859375 -2.140625 C 15.859375 -0.960938 15.796875 -0.1875 15.671875 0.1875 C 15.484375 1.050781 14.300781 1.484375 12.125 1.484375 C 6.84375 1.484375 4.203125 0.304688 4.203125 -2.046875 Z M 16.171875 -39.484375 C 16.390625 -39.390625 16.578125 -39.328125 16.734375 -39.296875 C 16.890625 -39.273438 17.601562 -39.265625 18.875 -39.265625 C 20.15625 -39.265625 21.320312 -39.289062 22.375 -39.34375 C 23.4375 -39.40625 24.570312 -39.609375 25.78125 -39.953125 C 27 -40.296875 27.851562 -40.84375 28.34375 -41.59375 C 29.46875 -43.457031 30.03125 -46.035156 30.03125 -49.328125 C 30.03125 -52.617188 29.53125 -55.304688 28.53125 -57.390625 C 27.539062 -59.472656 26.484375 -60.515625 25.359375 -60.515625 C 20.890625 -60.515625 18.1875 -60.421875 17.25 -60.234375 C 16.320312 -60.046875 15.859375 -59.425781 15.859375 -58.375 L 15.859375 -40.65625 C 15.859375 -39.96875 15.960938 -39.578125 16.171875 -39.484375 Z M 16.171875 -39.484375 "/></g></g></g><g fill="#ffffff" fill-opacity="1"><g transform="translate(484.827376, 209.214197)"><g><path d="M 35.25 -42.421875 C 37.738281 -42.421875 38.984375 -41.304688 38.984375 -39.078125 C 38.984375 -36.023438 38.796875 -33.9375 38.421875 -32.8125 C 38.046875 -31.695312 37.082031 -31.140625 35.53125 -31.140625 L 17.25 -31.140625 L 17.25 -11.28125 L 38.796875 -11.28125 C 40.285156 -11.21875 41.304688 -10.921875 41.859375 -10.390625 C 42.421875 -9.867188 42.703125 -9.078125 42.703125 -8.015625 C 42.703125 -4.972656 42.421875 -2.875 41.859375 -1.71875 C 41.304688 -0.570312 40.191406 0 38.515625 0 L 5.6875 0 L 4.203125 -1.484375 L 4.203125 -70.125 L 37.296875 -70.125 C 39.972656 -70.0625 41.3125 -69.066406 41.3125 -67.140625 C 41.25 -65.460938 41.15625 -64.140625 41.03125 -63.171875 C 40.90625 -62.210938 40.515625 -61.265625 39.859375 -60.328125 C 39.210938 -59.398438 38.265625 -58.9375 37.015625 -58.9375 L 16.21875 -58.9375 L 17.25 -42.421875 Z M 35.25 -42.421875 "/></g></g></g><g fill="#ffffff" fill-opacity="1"><g transform="translate(529.864305, 209.214197)"><g><path d="M 4.46875 -6.8125 C 3.164062 -8.425781 2.515625 -9.648438 2.515625 -10.484375 C 2.515625 -11.328125 3.242188 -12.476562 4.703125 -13.9375 C 6.171875 -15.394531 7.132812 -16.1875 7.59375 -16.3125 C 8.0625 -16.4375 8.515625 -16.5 8.953125 -16.5 C 9.390625 -16.5 10.101562 -16.222656 11.09375 -15.671875 C 15.695312 -12.054688 19.738281 -10.25 23.21875 -10.25 C 26.695312 -10.25 28.960938 -11.054688 30.015625 -12.671875 C 31.078125 -14.296875 31.609375 -16.410156 31.609375 -19.015625 C 31.609375 -21.628906 30.675781 -23.742188 28.8125 -25.359375 C 26.945312 -26.972656 23.882812 -28.929688 19.625 -31.234375 C 15.363281 -33.535156 11.648438 -36.519531 8.484375 -40.1875 C 5.316406 -43.851562 3.734375 -47.644531 3.734375 -51.5625 C 3.734375 -58.53125 5.550781 -63.613281 9.1875 -66.8125 C 12.820312 -70.007812 18.148438 -71.609375 25.171875 -71.609375 C 29.460938 -71.609375 33.660156 -70.582031 37.765625 -68.53125 C 39.941406 -67.664062 40.96875 -66.765625 40.84375 -65.828125 C 40.78125 -65.460938 40.71875 -64.90625 40.65625 -64.15625 C 39.476562 -60.800781 38.578125 -58.875 37.953125 -58.375 C 37.765625 -58.25 37.34375 -58.1875 36.6875 -58.1875 C 36.039062 -58.1875 34.316406 -58.695312 31.515625 -59.71875 C 28.722656 -60.75 26.347656 -61.265625 24.390625 -61.265625 C 22.429688 -61.265625 20.796875 -60.578125 19.484375 -59.203125 C 18.179688 -57.835938 17.53125 -55.910156 17.53125 -53.421875 C 17.53125 -50.941406 18.648438 -48.691406 20.890625 -46.671875 C 23.128906 -44.648438 26.578125 -42.550781 31.234375 -40.375 C 36.148438 -37.820312 39.832031 -35.175781 42.28125 -32.4375 C 44.738281 -29.707031 45.96875 -26.046875 45.96875 -21.453125 C 45.96875 -6.160156 39.503906 1.484375 26.578125 1.484375 C 16.941406 1.484375 9.570312 -1.28125 4.46875 -6.8125 Z M 4.46875 -6.8125 "/></g></g></g><g fill="#ffffff" fill-opacity="1"><g transform="translate(578.537713, 209.214197)"><g><path d="M 3.453125 -34.59375 C 3.453125 -44.476562 4.226562 -52.0625 5.78125 -57.34375 C 7.332031 -62.632812 9.800781 -66.332031 13.1875 -68.4375 C 16.582031 -70.550781 21.476562 -71.609375 27.875 -71.609375 C 34.28125 -71.609375 39.175781 -70.550781 42.5625 -68.4375 C 45.957031 -66.332031 48.414062 -62.648438 49.9375 -57.390625 C 51.457031 -52.140625 52.21875 -44.539062 52.21875 -34.59375 C 52.21875 -20.976562 50.476562 -11.5625 47 -6.34375 C 43.519531 -1.125 37.144531 1.484375 27.875 1.484375 C 18.613281 1.484375 12.226562 -1.125 8.71875 -6.34375 C 5.207031 -11.5625 3.453125 -20.976562 3.453125 -34.59375 Z M 19.015625 -51.984375 C 18.648438 -49.648438 18.4375 -47.285156 18.375 -44.890625 C 18.3125 -42.503906 18.28125 -38.453125 18.28125 -32.734375 C 18.28125 -27.015625 18.460938 -22.226562 18.828125 -18.375 C 19.203125 -14.519531 19.703125 -11.984375 20.328125 -10.765625 C 20.953125 -9.554688 21.789062 -8.953125 22.84375 -8.953125 C 28.3125 -8.953125 31.882812 -9.507812 33.5625 -10.625 C 34.1875 -11.0625 34.796875 -11.773438 35.390625 -12.765625 C 35.984375 -13.765625 36.398438 -14.789062 36.640625 -15.84375 C 36.890625 -16.90625 37.109375 -18.460938 37.296875 -20.515625 C 37.546875 -23.191406 37.671875 -27.992188 37.671875 -34.921875 C 37.671875 -41.847656 37.5 -47.316406 37.15625 -51.328125 C 36.8125 -55.335938 36.3125 -58.070312 35.65625 -59.53125 C 35.007812 -61 34.160156 -61.734375 33.109375 -61.734375 C 30.617188 -61.734375 28.609375 -61.625 27.078125 -61.40625 C 25.554688 -61.1875 24.207031 -60.65625 23.03125 -59.8125 C 21.851562 -58.976562 20.984375 -58.046875 20.421875 -57.015625 C 19.859375 -55.992188 19.390625 -54.316406 19.015625 -51.984375 Z M 19.015625 -51.984375 "/></g></g></g><g fill="#ffffff" fill-opacity="1"><g transform="translate(634.204471, 209.214197)"><g/></g></g><g fill="#ffffff" fill-opacity="1"><g transform="translate(659.007431, 209.214197)"><g><path d="M 35.25 -42.421875 C 37.738281 -42.421875 38.984375 -41.304688 38.984375 -39.078125 C 38.984375 -36.023438 38.796875 -33.9375 38.421875 -32.8125 C 38.046875 -31.695312 37.082031 -31.140625 35.53125 -31.140625 L 17.25 -31.140625 L 17.25 -11.28125 L 38.796875 -11.28125 C 40.285156 -11.21875 41.304688 -10.921875 41.859375 -10.390625 C 42.421875 -9.867188 42.703125 -9.078125 42.703125 -8.015625 C 42.703125 -4.972656 42.421875 -2.875 41.859375 -1.71875 C 41.304688 -0.570312 40.191406 0 38.515625 0 L 5.6875 0 L 4.203125 -1.484375 L 4.203125 -70.125 L 37.296875 -70.125 C 39.972656 -70.0625 41.3125 -69.066406 41.3125 -67.140625 C 41.25 -65.460938 41.15625 -64.140625 41.03125 -63.171875 C 40.90625 -62.210938 40.515625 -61.265625 39.859375 -60.328125 C 39.210938 -59.398438 38.265625 -58.9375 37.015625 -58.9375 L 16.21875 -58.9375 L 17.25 -42.421875 Z M 35.25 -42.421875 "/></g></g></g><g fill="#ffffff" fill-opacity="1"><g transform="translate(704.044336, 209.214197)"><g><path d="M 4.203125 -2.234375 L 4.203125 -68.171875 C 4.203125 -70.460938 6.4375 -71.609375 10.90625 -71.609375 C 11.84375 -71.609375 12.570312 -71.578125 13.09375 -71.515625 C 13.625 -71.453125 14.289062 -71.15625 15.09375 -70.625 C 15.90625 -70.101562 16.625 -69.347656 17.25 -68.359375 L 33.9375 -29.1875 L 33.390625 -68.265625 C 33.390625 -70.492188 35.625 -71.609375 40.09375 -71.609375 C 41.957031 -71.609375 43.234375 -71.390625 43.921875 -70.953125 C 44.609375 -70.523438 44.984375 -69.628906 45.046875 -68.265625 L 46.53125 -40.1875 L 46.53125 -1.953125 C 46.53125 -0.898438 46.5 -0.1875 46.4375 0.1875 C 46.1875 1.050781 44.972656 1.484375 42.796875 1.484375 C 38.753906 1.484375 36.332031 0.335938 35.53125 -1.953125 L 17.15625 -40.65625 L 17.25 -2.046875 C 17.25 -0.929688 17.21875 -0.1875 17.15625 0.1875 C 16.90625 1.050781 15.691406 1.484375 13.515625 1.484375 C 7.304688 1.484375 4.203125 0.242188 4.203125 -2.234375 Z M 4.203125 -2.234375 "/></g></g></g><g fill="#000000" fill-opacity="1"><g transform="translate(754.668294, 209.214197)"><g/></g></g><g fill="#fffc00" fill-opacity="1"><g transform="translate(779.466592, 209.214197)"><g><path d="M 37.109375 0 L 5.5 0 L 4.015625 -1.484375 L 4.015625 -11.5625 L 14.640625 -11.5625 L 14.640625 -54.921875 L 6.34375 -53.25 L 3.078125 -64.34375 L 24.984375 -70.125 L 26.484375 -68.625 L 27.96875 -40.28125 L 28.0625 -11.5625 L 35.625 -11.5625 L 37.109375 -10.078125 Z M 37.109375 0 "/></g></g></g><g fill="#fffc00" fill-opacity="1"><g transform="translate(818.815614, 209.214197)"><g><path d="M 5.6875 -70.125 L 38.984375 -70.125 L 40.375 -68.625 L 40.375 -58.65625 L 34.03125 -40.28125 L 16.6875 0 L 4.84375 0 L 3.359375 -1.484375 L 27.78125 -58.5625 L 7.1875 -58.5625 L 5.6875 -60.046875 Z M 5.6875 -70.125 "/></g></g></g><g fill="#fffc00" fill-opacity="1"><g transform="translate(860.495745, 209.214197)"><g/></g></g><g fill="#fffc00" fill-opacity="1"><g transform="translate(885.298681, 209.214197)"><g><path d="M 24.625 -71.609375 C 31.394531 -71.609375 36.519531 -70.644531 40 -68.71875 C 43.476562 -66.789062 45.992188 -63.296875 47.546875 -58.234375 C 49.109375 -53.171875 49.890625 -45.664062 49.890625 -35.71875 C 49.890625 -21.914062 48.085938 -12.265625 44.484375 -6.765625 C 40.878906 -1.265625 34.257812 1.484375 24.625 1.484375 C 22.257812 1.484375 15.453125 0.988281 4.203125 0 L 4.203125 -70.03125 C 13.648438 -71.082031 20.457031 -71.609375 24.625 -71.609375 Z M 29.5625 -60.515625 C 24.15625 -60.515625 20.765625 -60.40625 19.390625 -60.1875 C 18.023438 -59.96875 17.34375 -59.363281 17.34375 -58.375 L 17.34375 -11.5625 C 17.34375 -10.875 17.757812 -10.46875 18.59375 -10.34375 C 19.4375 -10.226562 21.148438 -10.171875 23.734375 -10.171875 C 26.316406 -10.171875 28.132812 -10.304688 29.1875 -10.578125 C 30.238281 -10.859375 31.21875 -11.351562 32.125 -12.0625 C 33.03125 -12.78125 33.632812 -14.164062 33.9375 -16.21875 C 34.5625 -20.195312 34.875 -26.351562 34.875 -34.6875 C 34.875 -51.90625 33.101562 -60.515625 29.5625 -60.515625 Z M 29.5625 -60.515625 "/></g></g></g><g fill="#fffc00" fill-opacity="1"><g transform="translate(938.541079, 209.214197)"><g><path d="M 14.546875 -73.859375 L 10.25 -75.8125 L 10.171875 -80.9375 L 15.484375 -92.5 L 19.390625 -95.484375 L 29.46875 -89.890625 Z M 3.453125 -11.28125 L 6.8125 -11.28125 L 6.8125 -58.9375 L 4.015625 -58.9375 C 2.765625 -59 1.921875 -59.398438 1.484375 -60.140625 C 1.054688 -61.015625 0.84375 -62.601562 0.84375 -64.90625 C 0.84375 -68.382812 1.867188 -70.125 3.921875 -70.125 L 20.421875 -70.125 C 23.160156 -70.125 24.53125 -69.160156 24.53125 -67.234375 C 24.53125 -61.703125 23.441406 -58.9375 21.265625 -58.9375 L 18.9375 -58.9375 L 19.859375 -40.28125 L 19.953125 -11.28125 L 22.75 -11.28125 C 24.925781 -11.21875 26.015625 -10.222656 26.015625 -8.296875 C 25.890625 -2.765625 24.367188 0 21.453125 0 L 3.828125 0 C 2.703125 -0.0625 1.921875 -0.46875 1.484375 -1.21875 C 1.054688 -2.082031 0.84375 -3.695312 0.84375 -6.0625 C 0.84375 -9.539062 1.710938 -11.28125 3.453125 -11.28125 Z M 3.453125 -11.28125 "/></g></g></g><g fill="#fffc00" fill-opacity="1"><g transform="translate(969.777858, 209.214197)"><g><path d="M 27.78125 -71.703125 C 32.070312 -71.703125 34.40625 -70.738281 34.78125 -68.8125 L 41.125 -40.1875 L 47.5625 -2.046875 C 47.6875 -1.429688 47.75 -0.859375 47.75 -0.328125 C 47.75 0.203125 47.59375 0.632812 47.28125 0.96875 C 46.96875 1.3125 45.910156 1.484375 44.109375 1.484375 C 38.578125 1.484375 35.625 0.304688 35.25 -2.046875 L 31.984375 -21.265625 L 18.9375 -21.265625 L 16.03125 -1.953125 C 15.851562 -0.648438 15.625 0.21875 15.34375 0.65625 C 15.0625 1.09375 14.671875 1.335938 14.171875 1.390625 C 13.671875 1.453125 12.863281 1.484375 11.75 1.484375 L 9.140625 1.484375 C 6.960938 1.484375 5.59375 1.363281 5.03125 1.125 C 3.664062 0.625 2.890625 0.0625 2.703125 -0.5625 C 2.640625 -0.875 2.609375 -1.148438 2.609375 -1.390625 C 2.609375 -1.640625 3.257812 -5.742188 4.5625 -13.703125 C 5.875 -21.660156 7.476562 -31.140625 9.375 -42.140625 C 11.269531 -53.148438 12.507812 -60.363281 13.09375 -63.78125 C 13.6875 -67.195312 14.015625 -69.125 14.078125 -69.5625 C 14.328125 -70.988281 18.894531 -71.703125 27.78125 -71.703125 Z M 24.984375 -59.5 L 20.703125 -32.546875 L 29.9375 -32.546875 Z M 24.984375 -59.5 "/></g></g></g><g fill="#fffc00" fill-opacity="1"><g transform="translate(1020.036438, 209.214197)"><g><path d="M 4.46875 -6.8125 C 3.164062 -8.425781 2.515625 -9.648438 2.515625 -10.484375 C 2.515625 -11.328125 3.242188 -12.476562 4.703125 -13.9375 C 6.171875 -15.394531 7.132812 -16.1875 7.59375 -16.3125 C 8.0625 -16.4375 8.515625 -16.5 8.953125 -16.5 C 9.390625 -16.5 10.101562 -16.222656 11.09375 -15.671875 C 15.695312 -12.054688 19.738281 -10.25 23.21875 -10.25 C 26.695312 -10.25 28.960938 -11.054688 30.015625 -12.671875 C 31.078125 -14.296875 31.609375 -16.410156 31.609375 -19.015625 C 31.609375 -21.628906 30.675781 -23.742188 28.8125 -25.359375 C 26.945312 -26.972656 23.882812 -28.929688 19.625 -31.234375 C 15.363281 -33.535156 11.648438 -36.519531 8.484375 -40.1875 C 5.316406 -43.851562 3.734375 -47.644531 3.734375 -51.5625 C 3.734375 -58.53125 5.550781 -63.613281 9.1875 -66.8125 C 12.820312 -70.007812 18.148438 -71.609375 25.171875 -71.609375 C 29.460938 -71.609375 33.660156 -70.582031 37.765625 -68.53125 C 39.941406 -67.664062 40.96875 -66.765625 40.84375 -65.828125 C 40.78125 -65.460938 40.71875 -64.90625 40.65625 -64.15625 C 39.476562 -60.800781 38.578125 -58.875 37.953125 -58.375 C 37.765625 -58.25 37.34375 -58.1875 36.6875 -58.1875 C 36.039062 -58.1875 34.316406 -58.695312 31.515625 -59.71875 C 28.722656 -60.75 26.347656 -61.265625 24.390625 -61.265625 C 22.429688 -61.265625 20.796875 -60.578125 19.484375 -59.203125 C 18.179688 -57.835938 17.53125 -55.910156 17.53125 -53.421875 C 17.53125 -50.941406 18.648438 -48.691406 20.890625 -46.671875 C 23.128906 -44.648438 26.578125 -42.550781 31.234375 -40.375 C 36.148438 -37.820312 39.832031 -35.175781 42.28125 -32.4375 C 44.738281 -29.707031 45.96875 -26.046875 45.96875 -21.453125 C 45.96875 -6.160156 39.503906 1.484375 26.578125 1.484375 C 16.941406 1.484375 9.570312 -1.28125 4.46875 -6.8125 Z M 4.46875 -6.8125 "/></g></g></g><g clip-path="url(#id1)"><path fill="#ffffff" d="M 1222.511719 158.355469 C 1222.3125 157.261719 1222.070312 156.164062 1221.773438 155.046875 C 1221.476562 153.933594 1221.105469 152.816406 1220.703125 151.757812 C 1220.300781 150.695312 1219.878906 149.683594 1219.457031 148.695312 L 1218.210938 145.738281 C 1217.382812 143.777344 1216.574219 141.808594 1215.785156 139.832031 L 1213.382812 133.859375 L 1208.527344 121.960938 C 1206.921875 118.003906 1205.359375 114.042969 1203.902344 110.066406 C 1202.457031 106.089844 1201.140625 102.085938 1200.101562 98.039062 C 1200.035156 97.773438 1199.96875 97.511719 1199.902344 97.246094 C 1200.691406 97.304688 1201.484375 97.359375 1202.273438 97.414062 C 1203.980469 97.523438 1205.691406 97.632812 1207.402344 97.691406 C 1205.71875 97.371094 1204.03125 97.09375 1202.339844 96.824219 C 1201.464844 96.683594 1200.585938 96.550781 1199.707031 96.417969 C 1199.363281 94.929688 1199.066406 93.433594 1198.816406 91.9375 C 1198.476562 89.894531 1198.242188 87.839844 1198.136719 85.78125 C 1198.085938 84.753906 1198.066406 83.722656 1198.078125 82.691406 L 1198.078125 82.308594 L 1198.089844 81.921875 L 1198.117188 81.152344 L 1198.132812 80.765625 L 1198.15625 80.371094 L 1198.207031 79.585938 C 1198.351562 77.492188 1198.570312 75.402344 1198.851562 73.316406 C 1199.136719 71.230469 1199.511719 69.15625 1199.941406 67.09375 C 1200.375 65.027344 1200.886719 62.976562 1201.46875 60.941406 C 1202.621094 56.871094 1204.066406 52.871094 1205.757812 48.964844 C 1207.460938 45.058594 1209.425781 41.253906 1211.609375 37.554688 C 1208.957031 40.933594 1206.582031 44.550781 1204.488281 48.332031 C 1202.394531 52.117188 1200.589844 56.078125 1199.089844 60.164062 C 1198.339844 62.207031 1197.671875 64.285156 1197.078125 66.382812 C 1196.480469 68.480469 1195.980469 70.609375 1195.546875 72.753906 C 1195.117188 74.898438 1194.785156 77.0625 1194.523438 79.238281 L 1194.429688 80.054688 L 1194.382812 80.464844 L 1194.34375 80.878906 L 1194.238281 82.132812 L 1194.214844 82.550781 C 1194.144531 83.664062 1194.117188 84.78125 1194.128906 85.894531 C 1194.148438 88.125 1194.308594 90.347656 1194.582031 92.550781 C 1194.714844 93.628906 1194.878906 94.699219 1195.066406 95.761719 C 1194.105469 95.632812 1193.144531 95.507812 1192.183594 95.382812 L 1189.636719 95.066406 C 1188.789062 94.964844 1187.9375 94.863281 1187.089844 94.765625 L 1186.40625 94.691406 L 1186.382812 95.378906 L 1186.316406 97.371094 L 1186.277344 98.769531 L 1184.429688 98.828125 L 1182.273438 98.910156 C 1182.269531 98.898438 1182.265625 98.882812 1182.265625 98.871094 C 1182.027344 97.886719 1181.738281 96.914062 1181.367188 95.976562 C 1180.996094 95.035156 1180.574219 94.121094 1180.082031 93.242188 C 1179.589844 92.367188 1179.050781 91.519531 1178.449219 90.722656 C 1178.148438 90.324219 1177.835938 89.933594 1177.507812 89.554688 C 1177.175781 89.183594 1176.839844 88.816406 1176.480469 88.476562 C 1177.695312 90.042969 1178.71875 91.742188 1179.527344 93.527344 C 1179.9375 94.414062 1180.289062 95.328125 1180.582031 96.253906 C 1180.855469 97.144531 1181.09375 98.039062 1181.269531 98.949219 C 1179.875 99.007812 1178.484375 99.070312 1177.097656 99.148438 C 1175.46875 99.230469 1173.835938 99.328125 1172.207031 99.445312 C 1170.582031 99.558594 1168.953125 99.679688 1167.324219 99.839844 C 1168.957031 99.925781 1170.589844 99.972656 1172.222656 100.011719 C 1173.855469 100.050781 1175.484375 100.074219 1177.117188 100.082031 C 1178.5625 100.089844 1180.007812 100.089844 1181.453125 100.082031 C 1181.941406 103.582031 1181.582031 107.171875 1180.492188 110.519531 C 1180.359375 110.9375 1180.214844 111.351562 1180.0625 111.757812 C 1179.984375 111.683594 1179.90625 111.609375 1179.828125 111.539062 C 1179.425781 111.152344 1179.019531 110.765625 1178.613281 110.386719 C 1178.207031 110.007812 1177.800781 109.625 1177.390625 109.25 L 1176.882812 108.785156 L 1176.460938 109.332031 C 1176.195312 109.671875 1175.925781 110.011719 1175.660156 110.355469 L 1175.230469 110.914062 L 1174.410156 110.363281 L 1173.078125 109.480469 C 1172.1875 108.902344 1171.292969 108.324219 1170.390625 107.761719 C 1169.488281 107.195312 1168.582031 106.640625 1167.664062 106.097656 C 1167.207031 105.824219 1166.746094 105.554688 1166.28125 105.296875 C 1165.816406 105.027344 1165.351562 104.769531 1164.878906 104.519531 C 1165.28125 104.871094 1165.691406 105.214844 1166.101562 105.554688 C 1166.511719 105.898438 1166.925781 106.234375 1167.339844 106.566406 C 1168.171875 107.234375 1169.011719 107.886719 1169.859375 108.53125 C 1170.707031 109.175781 1171.5625 109.808594 1172.421875 110.4375 L 1173.710938 111.371094 L 1175.011719 112.296875 L 1175.5 112.640625 L 1175.871094 112.160156 L 1176.671875 111.136719 C 1176.796875 110.976562 1176.921875 110.816406 1177.046875 110.652344 C 1177.289062 110.871094 1177.535156 111.089844 1177.777344 111.304688 C 1178.191406 111.679688 1178.613281 112.046875 1179.03125 112.414062 C 1179.21875 112.578125 1179.40625 112.738281 1179.59375 112.902344 C 1179.546875 113.007812 1179.5 113.117188 1179.449219 113.222656 C 1179.054688 114.105469 1178.605469 114.964844 1178.121094 115.800781 C 1177.144531 117.476562 1175.980469 119.042969 1174.695312 120.503906 C 1172.097656 123.40625 1168.929688 125.8125 1165.398438 127.621094 C 1169.144531 126.300781 1172.597656 124.0625 1175.421875 121.1875 C 1177.542969 119.039062 1179.316406 116.519531 1180.597656 113.761719 C 1180.921875 114.035156 1181.246094 114.3125 1181.574219 114.585938 C 1182.429688 115.300781 1183.292969 116.007812 1184.167969 116.703125 C 1184.605469 117.050781 1185.042969 117.394531 1185.492188 117.734375 C 1185.9375 118.074219 1186.382812 118.410156 1186.835938 118.738281 C 1186.46875 118.3125 1186.09375 117.898438 1185.714844 117.488281 C 1185.335938 117.070312 1184.953125 116.667969 1184.570312 116.261719 C 1183.796875 115.453125 1183.015625 114.65625 1182.226562 113.871094 C 1181.835938 113.484375 1181.445312 113.101562 1181.050781 112.714844 C 1181.292969 112.125 1181.515625 111.523438 1181.710938 110.914062 C 1182.019531 109.945312 1182.273438 108.957031 1182.460938 107.957031 C 1182.644531 106.957031 1182.761719 105.941406 1182.816406 104.925781 C 1182.902344 103.304688 1182.800781 101.671875 1182.515625 100.074219 L 1184.460938 100.058594 L 1186.90625 100.019531 L 1187.5 100.011719 L 1187.523438 99.40625 L 1187.59375 97.414062 L 1187.632812 96.105469 C 1188.253906 96.175781 1188.875 96.242188 1189.496094 96.304688 L 1192.050781 96.5625 C 1193.121094 96.667969 1194.195312 96.765625 1195.269531 96.859375 C 1195.410156 97.605469 1195.5625 98.34375 1195.722656 99.078125 C 1196.664062 103.382812 1197.949219 107.566406 1199.335938 111.679688 C 1200.730469 115.792969 1202.269531 119.832031 1203.839844 123.839844 C 1204.625 125.84375 1205.429688 127.835938 1206.226562 129.828125 L 1208.640625 135.792969 L 1208.84375 136.289062 C 1201.683594 137.652344 1183.441406 148.695312 1167.789062 152.738281 C 1135.585938 161.050781 1101.066406 143.179688 1096.816406 140.699219 C 1096.992188 140 1097.171875 139.304688 1097.351562 138.613281 C 1097.472656 138.140625 1097.589844 137.667969 1097.71875 137.203125 L 1098.101562 135.800781 L 1098.488281 134.398438 L 1098.890625 133 C 1099.027344 132.535156 1099.15625 132.070312 1099.296875 131.605469 L 1099.722656 130.214844 C 1100.851562 126.511719 1102.101562 122.847656 1103.480469 119.230469 C 1104.84375 115.601562 1106.363281 112.03125 1107.871094 108.378906 C 1108.625 106.550781 1109.375 104.699219 1110.058594 102.789062 C 1110.753906 100.878906 1111.355469 98.902344 1111.8125 96.871094 C 1112.054688 95.8125 1112.25 94.734375 1112.398438 93.65625 C 1113.761719 94.128906 1115.125 94.589844 1116.492188 95.042969 C 1118.117188 95.578125 1119.742188 96.105469 1121.371094 96.621094 L 1123.820312 97.382812 C 1124.636719 97.636719 1125.453125 97.890625 1126.273438 98.136719 L 1126.929688 98.335938 L 1127.078125 97.660156 L 1127.496094 95.710938 L 1127.785156 94.339844 L 1129.613281 94.613281 L 1132.035156 94.960938 C 1133.648438 95.1875 1135.265625 95.40625 1136.886719 95.613281 C 1138.503906 95.816406 1140.125 96.015625 1141.746094 96.191406 C 1143.371094 96.371094 1144.996094 96.539062 1146.625 96.671875 C 1145.035156 96.296875 1143.433594 95.957031 1141.835938 95.628906 C 1140.234375 95.300781 1138.632812 94.988281 1137.03125 94.6875 C 1135.425781 94.382812 1133.820312 94.097656 1132.214844 93.816406 L 1132.074219 93.789062 C 1132.132812 93.660156 1132.195312 93.53125 1132.257812 93.402344 C 1132.480469 92.953125 1132.714844 92.507812 1132.957031 92.070312 C 1133.203125 91.636719 1133.457031 91.207031 1133.722656 90.785156 C 1133.992188 90.367188 1134.265625 89.949219 1134.558594 89.546875 C 1135.132812 88.738281 1135.746094 87.957031 1136.410156 87.226562 C 1137.078125 86.492188 1137.769531 85.792969 1138.511719 85.148438 C 1138.761719 84.929688 1139.015625 84.71875 1139.273438 84.511719 C 1139.839844 85.179688 1140.410156 85.847656 1140.988281 86.507812 C 1142.058594 87.742188 1143.140625 88.96875 1144.246094 90.175781 C 1143.332031 88.816406 1142.382812 87.484375 1141.433594 86.15625 C 1140.921875 85.445312 1140.410156 84.738281 1139.894531 84.035156 C 1140.992188 83.214844 1142.164062 82.5 1143.386719 81.890625 C 1144.257812 81.449219 1145.160156 81.074219 1146.085938 80.757812 C 1147.007812 80.433594 1147.949219 80.167969 1148.90625 79.960938 C 1149.5625 79.820312 1150.222656 79.707031 1150.890625 79.621094 C 1150.886719 79.679688 1150.882812 79.734375 1150.878906 79.789062 C 1150.847656 80.347656 1150.816406 80.902344 1150.789062 81.460938 L 1150.757812 82.148438 L 1151.449219 82.125 C 1151.878906 82.113281 1152.3125 82.101562 1152.742188 82.082031 L 1153.449219 82.054688 L 1153.550781 83.042969 L 1153.726562 84.632812 C 1153.855469 85.6875 1153.984375 86.746094 1154.128906 87.800781 C 1154.273438 88.855469 1154.429688 89.910156 1154.597656 90.964844 C 1154.683594 91.492188 1154.773438 92.019531 1154.867188 92.542969 C 1154.960938 93.070312 1155.0625 93.59375 1155.171875 94.121094 C 1155.183594 93.582031 1155.1875 93.050781 1155.183594 92.515625 C 1155.183594 91.980469 1155.175781 91.449219 1155.167969 90.914062 C 1155.144531 89.847656 1155.109375 88.78125 1155.058594 87.71875 C 1155.011719 86.652344 1154.949219 85.589844 1154.882812 84.527344 L 1154.773438 82.933594 L 1154.648438 81.339844 L 1154.601562 80.746094 L 1153.996094 80.765625 L 1152.699219 80.804688 C 1152.496094 80.808594 1152.292969 80.816406 1152.089844 80.824219 C 1152.097656 80.5 1152.109375 80.171875 1152.121094 79.84375 C 1152.125 79.726562 1152.128906 79.609375 1152.132812 79.488281 C 1152.996094 79.417969 1153.867188 79.390625 1154.738281 79.40625 C 1156.699219 79.449219 1158.65625 79.703125 1160.578125 80.152344 C 1163.011719 80.730469 1165.375 81.632812 1167.613281 82.8125 L 1167.429688 83.085938 C 1166.523438 84.445312 1165.621094 85.804688 1164.734375 87.175781 C 1163.839844 88.546875 1162.960938 89.921875 1162.09375 91.308594 C 1161.226562 92.695312 1160.367188 94.085938 1159.535156 95.5 C 1160.566406 94.226562 1161.566406 92.929688 1162.558594 91.632812 C 1163.550781 90.335938 1164.53125 89.023438 1165.5 87.710938 C 1166.46875 86.394531 1167.429688 85.070312 1168.382812 83.746094 L 1168.640625 83.382812 C 1169.566406 83.917969 1170.472656 84.496094 1171.347656 85.121094 C 1170.566406 84.390625 1169.734375 83.707031 1168.859375 83.078125 L 1169.804688 81.75 L 1171.214844 79.75 L 1171.558594 79.261719 L 1171.082031 78.886719 L 1169.519531 77.65625 L 1168.488281 76.855469 C 1168.910156 76.390625 1169.328125 75.925781 1169.746094 75.460938 L 1171.457031 73.546875 C 1172.59375 72.269531 1173.71875 70.980469 1174.839844 69.683594 C 1175.957031 68.390625 1177.070312 67.085938 1178.167969 65.769531 C 1179.261719 64.453125 1180.351562 63.132812 1181.414062 61.78125 C 1180.160156 62.957031 1178.945312 64.164062 1177.730469 65.371094 C 1176.515625 66.582031 1175.320312 67.800781 1174.128906 69.03125 C 1172.9375 70.261719 1171.757812 71.5 1170.582031 72.746094 L 1168.832031 74.621094 C 1168.246094 75.246094 1167.664062 75.875 1167.085938 76.503906 L 1166.621094 77.011719 L 1167.164062 77.4375 L 1168.734375 78.664062 L 1169.835938 79.523438 L 1168.796875 81.050781 L 1167.882812 82.40625 C 1165.722656 80.996094 1163.335938 79.902344 1160.832031 79.183594 C 1160.585938 79.113281 1160.335938 79.042969 1160.089844 78.980469 L 1159.34375 78.796875 C 1158.84375 78.6875 1158.34375 78.585938 1157.835938 78.507812 C 1156.824219 78.339844 1155.800781 78.238281 1154.773438 78.191406 C 1153.90625 78.15625 1153.03125 78.167969 1152.164062 78.222656 C 1152.164062 78.207031 1152.164062 78.1875 1152.164062 78.171875 C 1152.191406 77.054688 1152.203125 75.941406 1152.203125 74.824219 C 1152.207031 73.707031 1152.191406 72.589844 1152.167969 71.472656 C 1152.152344 70.914062 1152.136719 70.351562 1152.109375 69.792969 C 1152.089844 69.234375 1152.058594 68.675781 1152.019531 68.113281 C 1151.929688 68.667969 1151.851562 69.222656 1151.777344 69.777344 C 1151.703125 70.335938 1151.636719 70.890625 1151.574219 71.445312 C 1151.449219 72.558594 1151.335938 73.667969 1151.238281 74.78125 C 1151.144531 75.894531 1151.058594 77.003906 1150.984375 78.117188 C 1150.980469 78.1875 1150.972656 78.261719 1150.96875 78.332031 C 1150.1875 78.421875 1149.40625 78.542969 1148.636719 78.710938 C 1146.625 79.152344 1144.660156 79.84375 1142.835938 80.808594 C 1141.570312 81.476562 1140.363281 82.265625 1139.253906 83.160156 C 1139.015625 82.839844 1138.777344 82.519531 1138.539062 82.199219 C 1137.566406 80.886719 1136.582031 79.582031 1135.589844 78.285156 L 1134.097656 76.339844 L 1132.59375 74.40625 L 1132.230469 73.933594 L 1131.734375 74.28125 L 1130.105469 75.425781 L 1129.039062 76.179688 C 1128.71875 75.644531 1128.398438 75.105469 1128.074219 74.570312 L 1126.742188 72.375 C 1125.851562 70.914062 1124.949219 69.457031 1124.035156 68.007812 C 1123.125 66.558594 1122.199219 65.117188 1121.261719 63.683594 C 1120.324219 62.25 1119.378906 60.820312 1118.394531 59.414062 C 1119.152344 60.953125 1119.953125 62.46875 1120.753906 63.984375 C 1121.558594 65.5 1122.375 67.003906 1123.207031 68.5 C 1124.035156 70 1124.875 71.492188 1125.726562 72.976562 L 1127.003906 75.203125 C 1127.433594 75.945312 1127.863281 76.683594 1128.300781 77.421875 L 1128.648438 78.015625 L 1129.210938 77.617188 L 1130.839844 76.472656 L 1131.980469 75.660156 L 1133.136719 77.101562 L 1134.683594 79.003906 C 1135.71875 80.265625 1136.757812 81.527344 1137.808594 82.777344 C 1138.070312 83.089844 1138.332031 83.402344 1138.597656 83.714844 C 1138.339844 83.941406 1138.085938 84.175781 1137.839844 84.414062 C 1137.101562 85.128906 1136.40625 85.882812 1135.773438 86.6875 C 1135.140625 87.492188 1134.5625 88.332031 1134.035156 89.207031 C 1133.515625 90.082031 1133.042969 90.984375 1132.640625 91.914062 C 1132.441406 92.382812 1132.253906 92.851562 1132.082031 93.328125 C 1132.03125 93.472656 1131.980469 93.621094 1131.933594 93.765625 L 1129.800781 93.398438 L 1127.386719 93 L 1126.800781 92.902344 L 1126.671875 93.492188 L 1126.25 95.441406 L 1125.976562 96.71875 C 1125.375 96.542969 1124.777344 96.367188 1124.175781 96.191406 L 1121.710938 95.484375 C 1120.066406 95.015625 1118.417969 94.5625 1116.769531 94.113281 C 1115.34375 93.730469 1113.917969 93.355469 1112.484375 92.996094 C 1112.578125 92.226562 1112.644531 91.457031 1112.6875 90.6875 C 1112.800781 88.609375 1112.742188 86.542969 1112.570312 84.503906 C 1112.5 83.480469 1112.371094 82.492188 1112.25 81.492188 C 1112.109375 80.496094 1111.976562 79.5 1111.804688 78.511719 C 1111.472656 76.527344 1111.09375 74.554688 1110.609375 72.609375 C 1110.136719 70.664062 1109.609375 68.730469 1109 66.824219 C 1108.394531 64.917969 1107.722656 63.035156 1106.984375 61.183594 C 1105.503906 57.476562 1103.773438 53.882812 1101.796875 50.445312 C 1099.820312 47.007812 1097.613281 43.714844 1095.160156 40.628906 C 1097.144531 44.035156 1098.945312 47.519531 1100.535156 51.089844 C 1102.113281 54.660156 1103.488281 58.308594 1104.625 62.015625 C 1105.773438 65.722656 1106.664062 69.496094 1107.332031 73.292969 C 1107.664062 75.191406 1107.929688 77.101562 1108.140625 79.015625 C 1108.25 79.972656 1108.324219 80.929688 1108.40625 81.890625 L 1108.5 83.328125 C 1108.539062 83.8125 1108.550781 84.28125 1108.570312 84.753906 C 1108.640625 86.640625 1108.605469 88.515625 1108.421875 90.359375 C 1108.367188 90.890625 1108.300781 91.421875 1108.226562 91.953125 C 1107.753906 91.84375 1107.28125 91.734375 1106.804688 91.632812 C 1107.265625 91.808594 1107.730469 91.984375 1108.195312 92.15625 C 1108.011719 93.386719 1107.761719 94.601562 1107.441406 95.808594 C 1106.496094 99.382812 1104.996094 102.894531 1103.417969 106.472656 C 1101.832031 110.046875 1100.21875 113.691406 1098.769531 117.40625 C 1098.398438 118.332031 1098.054688 119.269531 1097.703125 120.203125 C 1097.527344 120.667969 1097.363281 121.140625 1097.191406 121.609375 C 1097.023438 122.078125 1096.851562 122.546875 1096.691406 123.019531 C 1096.039062 124.90625 1095.410156 126.804688 1094.832031 128.710938 L 1094.394531 130.140625 C 1094.25 130.621094 1094.121094 131.097656 1093.980469 131.578125 L 1093.570312 133.015625 L 1093.179688 134.457031 L 1092.796875 135.902344 C 1092.667969 136.382812 1092.550781 136.867188 1092.429688 137.347656 C 1092.191406 138.3125 1091.941406 139.277344 1091.722656 140.246094 L 1091.386719 141.703125 C 1091.277344 142.1875 1091.160156 142.671875 1091.0625 143.15625 L 1090.449219 146.070312 C 1090.027344 148.011719 1089.679688 149.96875 1089.328125 151.925781 C 1089.238281 152.414062 1089.144531 152.902344 1089.0625 153.394531 L 1088.832031 154.867188 L 1088.371094 157.816406 C 1088.234375 158.800781 1088.105469 159.789062 1087.980469 160.777344 L 1087.792969 162.257812 C 1087.730469 162.753906 1087.6875 163.25 1087.636719 163.746094 C 1087.1875 167.707031 1086.957031 171.703125 1086.894531 175.703125 L 1086.875 177.207031 C 1086.871094 177.707031 1086.890625 178.207031 1086.898438 178.707031 L 1086.929688 180.210938 C 1086.941406 180.710938 1086.976562 181.214844 1087 181.714844 L 1087.074219 183.214844 L 1087.195312 184.71875 C 1087.261719 185.71875 1087.386719 186.71875 1087.5 187.71875 C 1087.761719 189.710938 1088.0625 191.699219 1088.488281 193.664062 C 1088.589844 194.152344 1088.703125 194.640625 1088.8125 195.128906 C 1088.925781 195.617188 1089.050781 196.097656 1089.167969 196.585938 L 1089.347656 197.3125 C 1089.40625 197.554688 1089.476562 197.792969 1089.539062 198.035156 L 1089.933594 199.476562 C 1090.496094 201.390625 1091.09375 203.289062 1091.765625 205.160156 C 1092.449219 207.027344 1093.175781 208.878906 1093.972656 210.691406 C 1095.558594 214.324219 1097.394531 217.839844 1099.460938 221.195312 C 1097.902344 217.574219 1096.492188 213.910156 1095.308594 210.183594 C 1094.71875 208.324219 1094.167969 206.449219 1093.679688 204.566406 C 1093.195312 202.679688 1092.757812 200.785156 1092.378906 198.882812 C 1092.207031 197.925781 1092 196.976562 1091.855469 196.019531 C 1091.777344 195.539062 1091.6875 195.066406 1091.617188 194.585938 C 1091.546875 194.105469 1091.472656 193.628906 1091.410156 193.152344 C 1091.144531 191.242188 1090.96875 189.328125 1090.851562 187.40625 L 1090.78125 185.964844 C 1090.769531 185.726562 1090.757812 185.484375 1090.753906 185.246094 L 1090.703125 183.078125 L 1090.710938 181.632812 C 1090.71875 181.152344 1090.710938 180.667969 1090.726562 180.1875 L 1090.777344 178.742188 C 1090.796875 178.261719 1090.808594 177.777344 1090.832031 177.292969 L 1091.003906 174.402344 C 1091.039062 173.921875 1091.085938 173.4375 1091.125 172.957031 L 1091.253906 171.511719 L 1091.316406 170.792969 L 1091.402344 170.070312 L 1091.722656 167.183594 L 1092.113281 164.300781 C 1092.183594 163.824219 1092.242188 163.34375 1092.316406 162.863281 L 1092.550781 161.425781 L 1092.867188 159.472656 C 1095.410156 161.902344 1100.21875 163.113281 1110.210938 168.121094 C 1125.105469 175.585938 1137.769531 184.585938 1141.6875 191.195312 C 1141.894531 191.542969 1142.480469 192.570312 1143.605469 193.628906 C 1145.402344 195.324219 1147.867188 196.445312 1150.460938 196.84375 L 1151.679688 232.152344 L 1152.886719 197.003906 C 1154.3125 196.96875 1155.726562 196.707031 1157.039062 196.195312 C 1158.21875 195.734375 1159.683594 194.925781 1163.179688 190.941406 C 1168.15625 185.261719 1175.554688 174.347656 1189.15625 169.019531 C 1204.1875 163.125 1213.59375 162.121094 1217.84375 159.730469 C 1218.664062 163.632812 1219.078125 167.613281 1219.148438 171.621094 C 1219.183594 173.695312 1219.113281 175.773438 1218.964844 177.851562 C 1218.820312 179.929688 1218.585938 182.007812 1218.277344 184.082031 C 1217.964844 186.15625 1217.59375 188.226562 1217.160156 190.296875 C 1216.726562 192.359375 1216.230469 194.421875 1215.714844 196.480469 C 1215.195312 198.542969 1214.628906 200.597656 1214.058594 202.660156 L 1213.191406 205.75 C 1212.90625 206.773438 1212.601562 207.792969 1212.292969 208.8125 C 1211.683594 210.847656 1211.019531 212.875 1210.324219 214.890625 C 1209.632812 216.90625 1208.894531 218.910156 1208.128906 220.902344 C 1207.355469 222.894531 1206.550781 224.878906 1205.710938 226.847656 C 1204.875 228.820312 1203.988281 230.773438 1203.101562 232.730469 C 1204.25 230.914062 1205.347656 229.066406 1206.40625 227.191406 C 1207.457031 225.3125 1208.46875 223.410156 1209.433594 221.480469 C 1211.363281 217.625 1213.105469 213.667969 1214.671875 209.632812 C 1214.871094 209.128906 1215.058594 208.625 1215.246094 208.117188 C 1215.4375 207.609375 1215.621094 207.101562 1215.804688 206.59375 L 1216.886719 203.550781 C 1217.601562 201.519531 1218.289062 199.472656 1218.945312 197.410156 C 1219.605469 195.347656 1220.21875 193.261719 1220.773438 191.15625 C 1221.328125 189.046875 1221.832031 186.917969 1222.242188 184.765625 C 1222.65625 182.609375 1222.996094 180.4375 1223.242188 178.242188 C 1223.484375 176.050781 1223.625 173.839844 1223.660156 171.625 C 1223.746094 167.191406 1223.351562 162.730469 1222.511719 158.355469 " fill-opacity="1" fill-rule="nonzero"/></g><path fill="#ffffff" d="M 1157.746094 106.253906 C 1157.609375 106.625 1157.425781 106.980469 1157.175781 107.269531 C 1156.933594 107.554688 1156.613281 107.757812 1156.335938 107.730469 C 1156.0625 107.710938 1155.800781 107.492188 1155.582031 107.203125 C 1155.367188 106.917969 1155.179688 106.578125 1155.023438 106.222656 C 1154.699219 105.503906 1154.503906 104.699219 1154.511719 103.894531 C 1154.511719 103.089844 1154.707031 102.28125 1155.03125 101.570312 C 1155.191406 101.214844 1155.378906 100.878906 1155.601562 100.597656 C 1155.710938 100.460938 1155.835938 100.339844 1155.960938 100.257812 C 1156.089844 100.171875 1156.214844 100.132812 1156.335938 100.132812 C 1156.457031 100.140625 1156.578125 100.179688 1156.699219 100.269531 C 1156.824219 100.351562 1156.941406 100.472656 1157.050781 100.613281 C 1157.261719 100.894531 1157.425781 101.242188 1157.554688 101.597656 C 1157.6875 101.960938 1157.777344 102.339844 1157.855469 102.722656 C 1157.929688 103.105469 1157.988281 103.5 1158.015625 103.894531 C 1158.074219 104.683594 1158.007812 105.5 1157.746094 106.253906 Z M 1157.589844 100.21875 C 1157.460938 100.03125 1157.300781 99.851562 1157.097656 99.703125 C 1156.890625 99.554688 1156.621094 99.449219 1156.335938 99.449219 C 1156.050781 99.453125 1155.78125 99.5625 1155.582031 99.714844 C 1155.382812 99.867188 1155.222656 100.046875 1155.101562 100.234375 C 1154.976562 100.425781 1154.882812 100.625 1154.804688 100.824219 C 1154.726562 101.027344 1154.671875 101.234375 1154.625 101.4375 C 1154.535156 101.851562 1154.5 102.265625 1154.476562 102.675781 C 1154.457031 103.082031 1154.445312 103.488281 1154.449219 103.894531 C 1154.449219 104.300781 1154.460938 104.707031 1154.480469 105.113281 C 1154.507812 105.523438 1154.542969 105.9375 1154.632812 106.347656 C 1154.726562 106.757812 1154.867188 107.167969 1155.121094 107.539062 C 1155.25 107.722656 1155.40625 107.898438 1155.609375 108.039062 C 1155.808594 108.179688 1156.070312 108.269531 1156.335938 108.265625 C 1156.605469 108.253906 1156.847656 108.136719 1157.027344 107.988281 C 1157.210938 107.839844 1157.351562 107.660156 1157.460938 107.476562 C 1157.574219 107.289062 1157.664062 107.097656 1157.742188 106.90625 C 1157.820312 106.710938 1157.882812 106.511719 1157.941406 106.316406 C 1158.171875 105.527344 1158.304688 104.71875 1158.367188 103.894531 C 1158.390625 103.484375 1158.398438 103.066406 1158.363281 102.652344 C 1158.328125 102.234375 1158.25 101.820312 1158.128906 101.410156 C 1158.007812 101.003906 1157.847656 100.597656 1157.589844 100.21875 " fill-opacity="1" fill-rule="nonzero"/><path fill="#ffffff" d="M 1156.316406 101.265625 C 1155.832031 101.265625 1155.441406 102.414062 1155.441406 103.828125 C 1155.441406 105.246094 1155.832031 106.394531 1156.316406 106.394531 C 1156.800781 106.394531 1157.191406 105.246094 1157.191406 103.828125 C 1157.191406 102.414062 1156.800781 101.265625 1156.316406 101.265625 " fill-opacity="1" fill-rule="nonzero"/><path fill="#ffffff" d="M 1141.480469 112.828125 C 1142.257812 112.101562 1143.035156 111.371094 1143.800781 110.632812 C 1144.566406 109.894531 1145.324219 109.144531 1146.074219 108.382812 C 1146.449219 108.003906 1146.824219 107.621094 1147.1875 107.230469 C 1147.558594 106.847656 1147.925781 106.453125 1148.28125 106.058594 C 1147.839844 106.363281 1147.410156 106.675781 1146.980469 106.992188 C 1146.546875 107.308594 1146.121094 107.628906 1145.699219 107.953125 C 1144.851562 108.601562 1144.011719 109.261719 1143.183594 109.929688 C 1142.351562 110.59375 1141.53125 111.273438 1140.714844 111.957031 L 1139.492188 112.988281 L 1138.28125 114.027344 L 1137.832031 114.417969 L 1138.203125 114.894531 L 1139 115.921875 C 1139.128906 116.082031 1139.253906 116.242188 1139.382812 116.402344 C 1139.109375 116.589844 1138.839844 116.773438 1138.570312 116.957031 C 1138.109375 117.273438 1137.652344 117.589844 1137.195312 117.910156 C 1136.28125 118.546875 1135.371094 119.199219 1134.46875 119.855469 C 1133.566406 120.511719 1132.671875 121.183594 1131.789062 121.863281 C 1131.34375 122.207031 1130.902344 122.546875 1130.46875 122.902344 C 1130.03125 123.25 1129.59375 123.601562 1129.167969 123.96875 C 1129.667969 123.710938 1130.160156 123.445312 1130.652344 123.179688 C 1131.144531 122.914062 1131.628906 122.636719 1132.117188 122.359375 C 1133.085938 121.804688 1134.050781 121.238281 1135.003906 120.660156 C 1135.957031 120.082031 1136.90625 119.496094 1137.847656 118.894531 C 1138.320312 118.597656 1138.789062 118.296875 1139.257812 117.992188 C 1139.726562 117.691406 1140.191406 117.386719 1140.65625 117.078125 L 1141.230469 116.699219 L 1140.804688 116.152344 C 1140.539062 115.8125 1140.277344 115.46875 1140.003906 115.128906 L 1139.566406 114.574219 L 1140.304688 113.910156 L 1141.480469 112.828125 " fill-opacity="1" fill-rule="nonzero"/></svg>