<svg xmlns="http://www.w3.org/2000/svg" xmlns:xlink="http://www.w3.org/1999/xlink" width="1634" zoomAndPan="magnify" viewBox="0 0 1225.5 224.249992" height="299" preserveAspectRatio="xMidYMid meet" version="1.0"><defs><g/></defs><g fill="#ffffff" fill-opacity="1"><g transform="translate(207.537565, 89.617705)"><g><path d="M 20.265625 0.859375 C 13.796875 0.859375 9.070312 -0.84375 6.09375 -4.25 C 3.113281 -7.65625 1.625 -12.851562 1.625 -19.84375 L 1.625 -27.578125 L 16.75 -27.578125 L 16.75 -19.84375 C 16.75 -17.601562 17.035156 -15.867188 17.609375 -14.640625 C 18.179688 -13.410156 19.328125 -12.796875 21.046875 -12.796875 C 22.242188 -12.796875 23.113281 -13.222656 23.65625 -14.078125 C 24.207031 -14.941406 24.539062 -15.957031 24.65625 -17.125 C 24.769531 -18.300781 24.828125 -20.007812 24.828125 -22.25 L 24.828125 -24.046875 C 24.828125 -30.398438 22.734375 -33.578125 18.546875 -33.578125 C 17.804688 -33.578125 17.320312 -33.550781 17.09375 -33.5 L 17.09375 -46.71875 C 19.726562 -46.71875 21.703125 -47.304688 23.015625 -48.484375 C 24.335938 -49.660156 25 -51.535156 25 -54.109375 C 25 -58.285156 23.796875 -60.375 21.390625 -60.375 C 19.898438 -60.375 18.9375 -60 18.5 -59.25 C 18.070312 -58.507812 17.785156 -57.566406 17.640625 -56.421875 C 17.503906 -55.285156 17.40625 -54.457031 17.34375 -53.9375 L 17.34375 -51.703125 L 2.0625 -51.703125 L 1.96875 -54.28125 C 2.03125 -61.039062 3.632812 -66.007812 6.78125 -69.1875 C 9.9375 -72.363281 14.773438 -73.953125 21.296875 -73.953125 C 33.835938 -73.953125 40.109375 -67.394531 40.109375 -54.28125 C 40.109375 -50.445312 39.59375 -47.398438 38.5625 -45.140625 C 37.53125 -42.878906 35.753906 -41.289062 33.234375 -40.375 C 35.296875 -39.34375 36.828125 -38.066406 37.828125 -36.546875 C 38.835938 -35.023438 39.5 -33.175781 39.8125 -31 C 40.125 -28.832031 40.28125 -25.914062 40.28125 -22.25 C 40.28125 -14.632812 38.691406 -8.878906 35.515625 -4.984375 C 32.335938 -1.085938 27.253906 0.859375 20.265625 0.859375 Z M 20.265625 0.859375 "/></g></g></g><g fill="#ffffff" fill-opacity="1"><g transform="translate(249.959978, 89.617705)"><g/></g></g><g fill="#ffffff" fill-opacity="1"><g transform="translate(270.054806, 89.617705)"><g><path d="M 20.78125 0.6875 C 14.082031 0.6875 9.242188 -0.972656 6.265625 -4.296875 C 3.285156 -7.617188 1.796875 -12.972656 1.796875 -20.359375 L 1.796875 -27.578125 L 16.3125 -27.578125 L 16.3125 -18.375 C 16.3125 -14.71875 17.488281 -12.890625 19.84375 -12.890625 C 21.15625 -12.890625 22.066406 -13.273438 22.578125 -14.046875 C 23.097656 -14.816406 23.359375 -16.117188 23.359375 -17.953125 C 23.359375 -20.359375 23.070312 -22.347656 22.5 -23.921875 C 21.925781 -25.492188 21.195312 -26.804688 20.3125 -27.859375 C 19.425781 -28.921875 17.835938 -30.570312 15.546875 -32.8125 L 9.1875 -39.171875 C 4.257812 -43.972656 1.796875 -49.296875 1.796875 -55.140625 C 1.796875 -61.441406 3.242188 -66.238281 6.140625 -69.53125 C 9.035156 -72.820312 13.257812 -74.46875 18.8125 -74.46875 C 25.445312 -74.46875 30.222656 -72.707031 33.140625 -69.1875 C 36.066406 -65.664062 37.53125 -60.15625 37.53125 -52.65625 L 22.5 -52.65625 L 22.421875 -57.71875 C 22.421875 -58.6875 22.144531 -59.457031 21.59375 -60.03125 C 21.050781 -60.601562 20.296875 -60.890625 19.328125 -60.890625 C 18.179688 -60.890625 17.320312 -60.570312 16.75 -59.9375 C 16.175781 -59.3125 15.890625 -58.457031 15.890625 -57.375 C 15.890625 -54.96875 17.265625 -52.476562 20.015625 -49.90625 L 28.59375 -41.65625 C 30.601562 -39.707031 32.265625 -37.859375 33.578125 -36.109375 C 34.898438 -34.367188 35.960938 -32.3125 36.765625 -29.9375 C 37.566406 -27.5625 37.96875 -24.738281 37.96875 -21.46875 C 37.96875 -14.195312 36.632812 -8.6875 33.96875 -4.9375 C 31.300781 -1.1875 26.90625 0.6875 20.78125 0.6875 Z M 20.78125 0.6875 "/></g></g></g><g fill="#ffffff" fill-opacity="1"><g transform="translate(309.643333, 89.617705)"><g><path d="M 3.265625 0 L 3.265625 -73.78125 L 32.8125 -73.78125 L 32.8125 -59.515625 L 18.296875 -59.515625 L 18.296875 -45.171875 L 32.203125 -45.171875 L 32.203125 -31.265625 L 18.296875 -31.265625 L 18.296875 -14.34375 L 33.75 -14.34375 L 33.75 0 Z M 3.265625 0 "/></g></g></g><g fill="#ffffff" fill-opacity="1"><g transform="translate(345.023966, 89.617705)"><g><path d="M 20.4375 0.6875 C 15.0625 0.6875 10.753906 -1 7.515625 -4.375 C 4.273438 -7.757812 2.65625 -12.398438 2.65625 -18.296875 L 2.65625 -52.3125 C 2.65625 -59.632812 4.113281 -65.15625 7.03125 -68.875 C 9.957031 -72.601562 14.539062 -74.46875 20.78125 -74.46875 C 26.21875 -74.46875 30.597656 -72.976562 33.921875 -70 C 37.242188 -67.019531 38.90625 -62.726562 38.90625 -57.125 L 38.90625 -44.40625 L 24.21875 -44.40625 L 24.21875 -55.3125 C 24.21875 -57.425781 23.957031 -58.882812 23.4375 -59.6875 C 22.925781 -60.488281 22.039062 -60.890625 20.78125 -60.890625 C 19.46875 -60.890625 18.566406 -60.429688 18.078125 -59.515625 C 17.585938 -58.597656 17.34375 -57.253906 17.34375 -55.484375 L 17.34375 -18.46875 C 17.34375 -16.519531 17.628906 -15.101562 18.203125 -14.21875 C 18.773438 -13.332031 19.632812 -12.890625 20.78125 -12.890625 C 23.070312 -12.890625 24.21875 -14.75 24.21875 -18.46875 L 24.21875 -31.78125 L 39.078125 -31.78125 L 39.078125 -17.859375 C 39.078125 -5.492188 32.863281 0.6875 20.4375 0.6875 Z M 20.4375 0.6875 "/></g></g></g><g fill="#ffffff" fill-opacity="1"><g transform="translate(385.728871, 89.617705)"><g><path d="M 3.265625 -73.78125 L 25.9375 -73.78125 C 29.539062 -73.78125 32.332031 -72.960938 34.3125 -71.328125 C 36.289062 -69.703125 37.625 -67.410156 38.3125 -64.453125 C 39 -61.503906 39.34375 -57.742188 39.34375 -53.171875 C 39.34375 -48.984375 38.796875 -45.71875 37.703125 -43.375 C 36.617188 -41.03125 34.726562 -39.398438 32.03125 -38.484375 C 34.269531 -38.023438 35.890625 -36.90625 36.890625 -35.125 C 37.890625 -33.351562 38.390625 -30.953125 38.390625 -27.921875 L 38.21875 0 L 23.796875 0 L 23.796875 -28.859375 C 23.796875 -30.921875 23.394531 -32.238281 22.59375 -32.8125 C 21.789062 -33.382812 20.328125 -33.671875 18.203125 -33.671875 L 18.203125 0 L 3.265625 0 Z M 21.8125 -46.46875 C 23.875 -46.46875 24.90625 -48.703125 24.90625 -53.171875 C 24.90625 -55.117188 24.816406 -56.578125 24.640625 -57.546875 C 24.472656 -58.515625 24.160156 -59.1875 23.703125 -59.5625 C 23.242188 -59.9375 22.585938 -60.125 21.734375 -60.125 L 18.296875 -60.125 L 18.296875 -46.46875 Z M 21.8125 -46.46875 "/></g></g></g><g fill="#ffffff" fill-opacity="1"><g transform="translate(426.691407, 89.617705)"><g><path d="M 3.265625 0 L 3.265625 -73.78125 L 32.8125 -73.78125 L 32.8125 -59.515625 L 18.296875 -59.515625 L 18.296875 -45.171875 L 32.203125 -45.171875 L 32.203125 -31.265625 L 18.296875 -31.265625 L 18.296875 -14.34375 L 33.75 -14.34375 L 33.75 0 Z M 3.265625 0 "/></g></g></g><g fill="#ffffff" fill-opacity="1"><g transform="translate(462.07204, 89.617705)"><g><path d="M 9.625 0 L 9.625 -59.609375 L 0.859375 -59.609375 L 0.859375 -73.78125 L 33.15625 -73.78125 L 33.15625 -59.609375 L 24.390625 -59.609375 L 24.390625 0 Z M 9.625 0 "/></g></g></g><g fill="#ffffff" fill-opacity="1"><g transform="translate(496.078663, 89.617705)"><g><path d="M 20.875 0.6875 C 14.914062 0.6875 10.390625 -1.128906 7.296875 -4.765625 C 4.203125 -8.398438 2.65625 -13.507812 2.65625 -20.09375 L 2.65625 -55.234375 C 2.65625 -61.585938 4.203125 -66.378906 7.296875 -69.609375 C 10.390625 -72.847656 14.914062 -74.46875 20.875 -74.46875 C 26.820312 -74.46875 31.34375 -72.847656 34.4375 -69.609375 C 37.53125 -66.378906 39.078125 -61.585938 39.078125 -55.234375 L 39.078125 -20.09375 C 39.078125 -13.457031 37.53125 -8.332031 34.4375 -4.71875 C 31.34375 -1.113281 26.820312 0.6875 20.875 0.6875 Z M 20.875 -12.890625 C 22.1875 -12.890625 23.070312 -13.457031 23.53125 -14.59375 C 23.988281 -15.738281 24.21875 -17.34375 24.21875 -19.40625 L 24.21875 -55.484375 C 24.21875 -57.085938 24.003906 -58.390625 23.578125 -59.390625 C 23.148438 -60.390625 22.273438 -60.890625 20.953125 -60.890625 C 18.492188 -60.890625 17.265625 -59.03125 17.265625 -55.3125 L 17.265625 -19.328125 C 17.265625 -17.203125 17.519531 -15.597656 18.03125 -14.515625 C 18.550781 -13.429688 19.5 -12.890625 20.875 -12.890625 Z M 20.875 -12.890625 "/></g></g></g><g fill="#ffffff" fill-opacity="1"><g transform="translate(537.814079, 89.617705)"><g><path d="M 20.78125 0.6875 C 14.082031 0.6875 9.242188 -0.972656 6.265625 -4.296875 C 3.285156 -7.617188 1.796875 -12.972656 1.796875 -20.359375 L 1.796875 -27.578125 L 16.3125 -27.578125 L 16.3125 -18.375 C 16.3125 -14.71875 17.488281 -12.890625 19.84375 -12.890625 C 21.15625 -12.890625 22.066406 -13.273438 22.578125 -14.046875 C 23.097656 -14.816406 23.359375 -16.117188 23.359375 -17.953125 C 23.359375 -20.359375 23.070312 -22.347656 22.5 -23.921875 C 21.925781 -25.492188 21.195312 -26.804688 20.3125 -27.859375 C 19.425781 -28.921875 17.835938 -30.570312 15.546875 -32.8125 L 9.1875 -39.171875 C 4.257812 -43.972656 1.796875 -49.296875 1.796875 -55.140625 C 1.796875 -61.441406 3.242188 -66.238281 6.140625 -69.53125 C 9.035156 -72.820312 13.257812 -74.46875 18.8125 -74.46875 C 25.445312 -74.46875 30.222656 -72.707031 33.140625 -69.1875 C 36.066406 -65.664062 37.53125 -60.15625 37.53125 -52.65625 L 22.5 -52.65625 L 22.421875 -57.71875 C 22.421875 -58.6875 22.144531 -59.457031 21.59375 -60.03125 C 21.050781 -60.601562 20.296875 -60.890625 19.328125 -60.890625 C 18.179688 -60.890625 17.320312 -60.570312 16.75 -59.9375 C 16.175781 -59.3125 15.890625 -58.457031 15.890625 -57.375 C 15.890625 -54.96875 17.265625 -52.476562 20.015625 -49.90625 L 28.59375 -41.65625 C 30.601562 -39.707031 32.265625 -37.859375 33.578125 -36.109375 C 34.898438 -34.367188 35.960938 -32.3125 36.765625 -29.9375 C 37.566406 -27.5625 37.96875 -24.738281 37.96875 -21.46875 C 37.96875 -14.195312 36.632812 -8.6875 33.96875 -4.9375 C 31.300781 -1.1875 26.90625 0.6875 20.78125 0.6875 Z M 20.78125 0.6875 "/></g></g></g><g fill="#ffffff" fill-opacity="1"><g transform="translate(577.402606, 89.617705)"><g/></g></g><g fill="#ffffff" fill-opacity="1"><g transform="translate(597.497434, 89.617705)"><g><path d="M 3.265625 -73.78125 L 22.765625 -73.78125 C 28.660156 -73.78125 32.867188 -71.875 35.390625 -68.0625 C 37.910156 -64.257812 39.171875 -58.691406 39.171875 -51.359375 C 39.171875 -44.035156 38.050781 -38.507812 35.8125 -34.78125 C 33.582031 -31.0625 29.578125 -29.203125 23.796875 -29.203125 L 17.78125 -29.203125 L 17.78125 0 L 3.265625 0 Z M 18.640625 -42.515625 C 20.410156 -42.515625 21.710938 -42.84375 22.546875 -43.5 C 23.378906 -44.15625 23.921875 -45.097656 24.171875 -46.328125 C 24.429688 -47.566406 24.5625 -49.332031 24.5625 -51.625 C 24.5625 -54.71875 24.21875 -56.945312 23.53125 -58.3125 C 22.84375 -59.6875 21.46875 -60.375 19.40625 -60.375 L 17.78125 -60.375 L 17.78125 -42.515625 Z M 18.640625 -42.515625 "/></g></g></g><g fill="#ffffff" fill-opacity="1"><g transform="translate(638.03059, 89.617705)"><g><path d="M 1.28125 0 L 8.421875 -73.78125 L 33.40625 -73.78125 L 40.453125 0 L 26.453125 0 L 25.421875 -11.9375 L 16.484375 -11.9375 L 15.625 0 Z M 17.609375 -23.703125 L 24.3125 -23.703125 L 21.046875 -61.234375 L 20.359375 -61.234375 Z M 17.609375 -23.703125 "/></g></g></g><g fill="#ffffff" fill-opacity="1"><g transform="translate(679.680109, 89.617705)"><g><path d="M 3.265625 -73.78125 L 25.9375 -73.78125 C 29.539062 -73.78125 32.332031 -72.960938 34.3125 -71.328125 C 36.289062 -69.703125 37.625 -67.410156 38.3125 -64.453125 C 39 -61.503906 39.34375 -57.742188 39.34375 -53.171875 C 39.34375 -48.984375 38.796875 -45.71875 37.703125 -43.375 C 36.617188 -41.03125 34.726562 -39.398438 32.03125 -38.484375 C 34.269531 -38.023438 35.890625 -36.90625 36.890625 -35.125 C 37.890625 -33.351562 38.390625 -30.953125 38.390625 -27.921875 L 38.21875 0 L 23.796875 0 L 23.796875 -28.859375 C 23.796875 -30.921875 23.394531 -32.238281 22.59375 -32.8125 C 21.789062 -33.382812 20.328125 -33.671875 18.203125 -33.671875 L 18.203125 0 L 3.265625 0 Z M 21.8125 -46.46875 C 23.875 -46.46875 24.90625 -48.703125 24.90625 -53.171875 C 24.90625 -55.117188 24.816406 -56.578125 24.640625 -57.546875 C 24.472656 -58.515625 24.160156 -59.1875 23.703125 -59.5625 C 23.242188 -59.9375 22.585938 -60.125 21.734375 -60.125 L 18.296875 -60.125 L 18.296875 -46.46875 Z M 21.8125 -46.46875 "/></g></g></g><g fill="#ffffff" fill-opacity="1"><g transform="translate(720.64263, 89.617705)"><g><path d="M 1.28125 0 L 8.421875 -73.78125 L 33.40625 -73.78125 L 40.453125 0 L 26.453125 0 L 25.421875 -11.9375 L 16.484375 -11.9375 L 15.625 0 Z M 17.609375 -23.703125 L 24.3125 -23.703125 L 21.046875 -61.234375 L 20.359375 -61.234375 Z M 17.609375 -23.703125 "/></g></g></g><g fill="#ffffff" fill-opacity="1"><g transform="translate(762.292149, 89.617705)"><g/></g></g><g fill="#ffffff" fill-opacity="1"><g transform="translate(782.386977, 89.617705)"><g><path d="M 3.265625 -73.78125 L 22.765625 -73.78125 C 28.660156 -73.78125 32.867188 -71.875 35.390625 -68.0625 C 37.910156 -64.257812 39.171875 -58.691406 39.171875 -51.359375 C 39.171875 -44.035156 38.050781 -38.507812 35.8125 -34.78125 C 33.582031 -31.0625 29.578125 -29.203125 23.796875 -29.203125 L 17.78125 -29.203125 L 17.78125 0 L 3.265625 0 Z M 18.640625 -42.515625 C 20.410156 -42.515625 21.710938 -42.84375 22.546875 -43.5 C 23.378906 -44.15625 23.921875 -45.097656 24.171875 -46.328125 C 24.429688 -47.566406 24.5625 -49.332031 24.5625 -51.625 C 24.5625 -54.71875 24.21875 -56.945312 23.53125 -58.3125 C 22.84375 -59.6875 21.46875 -60.375 19.40625 -60.375 L 17.78125 -60.375 L 17.78125 -42.515625 Z M 18.640625 -42.515625 "/></g></g></g><g fill="#ffffff" fill-opacity="1"><g transform="translate(822.920103, 89.617705)"><g><path d="M 3.265625 0 L 3.265625 -73.78125 L 32.8125 -73.78125 L 32.8125 -59.515625 L 18.296875 -59.515625 L 18.296875 -45.171875 L 32.203125 -45.171875 L 32.203125 -31.265625 L 18.296875 -31.265625 L 18.296875 -14.34375 L 33.75 -14.34375 L 33.75 0 Z M 3.265625 0 "/></g></g></g><g fill="#ffffff" fill-opacity="1"><g transform="translate(858.300722, 89.617705)"><g><path d="M 3.265625 -73.78125 L 25.9375 -73.78125 C 29.539062 -73.78125 32.332031 -72.960938 34.3125 -71.328125 C 36.289062 -69.703125 37.625 -67.410156 38.3125 -64.453125 C 39 -61.503906 39.34375 -57.742188 39.34375 -53.171875 C 39.34375 -48.984375 38.796875 -45.71875 37.703125 -43.375 C 36.617188 -41.03125 34.726562 -39.398438 32.03125 -38.484375 C 34.269531 -38.023438 35.890625 -36.90625 36.890625 -35.125 C 37.890625 -33.351562 38.390625 -30.953125 38.390625 -27.921875 L 38.21875 0 L 23.796875 0 L 23.796875 -28.859375 C 23.796875 -30.921875 23.394531 -32.238281 22.59375 -32.8125 C 21.789062 -33.382812 20.328125 -33.671875 18.203125 -33.671875 L 18.203125 0 L 3.265625 0 Z M 21.8125 -46.46875 C 23.875 -46.46875 24.90625 -48.703125 24.90625 -53.171875 C 24.90625 -55.117188 24.816406 -56.578125 24.640625 -57.546875 C 24.472656 -58.515625 24.160156 -59.1875 23.703125 -59.5625 C 23.242188 -59.9375 22.585938 -60.125 21.734375 -60.125 L 18.296875 -60.125 L 18.296875 -46.46875 Z M 21.8125 -46.46875 "/></g></g></g><g fill="#ffffff" fill-opacity="1"><g transform="translate(899.263244, 89.617705)"><g><path d="M 3.265625 -73.78125 L 23.625 -73.78125 C 28.882812 -73.78125 32.832031 -72.316406 35.46875 -69.390625 C 38.101562 -66.472656 39.453125 -62.15625 39.515625 -56.4375 L 39.6875 -21.90625 C 39.738281 -14.632812 38.472656 -9.164062 35.890625 -5.5 C 33.316406 -1.832031 29.054688 0 23.109375 0 L 3.265625 0 Z M 20.703125 -13.0625 C 23.390625 -13.0625 24.734375 -14.375 24.734375 -17 L 24.734375 -55.0625 C 24.734375 -56.71875 24.601562 -57.957031 24.34375 -58.78125 C 24.09375 -59.613281 23.625 -60.171875 22.9375 -60.453125 C 22.25 -60.742188 21.1875 -60.890625 19.75 -60.890625 L 18.125 -60.890625 L 18.125 -13.0625 Z M 20.703125 -13.0625 "/></g></g></g><g fill="#ffffff" fill-opacity="1"><g transform="translate(941.599759, 89.617705)"><g><path d="M 3.265625 0 L 3.265625 -73.78125 L 32.8125 -73.78125 L 32.8125 -59.515625 L 18.296875 -59.515625 L 18.296875 -45.171875 L 32.203125 -45.171875 L 32.203125 -31.265625 L 18.296875 -31.265625 L 18.296875 -14.34375 L 33.75 -14.34375 L 33.75 0 Z M 3.265625 0 "/></g></g></g><g fill="#ffffff" fill-opacity="1"><g transform="translate(976.980378, 89.617705)"><g><path d="M 3.265625 -73.78125 L 25.9375 -73.78125 C 29.539062 -73.78125 32.332031 -72.960938 34.3125 -71.328125 C 36.289062 -69.703125 37.625 -67.410156 38.3125 -64.453125 C 39 -61.503906 39.34375 -57.742188 39.34375 -53.171875 C 39.34375 -48.984375 38.796875 -45.71875 37.703125 -43.375 C 36.617188 -41.03125 34.726562 -39.398438 32.03125 -38.484375 C 34.269531 -38.023438 35.890625 -36.90625 36.890625 -35.125 C 37.890625 -33.351562 38.390625 -30.953125 38.390625 -27.921875 L 38.21875 0 L 23.796875 0 L 23.796875 -28.859375 C 23.796875 -30.921875 23.394531 -32.238281 22.59375 -32.8125 C 21.789062 -33.382812 20.328125 -33.671875 18.203125 -33.671875 L 18.203125 0 L 3.265625 0 Z M 21.8125 -46.46875 C 23.875 -46.46875 24.90625 -48.703125 24.90625 -53.171875 C 24.90625 -55.117188 24.816406 -56.578125 24.640625 -57.546875 C 24.472656 -58.515625 24.160156 -59.1875 23.703125 -59.5625 C 23.242188 -59.9375 22.585938 -60.125 21.734375 -60.125 L 18.296875 -60.125 L 18.296875 -46.46875 Z M 21.8125 -46.46875 "/></g></g></g><g fill="#ffffff" fill-opacity="1"><g transform="translate(232.876095, 209.49248)"><g><path d="M 3.265625 0 L 3.265625 -73.78125 L 25.765625 -73.78125 L 31.953125 -28.765625 L 38.140625 -73.78125 L 60.8125 -73.78125 L 60.8125 0 L 47.328125 0 L 47.328125 -53.171875 L 38.828125 0 L 25.59375 0 L 16.578125 -53.171875 L 16.578125 0 Z M 3.265625 0 "/></g></g></g><g fill="#ffffff" fill-opacity="1"><g transform="translate(296.939095, 209.49248)"><g><path d="M 20.359375 0.6875 C 14.285156 0.6875 9.773438 -1.03125 6.828125 -4.46875 C 3.878906 -7.90625 2.40625 -13 2.40625 -19.75 L 2.40625 -73.78125 L 16.75 -73.78125 L 16.75 -20.359375 C 16.75 -18.003906 16.976562 -16.171875 17.4375 -14.859375 C 17.894531 -13.546875 18.867188 -12.890625 20.359375 -12.890625 C 21.847656 -12.890625 22.820312 -13.53125 23.28125 -14.8125 C 23.738281 -16.101562 23.96875 -17.953125 23.96875 -20.359375 L 23.96875 -73.78125 L 38.3125 -73.78125 L 38.3125 -19.75 C 38.3125 -13 36.832031 -7.90625 33.875 -4.46875 C 30.925781 -1.03125 26.421875 0.6875 20.359375 0.6875 Z M 20.359375 0.6875 "/></g></g></g><g fill="#ffffff" fill-opacity="1"><g transform="translate(337.644, 209.49248)"><g><path d="M 20.4375 0.6875 C 15.0625 0.6875 10.753906 -1 7.515625 -4.375 C 4.273438 -7.757812 2.65625 -12.398438 2.65625 -18.296875 L 2.65625 -52.3125 C 2.65625 -59.632812 4.113281 -65.15625 7.03125 -68.875 C 9.957031 -72.601562 14.539062 -74.46875 20.78125 -74.46875 C 26.21875 -74.46875 30.597656 -72.976562 33.921875 -70 C 37.242188 -67.019531 38.90625 -62.726562 38.90625 -57.125 L 38.90625 -44.40625 L 24.21875 -44.40625 L 24.21875 -55.3125 C 24.21875 -57.425781 23.957031 -58.882812 23.4375 -59.6875 C 22.925781 -60.488281 22.039062 -60.890625 20.78125 -60.890625 C 19.46875 -60.890625 18.566406 -60.429688 18.078125 -59.515625 C 17.585938 -58.597656 17.34375 -57.253906 17.34375 -55.484375 L 17.34375 -18.46875 C 17.34375 -16.519531 17.628906 -15.101562 18.203125 -14.21875 C 18.773438 -13.332031 19.632812 -12.890625 20.78125 -12.890625 C 23.070312 -12.890625 24.21875 -14.75 24.21875 -18.46875 L 24.21875 -31.78125 L 39.078125 -31.78125 L 39.078125 -17.859375 C 39.078125 -5.492188 32.863281 0.6875 20.4375 0.6875 Z M 20.4375 0.6875 "/></g></g></g><g fill="#ffffff" fill-opacity="1"><g transform="translate(378.348904, 209.49248)"><g><path d="M 3.265625 0 L 3.265625 -73.78125 L 17.953125 -73.78125 L 17.953125 -47.40625 L 24.90625 -47.40625 L 24.90625 -73.78125 L 39.59375 -73.78125 L 39.59375 0 L 24.90625 0 L 24.90625 -33.5 L 17.953125 -33.5 L 17.953125 0 Z M 3.265625 0 "/></g></g></g><g fill="#ffffff" fill-opacity="1"><g transform="translate(421.200697, 209.49248)"><g><path d="M 20.875 0.6875 C 14.914062 0.6875 10.390625 -1.128906 7.296875 -4.765625 C 4.203125 -8.398438 2.65625 -13.507812 2.65625 -20.09375 L 2.65625 -55.234375 C 2.65625 -61.585938 4.203125 -66.378906 7.296875 -69.609375 C 10.390625 -72.847656 14.914062 -74.46875 20.875 -74.46875 C 26.820312 -74.46875 31.34375 -72.847656 34.4375 -69.609375 C 37.53125 -66.378906 39.078125 -61.585938 39.078125 -55.234375 L 39.078125 -20.09375 C 39.078125 -13.457031 37.53125 -8.332031 34.4375 -4.71875 C 31.34375 -1.113281 26.820312 0.6875 20.875 0.6875 Z M 20.875 -12.890625 C 22.1875 -12.890625 23.070312 -13.457031 23.53125 -14.59375 C 23.988281 -15.738281 24.21875 -17.34375 24.21875 -19.40625 L 24.21875 -55.484375 C 24.21875 -57.085938 24.003906 -58.390625 23.578125 -59.390625 C 23.148438 -60.390625 22.273438 -60.890625 20.953125 -60.890625 C 18.492188 -60.890625 17.265625 -59.03125 17.265625 -55.3125 L 17.265625 -19.328125 C 17.265625 -17.203125 17.519531 -15.597656 18.03125 -14.515625 C 18.550781 -13.429688 19.5 -12.890625 20.875 -12.890625 Z M 20.875 -12.890625 "/></g></g></g><g fill="#ffffff" fill-opacity="1"><g transform="translate(462.936113, 209.49248)"><g/></g></g><g fill="#ffffff" fill-opacity="1"><g transform="translate(483.030926, 209.49248)"><g><path d="M 3.265625 -73.78125 L 22.765625 -73.78125 C 28.660156 -73.78125 32.867188 -71.875 35.390625 -68.0625 C 37.910156 -64.257812 39.171875 -58.691406 39.171875 -51.359375 C 39.171875 -44.035156 38.050781 -38.507812 35.8125 -34.78125 C 33.582031 -31.0625 29.578125 -29.203125 23.796875 -29.203125 L 17.78125 -29.203125 L 17.78125 0 L 3.265625 0 Z M 18.640625 -42.515625 C 20.410156 -42.515625 21.710938 -42.84375 22.546875 -43.5 C 23.378906 -44.15625 23.921875 -45.097656 24.171875 -46.328125 C 24.429688 -47.566406 24.5625 -49.332031 24.5625 -51.625 C 24.5625 -54.71875 24.21875 -56.945312 23.53125 -58.3125 C 22.84375 -59.6875 21.46875 -60.375 19.40625 -60.375 L 17.78125 -60.375 L 17.78125 -42.515625 Z M 18.640625 -42.515625 "/></g></g></g><g fill="#ffffff" fill-opacity="1"><g transform="translate(523.564082, 209.49248)"><g><path d="M 3.265625 0 L 3.265625 -73.78125 L 32.8125 -73.78125 L 32.8125 -59.515625 L 18.296875 -59.515625 L 18.296875 -45.171875 L 32.203125 -45.171875 L 32.203125 -31.265625 L 18.296875 -31.265625 L 18.296875 -14.34375 L 33.75 -14.34375 L 33.75 0 Z M 3.265625 0 "/></g></g></g><g fill="#ffffff" fill-opacity="1"><g transform="translate(558.94473, 209.49248)"><g><path d="M 20.78125 0.6875 C 14.082031 0.6875 9.242188 -0.972656 6.265625 -4.296875 C 3.285156 -7.617188 1.796875 -12.972656 1.796875 -20.359375 L 1.796875 -27.578125 L 16.3125 -27.578125 L 16.3125 -18.375 C 16.3125 -14.71875 17.488281 -12.890625 19.84375 -12.890625 C 21.15625 -12.890625 22.066406 -13.273438 22.578125 -14.046875 C 23.097656 -14.816406 23.359375 -16.117188 23.359375 -17.953125 C 23.359375 -20.359375 23.070312 -22.347656 22.5 -23.921875 C 21.925781 -25.492188 21.195312 -26.804688 20.3125 -27.859375 C 19.425781 -28.921875 17.835938 -30.570312 15.546875 -32.8125 L 9.1875 -39.171875 C 4.257812 -43.972656 1.796875 -49.296875 1.796875 -55.140625 C 1.796875 -61.441406 3.242188 -66.238281 6.140625 -69.53125 C 9.035156 -72.820312 13.257812 -74.46875 18.8125 -74.46875 C 25.445312 -74.46875 30.222656 -72.707031 33.140625 -69.1875 C 36.066406 -65.664062 37.53125 -60.15625 37.53125 -52.65625 L 22.5 -52.65625 L 22.421875 -57.71875 C 22.421875 -58.6875 22.144531 -59.457031 21.59375 -60.03125 C 21.050781 -60.601562 20.296875 -60.890625 19.328125 -60.890625 C 18.179688 -60.890625 17.320312 -60.570312 16.75 -59.9375 C 16.175781 -59.3125 15.890625 -58.457031 15.890625 -57.375 C 15.890625 -54.96875 17.265625 -52.476562 20.015625 -49.90625 L 28.59375 -41.65625 C 30.601562 -39.707031 32.265625 -37.859375 33.578125 -36.109375 C 34.898438 -34.367188 35.960938 -32.3125 36.765625 -29.9375 C 37.566406 -27.5625 37.96875 -24.738281 37.96875 -21.46875 C 37.96875 -14.195312 36.632812 -8.6875 33.96875 -4.9375 C 31.300781 -1.1875 26.90625 0.6875 20.78125 0.6875 Z M 20.78125 0.6875 "/></g></g></g><g fill="#ffffff" fill-opacity="1"><g transform="translate(598.533257, 209.49248)"><g><path d="M 20.875 0.6875 C 14.914062 0.6875 10.390625 -1.128906 7.296875 -4.765625 C 4.203125 -8.398438 2.65625 -13.507812 2.65625 -20.09375 L 2.65625 -55.234375 C 2.65625 -61.585938 4.203125 -66.378906 7.296875 -69.609375 C 10.390625 -72.847656 14.914062 -74.46875 20.875 -74.46875 C 26.820312 -74.46875 31.34375 -72.847656 34.4375 -69.609375 C 37.53125 -66.378906 39.078125 -61.585938 39.078125 -55.234375 L 39.078125 -20.09375 C 39.078125 -13.457031 37.53125 -8.332031 34.4375 -4.71875 C 31.34375 -1.113281 26.820312 0.6875 20.875 0.6875 Z M 20.875 -12.890625 C 22.1875 -12.890625 23.070312 -13.457031 23.53125 -14.59375 C 23.988281 -15.738281 24.21875 -17.34375 24.21875 -19.40625 L 24.21875 -55.484375 C 24.21875 -57.085938 24.003906 -58.390625 23.578125 -59.390625 C 23.148438 -60.390625 22.273438 -60.890625 20.953125 -60.890625 C 18.492188 -60.890625 17.265625 -59.03125 17.265625 -55.3125 L 17.265625 -19.328125 C 17.265625 -17.203125 17.519531 -15.597656 18.03125 -14.515625 C 18.550781 -13.429688 19.5 -12.890625 20.875 -12.890625 Z M 20.875 -12.890625 "/></g></g></g><g fill="#ffffff" fill-opacity="1"><g transform="translate(640.268672, 209.49248)"><g/></g></g><g fill="#ffffff" fill-opacity="1"><g transform="translate(660.3635, 209.49248)"><g><path d="M 3.265625 0 L 3.265625 -73.78125 L 32.8125 -73.78125 L 32.8125 -59.515625 L 18.296875 -59.515625 L 18.296875 -45.171875 L 32.203125 -45.171875 L 32.203125 -31.265625 L 18.296875 -31.265625 L 18.296875 -14.34375 L 33.75 -14.34375 L 33.75 0 Z M 3.265625 0 "/></g></g></g><g fill="#ffffff" fill-opacity="1"><g transform="translate(695.744148, 209.49248)"><g><path d="M 3.265625 0 L 3.265625 -73.78125 L 18.46875 -73.78125 L 25.25 -38.484375 L 25.25 -73.78125 L 39.515625 -73.78125 L 39.515625 0 L 25.078125 0 L 17.6875 -36.9375 L 17.6875 0 Z M 3.265625 0 "/></g></g></g><g fill="#000000" fill-opacity="1"><g transform="translate(738.507899, 209.49248)"><g/></g></g><g fill="#fffc00" fill-opacity="1"><g transform="translate(758.601903, 209.49248)"><g><path d="M 10.140625 -56.859375 C 9.160156 -55.660156 7.796875 -54.6875 6.046875 -53.9375 C 4.304688 -53.195312 2.632812 -52.828125 1.03125 -52.828125 L 1.03125 -64.59375 C 3.550781 -64.988281 6.054688 -65.988281 8.546875 -67.59375 C 11.035156 -69.195312 12.828125 -71.285156 13.921875 -73.859375 L 25.765625 -73.859375 L 25.765625 0 L 10.140625 0 Z M 10.140625 -56.859375 "/></g></g></g><g fill="#fffc00" fill-opacity="1"><g transform="translate(787.026638, 209.49248)"><g><path d="M 6.09375 0 C 6.613281 -7.90625 7.890625 -15.289062 9.921875 -22.15625 C 11.953125 -29.03125 14.769531 -36.988281 18.375 -46.03125 C 19.519531 -48.894531 20.351562 -51.046875 20.875 -52.484375 L 23.796875 -60.203125 L 2.921875 -60.203125 L 2.921875 -73.859375 L 40.203125 -73.859375 L 40.203125 -62.875 C 39.910156 -60.175781 39.320312 -57.609375 38.4375 -55.171875 C 37.550781 -52.742188 36.304688 -49.785156 34.703125 -46.296875 C 33.441406 -43.660156 32.46875 -41.457031 31.78125 -39.6875 C 29.320312 -33.320312 27.316406 -26.921875 25.765625 -20.484375 C 24.222656 -14.046875 23.222656 -7.21875 22.765625 0 Z M 6.09375 0 "/></g></g></g><g fill="#fffc00" fill-opacity="1"><g transform="translate(829.449051, 209.49248)"><g/></g></g><g fill="#fffc00" fill-opacity="1"><g transform="translate(849.543879, 209.49248)"><g><path d="M 3.265625 -73.78125 L 23.625 -73.78125 C 28.882812 -73.78125 32.832031 -72.316406 35.46875 -69.390625 C 38.101562 -66.472656 39.453125 -62.15625 39.515625 -56.4375 L 39.6875 -21.90625 C 39.738281 -14.632812 38.472656 -9.164062 35.890625 -5.5 C 33.316406 -1.832031 29.054688 0 23.109375 0 L 3.265625 0 Z M 20.703125 -13.0625 C 23.390625 -13.0625 24.734375 -14.375 24.734375 -17 L 24.734375 -55.0625 C 24.734375 -56.71875 24.601562 -57.957031 24.34375 -58.78125 C 24.09375 -59.613281 23.625 -60.171875 22.9375 -60.453125 C 22.25 -60.742188 21.1875 -60.890625 19.75 -60.890625 L 18.125 -60.890625 L 18.125 -13.0625 Z M 20.703125 -13.0625 "/></g></g></g><g fill="#fffc00" fill-opacity="1"><g transform="translate(891.880425, 209.49248)"><g><path d="M 2.578125 0 L 2.578125 -73.78125 L 16.828125 -73.78125 L 16.828125 0 Z M -0.21875 -76.109375 L -0.21875 -85.46875 L 19.703125 -94.65625 L 19.703125 -80.0625 Z M -0.21875 -76.109375 "/></g></g></g><g fill="#fffc00" fill-opacity="1"><g transform="translate(911.374123, 209.49248)"><g><path d="M 1.28125 0 L 8.421875 -73.78125 L 33.40625 -73.78125 L 40.453125 0 L 26.453125 0 L 25.421875 -11.9375 L 16.484375 -11.9375 L 15.625 0 Z M 17.609375 -23.703125 L 24.3125 -23.703125 L 21.046875 -61.234375 L 20.359375 -61.234375 Z M 17.609375 -23.703125 "/></g></g></g><g fill="#fffc00" fill-opacity="1"><g transform="translate(953.023656, 209.49248)"><g><path d="M 20.78125 0.6875 C 14.082031 0.6875 9.242188 -0.972656 6.265625 -4.296875 C 3.285156 -7.617188 1.796875 -12.972656 1.796875 -20.359375 L 1.796875 -27.578125 L 16.3125 -27.578125 L 16.3125 -18.375 C 16.3125 -14.71875 17.488281 -12.890625 19.84375 -12.890625 C 21.15625 -12.890625 22.066406 -13.273438 22.578125 -14.046875 C 23.097656 -14.816406 23.359375 -16.117188 23.359375 -17.953125 C 23.359375 -20.359375 23.070312 -22.347656 22.5 -23.921875 C 21.925781 -25.492188 21.195312 -26.804688 20.3125 -27.859375 C 19.425781 -28.921875 17.835938 -30.570312 15.546875 -32.8125 L 9.1875 -39.171875 C 4.257812 -43.972656 1.796875 -49.296875 1.796875 -55.140625 C 1.796875 -61.441406 3.242188 -66.238281 6.140625 -69.53125 C 9.035156 -72.820312 13.257812 -74.46875 18.8125 -74.46875 C 25.445312 -74.46875 30.222656 -72.707031 33.140625 -69.1875 C 36.066406 -65.664062 37.53125 -60.15625 37.53125 -52.65625 L 22.5 -52.65625 L 22.421875 -57.71875 C 22.421875 -58.6875 22.144531 -59.457031 21.59375 -60.03125 C 21.050781 -60.601562 20.296875 -60.890625 19.328125 -60.890625 C 18.179688 -60.890625 17.320312 -60.570312 16.75 -59.9375 C 16.175781 -59.3125 15.890625 -58.457031 15.890625 -57.375 C 15.890625 -54.96875 17.265625 -52.476562 20.015625 -49.90625 L 28.59375 -41.65625 C 30.601562 -39.707031 32.265625 -37.859375 33.578125 -36.109375 C 34.898438 -34.367188 35.960938 -32.3125 36.765625 -29.9375 C 37.566406 -27.5625 37.96875 -24.738281 37.96875 -21.46875 C 37.96875 -14.195312 36.632812 -8.6875 33.96875 -4.9375 C 31.300781 -1.1875 26.90625 0.6875 20.78125 0.6875 Z M 20.78125 0.6875 "/></g></g></g></svg>