<svg xmlns="http://www.w3.org/2000/svg" xmlns:xlink="http://www.w3.org/1999/xlink" width="1634" zoomAndPan="magnify" viewBox="0 0 1225.5 224.249992" height="299" preserveAspectRatio="xMidYMid meet" version="1.0"><defs><g/><clipPath id="id1"><path d="M 1060.386719 29.476562 L 1214.433594 29.476562 L 1214.433594 193.992188 L 1060.386719 193.992188 Z M 1060.386719 29.476562 " clip-rule="nonzero"/></clipPath></defs><g fill="#ffffff" fill-opacity="1"><g transform="translate(120.694294, 79.324366)"><g><path d="M 22.09375 -58.65625 C 17.3125 -58.65625 13.550781 -58.25 10.8125 -57.4375 L 6.25 -57.4375 L 3.640625 -66.859375 C 6.992188 -69.035156 12.117188 -70.125 19.015625 -70.125 C 27.597656 -70.125 33.320312 -68.507812 36.1875 -65.28125 C 37.675781 -63.59375 38.695312 -61.597656 39.25 -59.296875 C 39.8125 -57.003906 40.09375 -54.054688 40.09375 -50.453125 C 40.09375 -44.796875 38.789062 -40.253906 36.1875 -36.828125 C 40.039062 -33.660156 41.96875 -27.972656 41.96875 -19.765625 C 41.96875 -16.472656 41.640625 -13.628906 40.984375 -11.234375 C 40.328125 -8.835938 39.160156 -6.644531 37.484375 -4.65625 C 34.128906 -0.5625 27.664062 1.484375 18.09375 1.484375 C 15.226562 1.484375 10.90625 1.175781 5.125 0.5625 L 5.125 -11 C 11.09375 -10.625 15.816406 -10.4375 19.296875 -10.4375 C 22.785156 -10.4375 25.039062 -11.007812 26.0625 -12.15625 C 27.09375 -13.3125 27.609375 -15.878906 27.609375 -19.859375 L 27.609375 -24.34375 C 27.609375 -25.894531 27.515625 -26.796875 27.328125 -27.046875 C 27.140625 -27.296875 26.90625 -27.617188 26.625 -28.015625 C 26.34375 -28.421875 26.015625 -28.65625 25.640625 -28.71875 C 25.265625 -28.78125 24.769531 -28.90625 24.15625 -29.09375 C 23.28125 -29.28125 21.660156 -29.375 19.296875 -29.375 L 12.59375 -29.375 L 12.59375 -41.3125 C 16.757812 -41.3125 19.601562 -41.492188 21.125 -41.859375 C 22.644531 -42.234375 23.625 -42.765625 24.0625 -43.453125 C 25.175781 -44.941406 25.734375 -47.304688 25.734375 -50.546875 C 25.734375 -55.953125 24.519531 -58.65625 22.09375 -58.65625 Z M 22.09375 -58.65625 "/></g></g></g><g fill="#ffffff" fill-opacity="1"><g transform="translate(165.82445, 79.324366)"><g/></g></g><g fill="#ffffff" fill-opacity="1"><g transform="translate(190.627386, 79.324366)"><g><path d="M 4.46875 -6.8125 C 3.164062 -8.425781 2.515625 -9.648438 2.515625 -10.484375 C 2.515625 -11.328125 3.242188 -12.476562 4.703125 -13.9375 C 6.171875 -15.394531 7.132812 -16.1875 7.59375 -16.3125 C 8.0625 -16.4375 8.515625 -16.5 8.953125 -16.5 C 9.390625 -16.5 10.101562 -16.222656 11.09375 -15.671875 C 15.695312 -12.054688 19.738281 -10.25 23.21875 -10.25 C 26.695312 -10.25 28.960938 -11.054688 30.015625 -12.671875 C 31.078125 -14.296875 31.609375 -16.410156 31.609375 -19.015625 C 31.609375 -21.628906 30.675781 -23.742188 28.8125 -25.359375 C 26.945312 -26.972656 23.882812 -28.929688 19.625 -31.234375 C 15.363281 -33.535156 11.648438 -36.519531 8.484375 -40.1875 C 5.316406 -43.851562 3.734375 -47.644531 3.734375 -51.5625 C 3.734375 -58.53125 5.550781 -63.613281 9.1875 -66.8125 C 12.820312 -70.007812 18.148438 -71.609375 25.171875 -71.609375 C 29.460938 -71.609375 33.660156 -70.582031 37.765625 -68.53125 C 39.941406 -67.664062 40.96875 -66.765625 40.84375 -65.828125 C 40.78125 -65.460938 40.71875 -64.90625 40.65625 -64.15625 C 39.476562 -60.800781 38.578125 -58.875 37.953125 -58.375 C 37.765625 -58.25 37.34375 -58.1875 36.6875 -58.1875 C 36.039062 -58.1875 34.316406 -58.695312 31.515625 -59.71875 C 28.722656 -60.75 26.347656 -61.265625 24.390625 -61.265625 C 22.429688 -61.265625 20.796875 -60.578125 19.484375 -59.203125 C 18.179688 -57.835938 17.53125 -55.910156 17.53125 -53.421875 C 17.53125 -50.941406 18.648438 -48.691406 20.890625 -46.671875 C 23.128906 -44.648438 26.578125 -42.550781 31.234375 -40.375 C 36.148438 -37.820312 39.832031 -35.175781 42.28125 -32.4375 C 44.738281 -29.707031 45.96875 -26.046875 45.96875 -21.453125 C 45.96875 -6.160156 39.503906 1.484375 26.578125 1.484375 C 16.941406 1.484375 9.570312 -1.28125 4.46875 -6.8125 Z M 4.46875 -6.8125 "/></g></g></g><g fill="#ffffff" fill-opacity="1"><g transform="translate(239.300818, 79.324366)"><g><path d="M 35.25 -42.421875 C 37.738281 -42.421875 38.984375 -41.304688 38.984375 -39.078125 C 38.984375 -36.023438 38.796875 -33.9375 38.421875 -32.8125 C 38.046875 -31.695312 37.082031 -31.140625 35.53125 -31.140625 L 17.25 -31.140625 L 17.25 -11.28125 L 38.796875 -11.28125 C 40.285156 -11.21875 41.304688 -10.921875 41.859375 -10.390625 C 42.421875 -9.867188 42.703125 -9.078125 42.703125 -8.015625 C 42.703125 -4.972656 42.421875 -2.875 41.859375 -1.71875 C 41.304688 -0.570312 40.191406 0 38.515625 0 L 5.6875 0 L 4.203125 -1.484375 L 4.203125 -70.125 L 37.296875 -70.125 C 39.972656 -70.0625 41.3125 -69.066406 41.3125 -67.140625 C 41.25 -65.460938 41.15625 -64.140625 41.03125 -63.171875 C 40.90625 -62.210938 40.515625 -61.265625 39.859375 -60.328125 C 39.210938 -59.398438 38.265625 -58.9375 37.015625 -58.9375 L 16.21875 -58.9375 L 17.25 -42.421875 Z M 35.25 -42.421875 "/></g></g></g><g fill="#ffffff" fill-opacity="1"><g transform="translate(284.337734, 79.324366)"><g><path d="M 40.65625 -11 C 42.207031 -11 42.984375 -10.003906 42.984375 -8.015625 C 42.984375 -6.023438 42.953125 -4.535156 42.890625 -3.546875 C 42.640625 -1.304688 41.644531 -0.03125 39.90625 0.28125 C 34.375 1.082031 30.273438 1.484375 27.609375 1.484375 C 18.335938 1.484375 11.960938 -1.125 8.484375 -6.34375 C 5.003906 -11.5625 3.265625 -20.976562 3.265625 -34.59375 C 3.265625 -44.539062 4.023438 -52.140625 5.546875 -57.390625 C 7.066406 -62.648438 9.519531 -66.332031 12.90625 -68.4375 C 16.300781 -70.550781 21.367188 -71.609375 28.109375 -71.609375 C 34.859375 -71.609375 39.785156 -70.554688 42.890625 -68.453125 C 43.515625 -68.015625 43.828125 -67.484375 43.828125 -66.859375 C 43.828125 -66.234375 43.53125 -65.066406 42.9375 -63.359375 C 42.351562 -61.648438 41.796875 -60.4375 41.265625 -59.71875 C 40.734375 -59.007812 40.1875 -58.65625 39.625 -58.65625 C 39.070312 -58.65625 38.640625 -58.6875 38.328125 -58.75 C 33.660156 -59.675781 29.632812 -60.140625 26.25 -60.140625 C 22.863281 -60.140625 20.65625 -58.273438 19.625 -54.546875 C 18.601562 -50.816406 18.09375 -44.769531 18.09375 -36.40625 C 18.09375 -28.050781 18.304688 -22.222656 18.734375 -18.921875 C 19.171875 -15.628906 19.976562 -13.332031 21.15625 -12.03125 C 22.34375 -10.726562 24.222656 -10.078125 26.796875 -10.078125 C 29.378906 -10.078125 32.300781 -10.226562 35.5625 -10.53125 C 38.832031 -10.84375 40.53125 -11 40.65625 -11 Z M 40.65625 -11 "/></g></g></g><g fill="#ffffff" fill-opacity="1"><g transform="translate(330.773297, 79.324366)"><g><path d="M 4.203125 -2.234375 L 4.203125 -70.125 C 10.535156 -71.113281 16.035156 -71.609375 20.703125 -71.609375 C 29.335938 -71.609375 35.300781 -69.992188 38.59375 -66.765625 C 41.894531 -63.535156 43.546875 -58.191406 43.546875 -50.734375 C 43.546875 -40.285156 40.625 -33.320312 34.78125 -29.84375 L 46.53125 -3.265625 C 47.21875 -1.710938 47.5625 -0.703125 47.5625 -0.234375 C 47.5625 0.234375 47.5 0.53125 47.375 0.65625 C 47.125 1.207031 46.066406 1.484375 44.203125 1.484375 C 38.171875 1.484375 34.625 0.304688 33.5625 -2.046875 L 22.9375 -26.671875 C 21.382812 -26.546875 19.054688 -26.484375 15.953125 -26.484375 L 15.953125 -2.421875 C 15.953125 -0.679688 15.78125 0.398438 15.4375 0.828125 C 15.09375 1.265625 14.019531 1.484375 12.21875 1.484375 C 6.875 1.484375 4.203125 0.242188 4.203125 -2.234375 Z M 17.4375 -39.265625 C 22.40625 -39.265625 25.757812 -39.960938 27.5 -41.359375 C 29.25 -42.753906 30.125 -45.910156 30.125 -50.828125 C 30.125 -53.804688 29.640625 -56.164062 28.671875 -57.90625 C 27.710938 -59.644531 26.640625 -60.515625 25.453125 -60.515625 C 21.046875 -60.515625 18.359375 -60.421875 17.390625 -60.234375 C 16.429688 -60.046875 15.953125 -59.425781 15.953125 -58.375 L 15.953125 -40.65625 C 15.953125 -39.84375 16.101562 -39.40625 16.40625 -39.34375 C 16.71875 -39.289062 17.0625 -39.265625 17.4375 -39.265625 Z M 17.4375 -39.265625 "/></g></g></g><g fill="#ffffff" fill-opacity="1"><g transform="translate(380.379168, 79.324366)"><g><path d="M 35.25 -42.421875 C 37.738281 -42.421875 38.984375 -41.304688 38.984375 -39.078125 C 38.984375 -36.023438 38.796875 -33.9375 38.421875 -32.8125 C 38.046875 -31.695312 37.082031 -31.140625 35.53125 -31.140625 L 17.25 -31.140625 L 17.25 -11.28125 L 38.796875 -11.28125 C 40.285156 -11.21875 41.304688 -10.921875 41.859375 -10.390625 C 42.421875 -9.867188 42.703125 -9.078125 42.703125 -8.015625 C 42.703125 -4.972656 42.421875 -2.875 41.859375 -1.71875 C 41.304688 -0.570312 40.191406 0 38.515625 0 L 5.6875 0 L 4.203125 -1.484375 L 4.203125 -70.125 L 37.296875 -70.125 C 39.972656 -70.0625 41.3125 -69.066406 41.3125 -67.140625 C 41.25 -65.460938 41.15625 -64.140625 41.03125 -63.171875 C 40.90625 -62.210938 40.515625 -61.265625 39.859375 -60.328125 C 39.210938 -59.398438 38.265625 -58.9375 37.015625 -58.9375 L 16.21875 -58.9375 L 17.25 -42.421875 Z M 35.25 -42.421875 "/></g></g></g><g fill="#ffffff" fill-opacity="1"><g transform="translate(425.416072, 79.324366)"><g><path d="M 16.03125 -1.953125 L 16.03125 -58.9375 L 4.375 -58.9375 C 2.882812 -59 1.921875 -59.398438 1.484375 -60.140625 C 0.929688 -61.015625 0.65625 -62.570312 0.65625 -64.8125 C 0.65625 -68.351562 1.710938 -70.125 3.828125 -70.125 L 37.765625 -70.125 C 41.367188 -70.125 43.171875 -69.160156 43.171875 -67.234375 C 43.171875 -61.703125 41.679688 -58.9375 38.703125 -58.9375 L 28.25 -59.03125 L 29.09375 -40.09375 L 29.1875 -2.140625 C 29.1875 -0.960938 29.15625 -0.1875 29.09375 0.1875 C 28.84375 1.050781 27.628906 1.484375 25.453125 1.484375 C 19.171875 1.484375 16.03125 0.335938 16.03125 -1.953125 Z M 16.03125 -1.953125 "/></g></g></g><g fill="#ffffff" fill-opacity="1"><g transform="translate(469.240809, 79.324366)"><g><path d="M 3.453125 -34.59375 C 3.453125 -44.476562 4.226562 -52.0625 5.78125 -57.34375 C 7.332031 -62.632812 9.800781 -66.332031 13.1875 -68.4375 C 16.582031 -70.550781 21.476562 -71.609375 27.875 -71.609375 C 34.28125 -71.609375 39.175781 -70.550781 42.5625 -68.4375 C 45.957031 -66.332031 48.414062 -62.648438 49.9375 -57.390625 C 51.457031 -52.140625 52.21875 -44.539062 52.21875 -34.59375 C 52.21875 -20.976562 50.476562 -11.5625 47 -6.34375 C 43.519531 -1.125 37.144531 1.484375 27.875 1.484375 C 18.613281 1.484375 12.226562 -1.125 8.71875 -6.34375 C 5.207031 -11.5625 3.453125 -20.976562 3.453125 -34.59375 Z M 19.015625 -51.984375 C 18.648438 -49.648438 18.4375 -47.285156 18.375 -44.890625 C 18.3125 -42.503906 18.28125 -38.453125 18.28125 -32.734375 C 18.28125 -27.015625 18.460938 -22.226562 18.828125 -18.375 C 19.203125 -14.519531 19.703125 -11.984375 20.328125 -10.765625 C 20.953125 -9.554688 21.789062 -8.953125 22.84375 -8.953125 C 28.3125 -8.953125 31.882812 -9.507812 33.5625 -10.625 C 34.1875 -11.0625 34.796875 -11.773438 35.390625 -12.765625 C 35.984375 -13.765625 36.398438 -14.789062 36.640625 -15.84375 C 36.890625 -16.90625 37.109375 -18.460938 37.296875 -20.515625 C 37.546875 -23.191406 37.671875 -27.992188 37.671875 -34.921875 C 37.671875 -41.847656 37.5 -47.316406 37.15625 -51.328125 C 36.8125 -55.335938 36.3125 -58.070312 35.65625 -59.53125 C 35.007812 -61 34.160156 -61.734375 33.109375 -61.734375 C 30.617188 -61.734375 28.609375 -61.625 27.078125 -61.40625 C 25.554688 -61.1875 24.207031 -60.65625 23.03125 -59.8125 C 21.851562 -58.976562 20.984375 -58.046875 20.421875 -57.015625 C 19.859375 -55.992188 19.390625 -54.316406 19.015625 -51.984375 Z M 19.015625 -51.984375 "/></g></g></g><g fill="#ffffff" fill-opacity="1"><g transform="translate(524.907568, 79.324366)"><g><path d="M 4.46875 -6.8125 C 3.164062 -8.425781 2.515625 -9.648438 2.515625 -10.484375 C 2.515625 -11.328125 3.242188 -12.476562 4.703125 -13.9375 C 6.171875 -15.394531 7.132812 -16.1875 7.59375 -16.3125 C 8.0625 -16.4375 8.515625 -16.5 8.953125 -16.5 C 9.390625 -16.5 10.101562 -16.222656 11.09375 -15.671875 C 15.695312 -12.054688 19.738281 -10.25 23.21875 -10.25 C 26.695312 -10.25 28.960938 -11.054688 30.015625 -12.671875 C 31.078125 -14.296875 31.609375 -16.410156 31.609375 -19.015625 C 31.609375 -21.628906 30.675781 -23.742188 28.8125 -25.359375 C 26.945312 -26.972656 23.882812 -28.929688 19.625 -31.234375 C 15.363281 -33.535156 11.648438 -36.519531 8.484375 -40.1875 C 5.316406 -43.851562 3.734375 -47.644531 3.734375 -51.5625 C 3.734375 -58.53125 5.550781 -63.613281 9.1875 -66.8125 C 12.820312 -70.007812 18.148438 -71.609375 25.171875 -71.609375 C 29.460938 -71.609375 33.660156 -70.582031 37.765625 -68.53125 C 39.941406 -67.664062 40.96875 -66.765625 40.84375 -65.828125 C 40.78125 -65.460938 40.71875 -64.90625 40.65625 -64.15625 C 39.476562 -60.800781 38.578125 -58.875 37.953125 -58.375 C 37.765625 -58.25 37.34375 -58.1875 36.6875 -58.1875 C 36.039062 -58.1875 34.316406 -58.695312 31.515625 -59.71875 C 28.722656 -60.75 26.347656 -61.265625 24.390625 -61.265625 C 22.429688 -61.265625 20.796875 -60.578125 19.484375 -59.203125 C 18.179688 -57.835938 17.53125 -55.910156 17.53125 -53.421875 C 17.53125 -50.941406 18.648438 -48.691406 20.890625 -46.671875 C 23.128906 -44.648438 26.578125 -42.550781 31.234375 -40.375 C 36.148438 -37.820312 39.832031 -35.175781 42.28125 -32.4375 C 44.738281 -29.707031 45.96875 -26.046875 45.96875 -21.453125 C 45.96875 -6.160156 39.503906 1.484375 26.578125 1.484375 C 16.941406 1.484375 9.570312 -1.28125 4.46875 -6.8125 Z M 4.46875 -6.8125 "/></g></g></g><g fill="#ffffff" fill-opacity="1"><g transform="translate(573.581025, 79.324366)"><g/></g></g><g fill="#ffffff" fill-opacity="1"><g transform="translate(598.383985, 79.324366)"><g><path d="M 4.203125 -2.046875 L 4.203125 -70.125 C 10.472656 -71.113281 16.003906 -71.609375 20.796875 -71.609375 C 29.253906 -71.609375 35.144531 -69.835938 38.46875 -66.296875 C 41.789062 -62.753906 43.453125 -57.191406 43.453125 -49.609375 C 43.453125 -40.660156 41.210938 -34.535156 36.734375 -31.234375 C 33.816406 -29.117188 30.957031 -27.816406 28.15625 -27.328125 C 24.550781 -26.765625 20.453125 -26.484375 15.859375 -26.484375 L 15.859375 -2.140625 C 15.859375 -0.960938 15.796875 -0.1875 15.671875 0.1875 C 15.484375 1.050781 14.300781 1.484375 12.125 1.484375 C 6.84375 1.484375 4.203125 0.304688 4.203125 -2.046875 Z M 16.171875 -39.484375 C 16.390625 -39.390625 16.578125 -39.328125 16.734375 -39.296875 C 16.890625 -39.273438 17.601562 -39.265625 18.875 -39.265625 C 20.15625 -39.265625 21.320312 -39.289062 22.375 -39.34375 C 23.4375 -39.40625 24.570312 -39.609375 25.78125 -39.953125 C 27 -40.296875 27.851562 -40.84375 28.34375 -41.59375 C 29.46875 -43.457031 30.03125 -46.035156 30.03125 -49.328125 C 30.03125 -52.617188 29.53125 -55.304688 28.53125 -57.390625 C 27.539062 -59.472656 26.484375 -60.515625 25.359375 -60.515625 C 20.890625 -60.515625 18.1875 -60.421875 17.25 -60.234375 C 16.320312 -60.046875 15.859375 -59.425781 15.859375 -58.375 L 15.859375 -40.65625 C 15.859375 -39.96875 15.960938 -39.578125 16.171875 -39.484375 Z M 16.171875 -39.484375 "/></g></g></g><g fill="#ffffff" fill-opacity="1"><g transform="translate(642.861431, 79.324366)"><g><path d="M 27.78125 -71.703125 C 32.070312 -71.703125 34.40625 -70.738281 34.78125 -68.8125 L 41.125 -40.1875 L 47.5625 -2.046875 C 47.6875 -1.429688 47.75 -0.859375 47.75 -0.328125 C 47.75 0.203125 47.59375 0.632812 47.28125 0.96875 C 46.96875 1.3125 45.910156 1.484375 44.109375 1.484375 C 38.578125 1.484375 35.625 0.304688 35.25 -2.046875 L 31.984375 -21.265625 L 18.9375 -21.265625 L 16.03125 -1.953125 C 15.851562 -0.648438 15.625 0.21875 15.34375 0.65625 C 15.0625 1.09375 14.671875 1.335938 14.171875 1.390625 C 13.671875 1.453125 12.863281 1.484375 11.75 1.484375 L 9.140625 1.484375 C 6.960938 1.484375 5.59375 1.363281 5.03125 1.125 C 3.664062 0.625 2.890625 0.0625 2.703125 -0.5625 C 2.640625 -0.875 2.609375 -1.148438 2.609375 -1.390625 C 2.609375 -1.640625 3.257812 -5.742188 4.5625 -13.703125 C 5.875 -21.660156 7.476562 -31.140625 9.375 -42.140625 C 11.269531 -53.148438 12.507812 -60.363281 13.09375 -63.78125 C 13.6875 -67.195312 14.015625 -69.125 14.078125 -69.5625 C 14.328125 -70.988281 18.894531 -71.703125 27.78125 -71.703125 Z M 24.984375 -59.5 L 20.703125 -32.546875 L 29.9375 -32.546875 Z M 24.984375 -59.5 "/></g></g></g><g fill="#ffffff" fill-opacity="1"><g transform="translate(693.120012, 79.324366)"><g><path d="M 4.203125 -2.234375 L 4.203125 -70.125 C 10.535156 -71.113281 16.035156 -71.609375 20.703125 -71.609375 C 29.335938 -71.609375 35.300781 -69.992188 38.59375 -66.765625 C 41.894531 -63.535156 43.546875 -58.191406 43.546875 -50.734375 C 43.546875 -40.285156 40.625 -33.320312 34.78125 -29.84375 L 46.53125 -3.265625 C 47.21875 -1.710938 47.5625 -0.703125 47.5625 -0.234375 C 47.5625 0.234375 47.5 0.53125 47.375 0.65625 C 47.125 1.207031 46.066406 1.484375 44.203125 1.484375 C 38.171875 1.484375 34.625 0.304688 33.5625 -2.046875 L 22.9375 -26.671875 C 21.382812 -26.546875 19.054688 -26.484375 15.953125 -26.484375 L 15.953125 -2.421875 C 15.953125 -0.679688 15.78125 0.398438 15.4375 0.828125 C 15.09375 1.265625 14.019531 1.484375 12.21875 1.484375 C 6.875 1.484375 4.203125 0.242188 4.203125 -2.234375 Z M 17.4375 -39.265625 C 22.40625 -39.265625 25.757812 -39.960938 27.5 -41.359375 C 29.25 -42.753906 30.125 -45.910156 30.125 -50.828125 C 30.125 -53.804688 29.640625 -56.164062 28.671875 -57.90625 C 27.710938 -59.644531 26.640625 -60.515625 25.453125 -60.515625 C 21.046875 -60.515625 18.359375 -60.421875 17.390625 -60.234375 C 16.429688 -60.046875 15.953125 -59.425781 15.953125 -58.375 L 15.953125 -40.65625 C 15.953125 -39.84375 16.101562 -39.40625 16.40625 -39.34375 C 16.71875 -39.289062 17.0625 -39.265625 17.4375 -39.265625 Z M 17.4375 -39.265625 "/></g></g></g><g fill="#ffffff" fill-opacity="1"><g transform="translate(742.725883, 79.324366)"><g><path d="M 27.78125 -71.703125 C 32.070312 -71.703125 34.40625 -70.738281 34.78125 -68.8125 L 41.125 -40.1875 L 47.5625 -2.046875 C 47.6875 -1.429688 47.75 -0.859375 47.75 -0.328125 C 47.75 0.203125 47.59375 0.632812 47.28125 0.96875 C 46.96875 1.3125 45.910156 1.484375 44.109375 1.484375 C 38.578125 1.484375 35.625 0.304688 35.25 -2.046875 L 31.984375 -21.265625 L 18.9375 -21.265625 L 16.03125 -1.953125 C 15.851562 -0.648438 15.625 0.21875 15.34375 0.65625 C 15.0625 1.09375 14.671875 1.335938 14.171875 1.390625 C 13.671875 1.453125 12.863281 1.484375 11.75 1.484375 L 9.140625 1.484375 C 6.960938 1.484375 5.59375 1.363281 5.03125 1.125 C 3.664062 0.625 2.890625 0.0625 2.703125 -0.5625 C 2.640625 -0.875 2.609375 -1.148438 2.609375 -1.390625 C 2.609375 -1.640625 3.257812 -5.742188 4.5625 -13.703125 C 5.875 -21.660156 7.476562 -31.140625 9.375 -42.140625 C 11.269531 -53.148438 12.507812 -60.363281 13.09375 -63.78125 C 13.6875 -67.195312 14.015625 -69.125 14.078125 -69.5625 C 14.328125 -70.988281 18.894531 -71.703125 27.78125 -71.703125 Z M 24.984375 -59.5 L 20.703125 -32.546875 L 29.9375 -32.546875 Z M 24.984375 -59.5 "/></g></g></g><g fill="#ffffff" fill-opacity="1"><g transform="translate(792.984463, 79.324366)"><g/></g></g><g fill="#ffffff" fill-opacity="1"><g transform="translate(817.787423, 79.324366)"><g><path d="M 4.203125 -2.046875 L 4.203125 -70.125 C 10.472656 -71.113281 16.003906 -71.609375 20.796875 -71.609375 C 29.253906 -71.609375 35.144531 -69.835938 38.46875 -66.296875 C 41.789062 -62.753906 43.453125 -57.191406 43.453125 -49.609375 C 43.453125 -40.660156 41.210938 -34.535156 36.734375 -31.234375 C 33.816406 -29.117188 30.957031 -27.816406 28.15625 -27.328125 C 24.550781 -26.765625 20.453125 -26.484375 15.859375 -26.484375 L 15.859375 -2.140625 C 15.859375 -0.960938 15.796875 -0.1875 15.671875 0.1875 C 15.484375 1.050781 14.300781 1.484375 12.125 1.484375 C 6.84375 1.484375 4.203125 0.304688 4.203125 -2.046875 Z M 16.171875 -39.484375 C 16.390625 -39.390625 16.578125 -39.328125 16.734375 -39.296875 C 16.890625 -39.273438 17.601562 -39.265625 18.875 -39.265625 C 20.15625 -39.265625 21.320312 -39.289062 22.375 -39.34375 C 23.4375 -39.40625 24.570312 -39.609375 25.78125 -39.953125 C 27 -40.296875 27.851562 -40.84375 28.34375 -41.59375 C 29.46875 -43.457031 30.03125 -46.035156 30.03125 -49.328125 C 30.03125 -52.617188 29.53125 -55.304688 28.53125 -57.390625 C 27.539062 -59.472656 26.484375 -60.515625 25.359375 -60.515625 C 20.890625 -60.515625 18.1875 -60.421875 17.25 -60.234375 C 16.320312 -60.046875 15.859375 -59.425781 15.859375 -58.375 L 15.859375 -40.65625 C 15.859375 -39.96875 15.960938 -39.578125 16.171875 -39.484375 Z M 16.171875 -39.484375 "/></g></g></g><g fill="#ffffff" fill-opacity="1"><g transform="translate(862.26487, 79.324366)"><g><path d="M 35.25 -42.421875 C 37.738281 -42.421875 38.984375 -41.304688 38.984375 -39.078125 C 38.984375 -36.023438 38.796875 -33.9375 38.421875 -32.8125 C 38.046875 -31.695312 37.082031 -31.140625 35.53125 -31.140625 L 17.25 -31.140625 L 17.25 -11.28125 L 38.796875 -11.28125 C 40.285156 -11.21875 41.304688 -10.921875 41.859375 -10.390625 C 42.421875 -9.867188 42.703125 -9.078125 42.703125 -8.015625 C 42.703125 -4.972656 42.421875 -2.875 41.859375 -1.71875 C 41.304688 -0.570312 40.191406 0 38.515625 0 L 5.6875 0 L 4.203125 -1.484375 L 4.203125 -70.125 L 37.296875 -70.125 C 39.972656 -70.0625 41.3125 -69.066406 41.3125 -67.140625 C 41.25 -65.460938 41.15625 -64.140625 41.03125 -63.171875 C 40.90625 -62.210938 40.515625 -61.265625 39.859375 -60.328125 C 39.210938 -59.398438 38.265625 -58.9375 37.015625 -58.9375 L 16.21875 -58.9375 L 17.25 -42.421875 Z M 35.25 -42.421875 "/></g></g></g><g fill="#ffffff" fill-opacity="1"><g transform="translate(907.301774, 79.324366)"><g><path d="M 4.203125 -2.234375 L 4.203125 -70.125 C 10.535156 -71.113281 16.035156 -71.609375 20.703125 -71.609375 C 29.335938 -71.609375 35.300781 -69.992188 38.59375 -66.765625 C 41.894531 -63.535156 43.546875 -58.191406 43.546875 -50.734375 C 43.546875 -40.285156 40.625 -33.320312 34.78125 -29.84375 L 46.53125 -3.265625 C 47.21875 -1.710938 47.5625 -0.703125 47.5625 -0.234375 C 47.5625 0.234375 47.5 0.53125 47.375 0.65625 C 47.125 1.207031 46.066406 1.484375 44.203125 1.484375 C 38.171875 1.484375 34.625 0.304688 33.5625 -2.046875 L 22.9375 -26.671875 C 21.382812 -26.546875 19.054688 -26.484375 15.953125 -26.484375 L 15.953125 -2.421875 C 15.953125 -0.679688 15.78125 0.398438 15.4375 0.828125 C 15.09375 1.265625 14.019531 1.484375 12.21875 1.484375 C 6.875 1.484375 4.203125 0.242188 4.203125 -2.234375 Z M 17.4375 -39.265625 C 22.40625 -39.265625 25.757812 -39.960938 27.5 -41.359375 C 29.25 -42.753906 30.125 -45.910156 30.125 -50.828125 C 30.125 -53.804688 29.640625 -56.164062 28.671875 -57.90625 C 27.710938 -59.644531 26.640625 -60.515625 25.453125 -60.515625 C 21.046875 -60.515625 18.359375 -60.421875 17.390625 -60.234375 C 16.429688 -60.046875 15.953125 -59.425781 15.953125 -58.375 L 15.953125 -40.65625 C 15.953125 -39.84375 16.101562 -39.40625 16.40625 -39.34375 C 16.71875 -39.289062 17.0625 -39.265625 17.4375 -39.265625 Z M 17.4375 -39.265625 "/></g></g></g><g fill="#ffffff" fill-opacity="1"><g transform="translate(956.907645, 79.324366)"><g><path d="M 24.625 -71.609375 C 31.394531 -71.609375 36.519531 -70.644531 40 -68.71875 C 43.476562 -66.789062 45.992188 -63.296875 47.546875 -58.234375 C 49.109375 -53.171875 49.890625 -45.664062 49.890625 -35.71875 C 49.890625 -21.914062 48.085938 -12.265625 44.484375 -6.765625 C 40.878906 -1.265625 34.257812 1.484375 24.625 1.484375 C 22.257812 1.484375 15.453125 0.988281 4.203125 0 L 4.203125 -70.03125 C 13.648438 -71.082031 20.457031 -71.609375 24.625 -71.609375 Z M 29.5625 -60.515625 C 24.15625 -60.515625 20.765625 -60.40625 19.390625 -60.1875 C 18.023438 -59.96875 17.34375 -59.363281 17.34375 -58.375 L 17.34375 -11.5625 C 17.34375 -10.875 17.757812 -10.46875 18.59375 -10.34375 C 19.4375 -10.226562 21.148438 -10.171875 23.734375 -10.171875 C 26.316406 -10.171875 28.132812 -10.304688 29.1875 -10.578125 C 30.238281 -10.859375 31.21875 -11.351562 32.125 -12.0625 C 33.03125 -12.78125 33.632812 -14.164062 33.9375 -16.21875 C 34.5625 -20.195312 34.875 -26.351562 34.875 -34.6875 C 34.875 -51.90625 33.101562 -60.515625 29.5625 -60.515625 Z M 29.5625 -60.515625 "/></g></g></g><g fill="#ffffff" fill-opacity="1"><g transform="translate(1010.150069, 79.324366)"><g><path d="M 35.25 -42.421875 C 37.738281 -42.421875 38.984375 -41.304688 38.984375 -39.078125 C 38.984375 -36.023438 38.796875 -33.9375 38.421875 -32.8125 C 38.046875 -31.695312 37.082031 -31.140625 35.53125 -31.140625 L 17.25 -31.140625 L 17.25 -11.28125 L 38.796875 -11.28125 C 40.285156 -11.21875 41.304688 -10.921875 41.859375 -10.390625 C 42.421875 -9.867188 42.703125 -9.078125 42.703125 -8.015625 C 42.703125 -4.972656 42.421875 -2.875 41.859375 -1.71875 C 41.304688 -0.570312 40.191406 0 38.515625 0 L 5.6875 0 L 4.203125 -1.484375 L 4.203125 -70.125 L 37.296875 -70.125 C 39.972656 -70.0625 41.3125 -69.066406 41.3125 -67.140625 C 41.25 -65.460938 41.15625 -64.140625 41.03125 -63.171875 C 40.90625 -62.210938 40.515625 -61.265625 39.859375 -60.328125 C 39.210938 -59.398438 38.265625 -58.9375 37.015625 -58.9375 L 16.21875 -58.9375 L 17.25 -42.421875 Z M 35.25 -42.421875 "/></g></g></g><g fill="#ffffff" fill-opacity="1"><g transform="translate(1055.186973, 79.324366)"><g><path d="M 4.203125 -2.234375 L 4.203125 -70.125 C 10.535156 -71.113281 16.035156 -71.609375 20.703125 -71.609375 C 29.335938 -71.609375 35.300781 -69.992188 38.59375 -66.765625 C 41.894531 -63.535156 43.546875 -58.191406 43.546875 -50.734375 C 43.546875 -40.285156 40.625 -33.320312 34.78125 -29.84375 L 46.53125 -3.265625 C 47.21875 -1.710938 47.5625 -0.703125 47.5625 -0.234375 C 47.5625 0.234375 47.5 0.53125 47.375 0.65625 C 47.125 1.207031 46.066406 1.484375 44.203125 1.484375 C 38.171875 1.484375 34.625 0.304688 33.5625 -2.046875 L 22.9375 -26.671875 C 21.382812 -26.546875 19.054688 -26.484375 15.953125 -26.484375 L 15.953125 -2.421875 C 15.953125 -0.679688 15.78125 0.398438 15.4375 0.828125 C 15.09375 1.265625 14.019531 1.484375 12.21875 1.484375 C 6.875 1.484375 4.203125 0.242188 4.203125 -2.234375 Z M 17.4375 -39.265625 C 22.40625 -39.265625 25.757812 -39.960938 27.5 -41.359375 C 29.25 -42.753906 30.125 -45.910156 30.125 -50.828125 C 30.125 -53.804688 29.640625 -56.164062 28.671875 -57.90625 C 27.710938 -59.644531 26.640625 -60.515625 25.453125 -60.515625 C 21.046875 -60.515625 18.359375 -60.421875 17.390625 -60.234375 C 16.429688 -60.046875 15.953125 -59.425781 15.953125 -58.375 L 15.953125 -40.65625 C 15.953125 -39.84375 16.101562 -39.40625 16.40625 -39.34375 C 16.71875 -39.289062 17.0625 -39.265625 17.4375 -39.265625 Z M 17.4375 -39.265625 "/></g></g></g><g fill="#ffffff" fill-opacity="1"><g transform="translate(156.794534, 209.214197)"><g><path d="M 38.421875 -1.953125 L 38.421875 -44.296875 L 32.359375 -33.015625 L 22.9375 -33.015625 L 17.25 -44.109375 L 17.25 -2.046875 C 17.25 -0.929688 17.21875 -0.1875 17.15625 0.1875 C 16.90625 1.050781 15.691406 1.484375 13.515625 1.484375 C 7.304688 1.484375 4.203125 0.335938 4.203125 -1.953125 L 4.203125 -68.078125 C 4.203125 -70.429688 6.34375 -71.609375 10.625 -71.609375 C 14.914062 -71.609375 17.5 -70.460938 18.375 -68.171875 L 27.78125 -44.109375 L 37.671875 -68.265625 C 38.171875 -69.628906 38.773438 -70.523438 39.484375 -70.953125 C 40.203125 -71.390625 41.460938 -71.609375 43.265625 -71.609375 C 47.742188 -71.609375 50.015625 -70.398438 50.078125 -67.984375 L 51.5625 -40.1875 L 51.5625 -2.609375 C 51.5625 -0.742188 51.390625 0.398438 51.046875 0.828125 C 50.710938 1.265625 49.597656 1.484375 47.703125 1.484375 C 45.804688 1.484375 44.265625 1.421875 43.078125 1.296875 C 41.898438 1.179688 40.828125 0.859375 39.859375 0.328125 C 38.898438 -0.203125 38.421875 -0.960938 38.421875 -1.953125 Z M 38.421875 -1.953125 "/></g></g></g><g fill="#ffffff" fill-opacity="1"><g transform="translate(212.461281, 209.214197)"><g><path d="M 34.21875 -67.328125 C 34.21875 -69.066406 34.585938 -70.210938 35.328125 -70.765625 C 36.078125 -71.328125 37.632812 -71.609375 40 -71.609375 C 42.363281 -71.609375 43.992188 -71.234375 44.890625 -70.484375 C 45.796875 -69.742188 46.28125 -67.945312 46.34375 -65.09375 L 47.46875 -40 C 47.46875 -39.070312 47.46875 -38.140625 47.46875 -37.203125 C 47.46875 -27.566406 46.828125 -19.921875 45.546875 -14.265625 C 44.273438 -8.609375 42.097656 -4.566406 39.015625 -2.140625 C 35.941406 0.273438 31.546875 1.484375 25.828125 1.484375 C 17.492188 1.484375 11.742188 -1.125 8.578125 -6.34375 C 5.410156 -11.5625 3.828125 -20.945312 3.828125 -34.5 L 3.828125 -65.28125 C 3.828125 -67.945312 4.210938 -69.664062 4.984375 -70.4375 C 5.765625 -71.21875 7.363281 -71.609375 9.78125 -71.609375 C 12.207031 -71.609375 13.851562 -71.1875 14.71875 -70.34375 C 15.59375 -69.507812 16.09375 -67.507812 16.21875 -64.34375 L 17.53125 -40.1875 C 17.53125 -24.457031 18.148438 -15.101562 19.390625 -12.125 C 19.890625 -10.820312 20.609375 -10.171875 21.546875 -10.171875 C 23.710938 -10.171875 25.382812 -10.210938 26.5625 -10.296875 C 27.75 -10.390625 28.898438 -10.765625 30.015625 -11.421875 C 31.140625 -12.078125 31.921875 -12.835938 32.359375 -13.703125 C 32.796875 -14.578125 33.195312 -16.039062 33.5625 -18.09375 C 34 -20.945312 34.21875 -26.414062 34.21875 -34.5 Z M 34.21875 -67.328125 "/></g></g></g><g fill="#ffffff" fill-opacity="1"><g transform="translate(263.745551, 209.214197)"><g><path d="M 40.65625 -11 C 42.207031 -11 42.984375 -10.003906 42.984375 -8.015625 C 42.984375 -6.023438 42.953125 -4.535156 42.890625 -3.546875 C 42.640625 -1.304688 41.644531 -0.03125 39.90625 0.28125 C 34.375 1.082031 30.273438 1.484375 27.609375 1.484375 C 18.335938 1.484375 11.960938 -1.125 8.484375 -6.34375 C 5.003906 -11.5625 3.265625 -20.976562 3.265625 -34.59375 C 3.265625 -44.539062 4.023438 -52.140625 5.546875 -57.390625 C 7.066406 -62.648438 9.519531 -66.332031 12.90625 -68.4375 C 16.300781 -70.550781 21.367188 -71.609375 28.109375 -71.609375 C 34.859375 -71.609375 39.785156 -70.554688 42.890625 -68.453125 C 43.515625 -68.015625 43.828125 -67.484375 43.828125 -66.859375 C 43.828125 -66.234375 43.53125 -65.066406 42.9375 -63.359375 C 42.351562 -61.648438 41.796875 -60.4375 41.265625 -59.71875 C 40.734375 -59.007812 40.1875 -58.65625 39.625 -58.65625 C 39.070312 -58.65625 38.640625 -58.6875 38.328125 -58.75 C 33.660156 -59.675781 29.632812 -60.140625 26.25 -60.140625 C 22.863281 -60.140625 20.65625 -58.273438 19.625 -54.546875 C 18.601562 -50.816406 18.09375 -44.769531 18.09375 -36.40625 C 18.09375 -28.050781 18.304688 -22.222656 18.734375 -18.921875 C 19.171875 -15.628906 19.976562 -13.332031 21.15625 -12.03125 C 22.34375 -10.726562 24.222656 -10.078125 26.796875 -10.078125 C 29.378906 -10.078125 32.300781 -10.226562 35.5625 -10.53125 C 38.832031 -10.84375 40.53125 -11 40.65625 -11 Z M 40.65625 -11 "/></g></g></g><g fill="#ffffff" fill-opacity="1"><g transform="translate(310.181126, 209.214197)"><g><path d="M 32.453125 -68.453125 C 32.453125 -69.753906 32.742188 -70.601562 33.328125 -71 C 33.921875 -71.40625 35.148438 -71.609375 37.015625 -71.609375 C 41.492188 -71.609375 43.765625 -70.460938 43.828125 -68.171875 L 45.59375 -40.1875 L 45.59375 -1.953125 C 45.59375 -0.898438 45.5625 -0.1875 45.5 0.1875 C 45.257812 1.050781 44.050781 1.484375 41.875 1.484375 C 35.59375 1.484375 32.453125 0.367188 32.453125 -1.859375 L 32.453125 -28.90625 L 17.15625 -28.90625 L 17.25 -1.953125 C 17.25 -0.898438 17.21875 -0.1875 17.15625 0.1875 C 16.90625 1.050781 15.691406 1.484375 13.515625 1.484375 C 7.304688 1.484375 4.203125 0.304688 4.203125 -2.046875 L 4.203125 -68.359375 C 4.203125 -69.722656 4.492188 -70.601562 5.078125 -71 C 5.671875 -71.40625 6.898438 -71.609375 8.765625 -71.609375 C 13.242188 -71.609375 15.515625 -70.523438 15.578125 -68.359375 L 17.15625 -40.09375 L 32.453125 -40.09375 Z M 32.453125 -68.453125 "/></g></g></g><g fill="#ffffff" fill-opacity="1"><g transform="translate(359.880248, 209.214197)"><g><path d="M 3.453125 -34.59375 C 3.453125 -44.476562 4.226562 -52.0625 5.78125 -57.34375 C 7.332031 -62.632812 9.800781 -66.332031 13.1875 -68.4375 C 16.582031 -70.550781 21.476562 -71.609375 27.875 -71.609375 C 34.28125 -71.609375 39.175781 -70.550781 42.5625 -68.4375 C 45.957031 -66.332031 48.414062 -62.648438 49.9375 -57.390625 C 51.457031 -52.140625 52.21875 -44.539062 52.21875 -34.59375 C 52.21875 -20.976562 50.476562 -11.5625 47 -6.34375 C 43.519531 -1.125 37.144531 1.484375 27.875 1.484375 C 18.613281 1.484375 12.226562 -1.125 8.71875 -6.34375 C 5.207031 -11.5625 3.453125 -20.976562 3.453125 -34.59375 Z M 19.015625 -51.984375 C 18.648438 -49.648438 18.4375 -47.285156 18.375 -44.890625 C 18.3125 -42.503906 18.28125 -38.453125 18.28125 -32.734375 C 18.28125 -27.015625 18.460938 -22.226562 18.828125 -18.375 C 19.203125 -14.519531 19.703125 -11.984375 20.328125 -10.765625 C 20.953125 -9.554688 21.789062 -8.953125 22.84375 -8.953125 C 28.3125 -8.953125 31.882812 -9.507812 33.5625 -10.625 C 34.1875 -11.0625 34.796875 -11.773438 35.390625 -12.765625 C 35.984375 -13.765625 36.398438 -14.789062 36.640625 -15.84375 C 36.890625 -16.90625 37.109375 -18.460938 37.296875 -20.515625 C 37.546875 -23.191406 37.671875 -27.992188 37.671875 -34.921875 C 37.671875 -41.847656 37.5 -47.316406 37.15625 -51.328125 C 36.8125 -55.335938 36.3125 -58.070312 35.65625 -59.53125 C 35.007812 -61 34.160156 -61.734375 33.109375 -61.734375 C 30.617188 -61.734375 28.609375 -61.625 27.078125 -61.40625 C 25.554688 -61.1875 24.207031 -60.65625 23.03125 -59.8125 C 21.851562 -58.976562 20.984375 -58.046875 20.421875 -57.015625 C 19.859375 -55.992188 19.390625 -54.316406 19.015625 -51.984375 Z M 19.015625 -51.984375 "/></g></g></g><g fill="#ffffff" fill-opacity="1"><g transform="translate(415.546994, 209.214197)"><g/></g></g><g fill="#ffffff" fill-opacity="1"><g transform="translate(440.34993, 209.214197)"><g><path d="M 4.203125 -2.046875 L 4.203125 -70.125 C 10.472656 -71.113281 16.003906 -71.609375 20.796875 -71.609375 C 29.253906 -71.609375 35.144531 -69.835938 38.46875 -66.296875 C 41.789062 -62.753906 43.453125 -57.191406 43.453125 -49.609375 C 43.453125 -40.660156 41.210938 -34.535156 36.734375 -31.234375 C 33.816406 -29.117188 30.957031 -27.816406 28.15625 -27.328125 C 24.550781 -26.765625 20.453125 -26.484375 15.859375 -26.484375 L 15.859375 -2.140625 C 15.859375 -0.960938 15.796875 -0.1875 15.671875 0.1875 C 15.484375 1.050781 14.300781 1.484375 12.125 1.484375 C 6.84375 1.484375 4.203125 0.304688 4.203125 -2.046875 Z M 16.171875 -39.484375 C 16.390625 -39.390625 16.578125 -39.328125 16.734375 -39.296875 C 16.890625 -39.273438 17.601562 -39.265625 18.875 -39.265625 C 20.15625 -39.265625 21.320312 -39.289062 22.375 -39.34375 C 23.4375 -39.40625 24.570312 -39.609375 25.78125 -39.953125 C 27 -40.296875 27.851562 -40.84375 28.34375 -41.59375 C 29.46875 -43.457031 30.03125 -46.035156 30.03125 -49.328125 C 30.03125 -52.617188 29.53125 -55.304688 28.53125 -57.390625 C 27.539062 -59.472656 26.484375 -60.515625 25.359375 -60.515625 C 20.890625 -60.515625 18.1875 -60.421875 17.25 -60.234375 C 16.320312 -60.046875 15.859375 -59.425781 15.859375 -58.375 L 15.859375 -40.65625 C 15.859375 -39.96875 15.960938 -39.578125 16.171875 -39.484375 Z M 16.171875 -39.484375 "/></g></g></g><g fill="#ffffff" fill-opacity="1"><g transform="translate(484.827376, 209.214197)"><g><path d="M 35.25 -42.421875 C 37.738281 -42.421875 38.984375 -41.304688 38.984375 -39.078125 C 38.984375 -36.023438 38.796875 -33.9375 38.421875 -32.8125 C 38.046875 -31.695312 37.082031 -31.140625 35.53125 -31.140625 L 17.25 -31.140625 L 17.25 -11.28125 L 38.796875 -11.28125 C 40.285156 -11.21875 41.304688 -10.921875 41.859375 -10.390625 C 42.421875 -9.867188 42.703125 -9.078125 42.703125 -8.015625 C 42.703125 -4.972656 42.421875 -2.875 41.859375 -1.71875 C 41.304688 -0.570312 40.191406 0 38.515625 0 L 5.6875 0 L 4.203125 -1.484375 L 4.203125 -70.125 L 37.296875 -70.125 C 39.972656 -70.0625 41.3125 -69.066406 41.3125 -67.140625 C 41.25 -65.460938 41.15625 -64.140625 41.03125 -63.171875 C 40.90625 -62.210938 40.515625 -61.265625 39.859375 -60.328125 C 39.210938 -59.398438 38.265625 -58.9375 37.015625 -58.9375 L 16.21875 -58.9375 L 17.25 -42.421875 Z M 35.25 -42.421875 "/></g></g></g><g fill="#ffffff" fill-opacity="1"><g transform="translate(529.864305, 209.214197)"><g><path d="M 4.46875 -6.8125 C 3.164062 -8.425781 2.515625 -9.648438 2.515625 -10.484375 C 2.515625 -11.328125 3.242188 -12.476562 4.703125 -13.9375 C 6.171875 -15.394531 7.132812 -16.1875 7.59375 -16.3125 C 8.0625 -16.4375 8.515625 -16.5 8.953125 -16.5 C 9.390625 -16.5 10.101562 -16.222656 11.09375 -15.671875 C 15.695312 -12.054688 19.738281 -10.25 23.21875 -10.25 C 26.695312 -10.25 28.960938 -11.054688 30.015625 -12.671875 C 31.078125 -14.296875 31.609375 -16.410156 31.609375 -19.015625 C 31.609375 -21.628906 30.675781 -23.742188 28.8125 -25.359375 C 26.945312 -26.972656 23.882812 -28.929688 19.625 -31.234375 C 15.363281 -33.535156 11.648438 -36.519531 8.484375 -40.1875 C 5.316406 -43.851562 3.734375 -47.644531 3.734375 -51.5625 C 3.734375 -58.53125 5.550781 -63.613281 9.1875 -66.8125 C 12.820312 -70.007812 18.148438 -71.609375 25.171875 -71.609375 C 29.460938 -71.609375 33.660156 -70.582031 37.765625 -68.53125 C 39.941406 -67.664062 40.96875 -66.765625 40.84375 -65.828125 C 40.78125 -65.460938 40.71875 -64.90625 40.65625 -64.15625 C 39.476562 -60.800781 38.578125 -58.875 37.953125 -58.375 C 37.765625 -58.25 37.34375 -58.1875 36.6875 -58.1875 C 36.039062 -58.1875 34.316406 -58.695312 31.515625 -59.71875 C 28.722656 -60.75 26.347656 -61.265625 24.390625 -61.265625 C 22.429688 -61.265625 20.796875 -60.578125 19.484375 -59.203125 C 18.179688 -57.835938 17.53125 -55.910156 17.53125 -53.421875 C 17.53125 -50.941406 18.648438 -48.691406 20.890625 -46.671875 C 23.128906 -44.648438 26.578125 -42.550781 31.234375 -40.375 C 36.148438 -37.820312 39.832031 -35.175781 42.28125 -32.4375 C 44.738281 -29.707031 45.96875 -26.046875 45.96875 -21.453125 C 45.96875 -6.160156 39.503906 1.484375 26.578125 1.484375 C 16.941406 1.484375 9.570312 -1.28125 4.46875 -6.8125 Z M 4.46875 -6.8125 "/></g></g></g><g fill="#ffffff" fill-opacity="1"><g transform="translate(578.537713, 209.214197)"><g><path d="M 3.453125 -34.59375 C 3.453125 -44.476562 4.226562 -52.0625 5.78125 -57.34375 C 7.332031 -62.632812 9.800781 -66.332031 13.1875 -68.4375 C 16.582031 -70.550781 21.476562 -71.609375 27.875 -71.609375 C 34.28125 -71.609375 39.175781 -70.550781 42.5625 -68.4375 C 45.957031 -66.332031 48.414062 -62.648438 49.9375 -57.390625 C 51.457031 -52.140625 52.21875 -44.539062 52.21875 -34.59375 C 52.21875 -20.976562 50.476562 -11.5625 47 -6.34375 C 43.519531 -1.125 37.144531 1.484375 27.875 1.484375 C 18.613281 1.484375 12.226562 -1.125 8.71875 -6.34375 C 5.207031 -11.5625 3.453125 -20.976562 3.453125 -34.59375 Z M 19.015625 -51.984375 C 18.648438 -49.648438 18.4375 -47.285156 18.375 -44.890625 C 18.3125 -42.503906 18.28125 -38.453125 18.28125 -32.734375 C 18.28125 -27.015625 18.460938 -22.226562 18.828125 -18.375 C 19.203125 -14.519531 19.703125 -11.984375 20.328125 -10.765625 C 20.953125 -9.554688 21.789062 -8.953125 22.84375 -8.953125 C 28.3125 -8.953125 31.882812 -9.507812 33.5625 -10.625 C 34.1875 -11.0625 34.796875 -11.773438 35.390625 -12.765625 C 35.984375 -13.765625 36.398438 -14.789062 36.640625 -15.84375 C 36.890625 -16.90625 37.109375 -18.460938 37.296875 -20.515625 C 37.546875 -23.191406 37.671875 -27.992188 37.671875 -34.921875 C 37.671875 -41.847656 37.5 -47.316406 37.15625 -51.328125 C 36.8125 -55.335938 36.3125 -58.070312 35.65625 -59.53125 C 35.007812 -61 34.160156 -61.734375 33.109375 -61.734375 C 30.617188 -61.734375 28.609375 -61.625 27.078125 -61.40625 C 25.554688 -61.1875 24.207031 -60.65625 23.03125 -59.8125 C 21.851562 -58.976562 20.984375 -58.046875 20.421875 -57.015625 C 19.859375 -55.992188 19.390625 -54.316406 19.015625 -51.984375 Z M 19.015625 -51.984375 "/></g></g></g><g fill="#ffffff" fill-opacity="1"><g transform="translate(634.204471, 209.214197)"><g/></g></g><g fill="#ffffff" fill-opacity="1"><g transform="translate(659.007431, 209.214197)"><g><path d="M 35.25 -42.421875 C 37.738281 -42.421875 38.984375 -41.304688 38.984375 -39.078125 C 38.984375 -36.023438 38.796875 -33.9375 38.421875 -32.8125 C 38.046875 -31.695312 37.082031 -31.140625 35.53125 -31.140625 L 17.25 -31.140625 L 17.25 -11.28125 L 38.796875 -11.28125 C 40.285156 -11.21875 41.304688 -10.921875 41.859375 -10.390625 C 42.421875 -9.867188 42.703125 -9.078125 42.703125 -8.015625 C 42.703125 -4.972656 42.421875 -2.875 41.859375 -1.71875 C 41.304688 -0.570312 40.191406 0 38.515625 0 L 5.6875 0 L 4.203125 -1.484375 L 4.203125 -70.125 L 37.296875 -70.125 C 39.972656 -70.0625 41.3125 -69.066406 41.3125 -67.140625 C 41.25 -65.460938 41.15625 -64.140625 41.03125 -63.171875 C 40.90625 -62.210938 40.515625 -61.265625 39.859375 -60.328125 C 39.210938 -59.398438 38.265625 -58.9375 37.015625 -58.9375 L 16.21875 -58.9375 L 17.25 -42.421875 Z M 35.25 -42.421875 "/></g></g></g><g fill="#ffffff" fill-opacity="1"><g transform="translate(704.044336, 209.214197)"><g><path d="M 4.203125 -2.234375 L 4.203125 -68.171875 C 4.203125 -70.460938 6.4375 -71.609375 10.90625 -71.609375 C 11.84375 -71.609375 12.570312 -71.578125 13.09375 -71.515625 C 13.625 -71.453125 14.289062 -71.15625 15.09375 -70.625 C 15.90625 -70.101562 16.625 -69.347656 17.25 -68.359375 L 33.9375 -29.1875 L 33.390625 -68.265625 C 33.390625 -70.492188 35.625 -71.609375 40.09375 -71.609375 C 41.957031 -71.609375 43.234375 -71.390625 43.921875 -70.953125 C 44.609375 -70.523438 44.984375 -69.628906 45.046875 -68.265625 L 46.53125 -40.1875 L 46.53125 -1.953125 C 46.53125 -0.898438 46.5 -0.1875 46.4375 0.1875 C 46.1875 1.050781 44.972656 1.484375 42.796875 1.484375 C 38.753906 1.484375 36.332031 0.335938 35.53125 -1.953125 L 17.15625 -40.65625 L 17.25 -2.046875 C 17.25 -0.929688 17.21875 -0.1875 17.15625 0.1875 C 16.90625 1.050781 15.691406 1.484375 13.515625 1.484375 C 7.304688 1.484375 4.203125 0.242188 4.203125 -2.234375 Z M 4.203125 -2.234375 "/></g></g></g><g fill="#000000" fill-opacity="1"><g transform="translate(754.668294, 209.214197)"><g/></g></g><g fill="#fffc00" fill-opacity="1"><g transform="translate(779.466592, 209.214197)"><g><path d="M 37.109375 0 L 5.5 0 L 4.015625 -1.484375 L 4.015625 -11.5625 L 14.640625 -11.5625 L 14.640625 -54.921875 L 6.34375 -53.25 L 3.078125 -64.34375 L 24.984375 -70.125 L 26.484375 -68.625 L 27.96875 -40.28125 L 28.0625 -11.5625 L 35.625 -11.5625 L 37.109375 -10.078125 Z M 37.109375 0 "/></g></g></g><g fill="#fffc00" fill-opacity="1"><g transform="translate(818.815614, 209.214197)"><g><path d="M 5.6875 -70.125 L 38.984375 -70.125 L 40.375 -68.625 L 40.375 -58.65625 L 34.03125 -40.28125 L 16.6875 0 L 4.84375 0 L 3.359375 -1.484375 L 27.78125 -58.5625 L 7.1875 -58.5625 L 5.6875 -60.046875 Z M 5.6875 -70.125 "/></g></g></g><g fill="#fffc00" fill-opacity="1"><g transform="translate(860.495745, 209.214197)"><g/></g></g><g fill="#fffc00" fill-opacity="1"><g transform="translate(885.298681, 209.214197)"><g><path d="M 24.625 -71.609375 C 31.394531 -71.609375 36.519531 -70.644531 40 -68.71875 C 43.476562 -66.789062 45.992188 -63.296875 47.546875 -58.234375 C 49.109375 -53.171875 49.890625 -45.664062 49.890625 -35.71875 C 49.890625 -21.914062 48.085938 -12.265625 44.484375 -6.765625 C 40.878906 -1.265625 34.257812 1.484375 24.625 1.484375 C 22.257812 1.484375 15.453125 0.988281 4.203125 0 L 4.203125 -70.03125 C 13.648438 -71.082031 20.457031 -71.609375 24.625 -71.609375 Z M 29.5625 -60.515625 C 24.15625 -60.515625 20.765625 -60.40625 19.390625 -60.1875 C 18.023438 -59.96875 17.34375 -59.363281 17.34375 -58.375 L 17.34375 -11.5625 C 17.34375 -10.875 17.757812 -10.46875 18.59375 -10.34375 C 19.4375 -10.226562 21.148438 -10.171875 23.734375 -10.171875 C 26.316406 -10.171875 28.132812 -10.304688 29.1875 -10.578125 C 30.238281 -10.859375 31.21875 -11.351562 32.125 -12.0625 C 33.03125 -12.78125 33.632812 -14.164062 33.9375 -16.21875 C 34.5625 -20.195312 34.875 -26.351562 34.875 -34.6875 C 34.875 -51.90625 33.101562 -60.515625 29.5625 -60.515625 Z M 29.5625 -60.515625 "/></g></g></g><g fill="#fffc00" fill-opacity="1"><g transform="translate(938.541079, 209.214197)"><g><path d="M 14.546875 -73.859375 L 10.25 -75.8125 L 10.171875 -80.9375 L 15.484375 -92.5 L 19.390625 -95.484375 L 29.46875 -89.890625 Z M 3.453125 -11.28125 L 6.8125 -11.28125 L 6.8125 -58.9375 L 4.015625 -58.9375 C 2.765625 -59 1.921875 -59.398438 1.484375 -60.140625 C 1.054688 -61.015625 0.84375 -62.601562 0.84375 -64.90625 C 0.84375 -68.382812 1.867188 -70.125 3.921875 -70.125 L 20.421875 -70.125 C 23.160156 -70.125 24.53125 -69.160156 24.53125 -67.234375 C 24.53125 -61.703125 23.441406 -58.9375 21.265625 -58.9375 L 18.9375 -58.9375 L 19.859375 -40.28125 L 19.953125 -11.28125 L 22.75 -11.28125 C 24.925781 -11.21875 26.015625 -10.222656 26.015625 -8.296875 C 25.890625 -2.765625 24.367188 0 21.453125 0 L 3.828125 0 C 2.703125 -0.0625 1.921875 -0.46875 1.484375 -1.21875 C 1.054688 -2.082031 0.84375 -3.695312 0.84375 -6.0625 C 0.84375 -9.539062 1.710938 -11.28125 3.453125 -11.28125 Z M 3.453125 -11.28125 "/></g></g></g><g fill="#fffc00" fill-opacity="1"><g transform="translate(969.777858, 209.214197)"><g><path d="M 27.78125 -71.703125 C 32.070312 -71.703125 34.40625 -70.738281 34.78125 -68.8125 L 41.125 -40.1875 L 47.5625 -2.046875 C 47.6875 -1.429688 47.75 -0.859375 47.75 -0.328125 C 47.75 0.203125 47.59375 0.632812 47.28125 0.96875 C 46.96875 1.3125 45.910156 1.484375 44.109375 1.484375 C 38.578125 1.484375 35.625 0.304688 35.25 -2.046875 L 31.984375 -21.265625 L 18.9375 -21.265625 L 16.03125 -1.953125 C 15.851562 -0.648438 15.625 0.21875 15.34375 0.65625 C 15.0625 1.09375 14.671875 1.335938 14.171875 1.390625 C 13.671875 1.453125 12.863281 1.484375 11.75 1.484375 L 9.140625 1.484375 C 6.960938 1.484375 5.59375 1.363281 5.03125 1.125 C 3.664062 0.625 2.890625 0.0625 2.703125 -0.5625 C 2.640625 -0.875 2.609375 -1.148438 2.609375 -1.390625 C 2.609375 -1.640625 3.257812 -5.742188 4.5625 -13.703125 C 5.875 -21.660156 7.476562 -31.140625 9.375 -42.140625 C 11.269531 -53.148438 12.507812 -60.363281 13.09375 -63.78125 C 13.6875 -67.195312 14.015625 -69.125 14.078125 -69.5625 C 14.328125 -70.988281 18.894531 -71.703125 27.78125 -71.703125 Z M 24.984375 -59.5 L 20.703125 -32.546875 L 29.9375 -32.546875 Z M 24.984375 -59.5 "/></g></g></g><g fill="#fffc00" fill-opacity="1"><g transform="translate(1020.036438, 209.214197)"><g><path d="M 4.46875 -6.8125 C 3.164062 -8.425781 2.515625 -9.648438 2.515625 -10.484375 C 2.515625 -11.328125 3.242188 -12.476562 4.703125 -13.9375 C 6.171875 -15.394531 7.132812 -16.1875 7.59375 -16.3125 C 8.0625 -16.4375 8.515625 -16.5 8.953125 -16.5 C 9.390625 -16.5 10.101562 -16.222656 11.09375 -15.671875 C 15.695312 -12.054688 19.738281 -10.25 23.21875 -10.25 C 26.695312 -10.25 28.960938 -11.054688 30.015625 -12.671875 C 31.078125 -14.296875 31.609375 -16.410156 31.609375 -19.015625 C 31.609375 -21.628906 30.675781 -23.742188 28.8125 -25.359375 C 26.945312 -26.972656 23.882812 -28.929688 19.625 -31.234375 C 15.363281 -33.535156 11.648438 -36.519531 8.484375 -40.1875 C 5.316406 -43.851562 3.734375 -47.644531 3.734375 -51.5625 C 3.734375 -58.53125 5.550781 -63.613281 9.1875 -66.8125 C 12.820312 -70.007812 18.148438 -71.609375 25.171875 -71.609375 C 29.460938 -71.609375 33.660156 -70.582031 37.765625 -68.53125 C 39.941406 -67.664062 40.96875 -66.765625 40.84375 -65.828125 C 40.78125 -65.460938 40.71875 -64.90625 40.65625 -64.15625 C 39.476562 -60.800781 38.578125 -58.875 37.953125 -58.375 C 37.765625 -58.25 37.34375 -58.1875 36.6875 -58.1875 C 36.039062 -58.1875 34.316406 -58.695312 31.515625 -59.71875 C 28.722656 -60.75 26.347656 -61.265625 24.390625 -61.265625 C 22.429688 -61.265625 20.796875 -60.578125 19.484375 -59.203125 C 18.179688 -57.835938 17.53125 -55.910156 17.53125 -53.421875 C 17.53125 -50.941406 18.648438 -48.691406 20.890625 -46.671875 C 23.128906 -44.648438 26.578125 -42.550781 31.234375 -40.375 C 36.148438 -37.820312 39.832031 -35.175781 42.28125 -32.4375 C 44.738281 -29.707031 45.96875 -26.046875 45.96875 -21.453125 C 45.96875 -6.160156 39.503906 1.484375 26.578125 1.484375 C 16.941406 1.484375 9.570312 -1.28125 4.46875 -6.8125 Z M 4.46875 -6.8125 "/></g></g></g><g clip-path="url(#id1)"><path fill="#ffffff" d="M 1140.558594 190.828125 C 1106.839844 190.828125 1078 167.140625 1071.433594 134.339844 L 1065.445312 134.339844 C 1064.890625 134.339844 1064.378906 134.042969 1064.097656 133.5625 C 1063.820312 133.085938 1063.820312 132.492188 1064.097656 132.015625 L 1071.324219 119.53125 C 1071.882812 118.570312 1073.464844 118.570312 1074.019531 119.53125 L 1081.246094 132.015625 C 1081.523438 132.492188 1081.523438 133.085938 1081.246094 133.5625 C 1080.96875 134.042969 1080.457031 134.339844 1079.898438 134.339844 L 1074.617188 134.339844 C 1081.132812 165.375 1108.535156 187.726562 1140.558594 187.726562 C 1177.738281 187.726562 1207.988281 157.5625 1207.988281 120.484375 C 1207.988281 83.40625 1177.738281 53.238281 1140.558594 53.238281 C 1129.386719 53.238281 1118.328125 56.019531 1108.5625 61.277344 C 1107.804688 61.6875 1106.863281 61.398438 1106.457031 60.648438 C 1106.046875 59.894531 1106.332031 58.953125 1107.085938 58.546875 C 1116.847656 53.292969 1127.851562 50.433594 1139.003906 50.1875 L 1139.003906 35.742188 L 1127.964844 35.742188 C 1127.105469 35.742188 1126.40625 35.046875 1126.40625 34.191406 C 1126.40625 33.335938 1127.105469 32.640625 1127.964844 32.640625 L 1152.195312 32.640625 C 1153.054688 32.640625 1153.75 33.335938 1153.75 34.191406 C 1153.75 35.046875 1153.054688 35.742188 1152.195312 35.742188 L 1142.113281 35.742188 L 1142.113281 50.175781 C 1153.339844 50.421875 1163.925781 53.285156 1173.28125 58.195312 L 1180.25 46.675781 C 1180.695312 45.941406 1181.648438 45.707031 1182.386719 46.148438 C 1183.121094 46.59375 1183.359375 47.546875 1182.917969 48.277344 L 1176 59.699219 C 1196.96875 71.910156 1211.097656 94.574219 1211.097656 120.484375 C 1211.097656 159.273438 1179.453125 190.828125 1140.558594 190.828125 Z M 1180.34375 58.648438 L 1185.632812 49.910156 C 1186.976562 47.6875 1186.257812 44.785156 1184.023438 43.4375 C 1183.285156 42.996094 1182.441406 42.757812 1181.585938 42.757812 C 1179.933594 42.757812 1178.382812 43.636719 1177.535156 45.042969 L 1172.078125 54.054688 C 1163.636719 50.050781 1154.652344 47.734375 1145.285156 47.144531 L 1145.285156 38.90625 L 1152.191406 38.90625 C 1154.800781 38.90625 1156.921875 36.792969 1156.921875 34.191406 C 1156.921875 31.589844 1154.800781 29.476562 1152.191406 29.476562 L 1127.964844 29.476562 C 1125.355469 29.476562 1123.234375 31.589844 1123.234375 34.191406 C 1123.234375 36.792969 1125.355469 38.90625 1127.964844 38.90625 L 1135.832031 38.90625 L 1135.832031 47.15625 C 1125.21875 47.835938 1114.816406 50.789062 1105.582031 55.761719 C 1104.46875 56.359375 1103.65625 57.355469 1103.296875 58.5625 C 1102.933594 59.769531 1103.0625 61.046875 1103.664062 62.152344 C 1104.492188 63.679688 1106.085938 64.628906 1107.828125 64.628906 C 1108.613281 64.628906 1109.390625 64.429688 1110.074219 64.058594 C 1119.371094 59.050781 1129.917969 56.402344 1140.558594 56.402344 C 1175.988281 56.402344 1204.816406 85.152344 1204.816406 120.484375 C 1204.816406 155.816406 1175.988281 184.5625 1140.558594 184.5625 C 1111.65625 184.5625 1086.226562 164.996094 1078.648438 137.503906 L 1079.902344 137.503906 C 1081.585938 137.503906 1083.15625 136.597656 1083.992188 135.152344 C 1084.835938 133.695312 1084.839844 131.886719 1083.996094 130.433594 L 1076.769531 117.949219 C 1075.945312 116.527344 1074.375 115.644531 1072.671875 115.644531 C 1070.96875 115.644531 1069.398438 116.527344 1068.578125 117.949219 L 1061.351562 130.429688 C 1060.507812 131.886719 1060.507812 133.695312 1061.351562 135.144531 C 1062.191406 136.597656 1063.761719 137.503906 1065.445312 137.503906 L 1068.878906 137.503906 C 1076.691406 170.390625 1106.425781 193.992188 1140.558594 193.992188 C 1181.203125 193.992188 1214.269531 161.019531 1214.269531 120.484375 C 1214.269531 95.542969 1201.351562 72.140625 1180.34375 58.648438 " fill-opacity="1" fill-rule="nonzero"/></g><path fill="#ffffff" d="M 1072.671875 123.410156 L 1068.140625 131.238281 L 1077.207031 131.238281 Z M 1072.671875 123.410156 " fill-opacity="1" fill-rule="nonzero"/><path fill="#ffffff" d="M 1120.035156 113.167969 L 1131.882812 98.65625 L 1138.09375 98.65625 L 1124.058594 115.058594 L 1139.1875 137.320312 L 1133.261719 137.320312 L 1120.492188 118.332031 L 1116.8125 122.578125 L 1116.8125 137.320312 L 1111.804688 137.320312 L 1111.804688 98.65625 L 1116.8125 98.65625 L 1116.8125 117.300781 L 1116.984375 117.300781 C 1118.019531 115.808594 1119.054688 114.429688 1120.035156 113.167969 Z M 1108.636719 95.492188 L 1108.636719 140.480469 L 1119.984375 140.480469 L 1119.984375 123.753906 L 1120.175781 123.535156 L 1131.570312 140.480469 L 1145.171875 140.480469 L 1128.042969 115.277344 L 1144.96875 95.492188 L 1130.375 95.492188 L 1119.984375 108.21875 L 1119.984375 95.492188 L 1108.636719 95.492188 " fill-opacity="1" fill-rule="nonzero"/><path fill="#ffffff" d="M 1144.992188 117.988281 C 1144.992188 127.796875 1150.917969 133.589844 1159.945312 133.589844 C 1163.226562 133.589844 1165.46875 133.132812 1166.621094 132.554688 L 1166.621094 121.027344 L 1158.738281 121.027344 L 1158.738281 117.011719 L 1171.507812 117.011719 L 1171.507812 135.597656 C 1169.265625 136.402344 1164.835938 137.71875 1159.601562 137.71875 C 1153.734375 137.71875 1148.902344 136.226562 1145.109375 132.613281 C 1141.769531 129.402344 1139.699219 124.238281 1139.699219 118.21875 C 1139.757812 106.6875 1147.695312 98.253906 1160.695312 98.253906 C 1165.179688 98.253906 1168.691406 99.226562 1170.359375 100.03125 L 1169.152344 104.105469 C 1167.078125 103.1875 1164.492188 102.441406 1160.578125 102.441406 C 1151.148438 102.441406 1144.992188 108.292969 1144.992188 117.988281 Z M 1160.578125 105.605469 C 1164.257812 105.605469 1166.402344 106.347656 1167.859375 106.992188 L 1171.164062 108.460938 L 1174.167969 98.351562 L 1171.738281 97.183594 C 1169.636719 96.171875 1165.632812 95.089844 1160.695312 95.089844 C 1146.308594 95.089844 1136.59375 104.378906 1136.527344 118.21875 C 1136.527344 124.914062 1138.851562 130.988281 1142.917969 134.902344 C 1147.144531 138.925781 1152.601562 140.882812 1159.601562 140.882812 C 1165 140.882812 1169.640625 139.628906 1172.582031 138.574219 L 1174.683594 137.824219 L 1174.683594 113.847656 L 1155.566406 113.847656 L 1155.566406 124.191406 L 1163.449219 124.191406 L 1163.449219 130.183594 C 1162.585938 130.320312 1161.425781 130.425781 1159.945312 130.425781 C 1152.457031 130.425781 1148.164062 125.890625 1148.164062 117.984375 C 1148.164062 110.234375 1152.804688 105.605469 1160.578125 105.605469 " fill-opacity="1" fill-rule="nonzero"/></svg>